<svg width="41" height="50" viewBox="0 0 41 50" fill="none" xmlns="http://www.w3.org/2000/svg">
<g id="atmos-pressure">
<g id="Group">
<path id="Vector" d="M26.5306 5.08163C24.6024 4.42847 22.5506 4.08163 20.4082 4.08163C18.2657 4.08163 16.2149 4.42837 14.2857 5.08163C6.58184 7.63265 1.02042 14.9081 1.02042 23.4694C1.02042 32.4289 7.10205 39.9693 15.3569 42.1835C16.9693 42.6219 18.6633 42.8571 20.4082 42.8571C22.1531 42.8571 23.8471 42.6219 25.4594 42.1835C33.7143 39.9693 39.7959 32.4289 39.7959 23.4694C39.7959 14.9081 34.2345 7.63265 26.5306 5.08163Z" fill="white"/>
<path id="Vector_2" d="M35.2041 23.4694C35.2041 31.6416 28.5804 38.2653 20.4082 38.2653C12.2369 38.2653 5.61224 31.6416 5.61224 23.4694C5.61224 15.2977 12.2369 8.67348 20.4082 8.67348C28.5804 8.67348 35.2041 15.2977 35.2041 23.4694Z" fill="#F1F2F2"/>
<g id="Group_2">
<path id="Vector_3" d="M17.8571 25L20.4082 28.5714L22.9592 25L20.4082 16.3265L17.8571 25Z" fill="url(#paint0_linear)"/>
</g>
</g>
<g id="Group_3">
<path id="Vector_4" d="M40.8163 23.4694C40.8163 19.1001 39.4535 14.9328 36.875 11.4181C34.4945 8.17306 31.2801 5.74357 27.551 4.35898V2.04082C27.551 0.91551 26.6355 0 25.5102 0H15.3061C14.1808 0 13.2653 0.91551 13.2653 2.04082V4.35908C9.53306 5.74592 6.32061 8.17469 3.94133 11.4181C1.36286 14.9328 0 19.1001 0 23.4694C0 32.4043 5.83439 40.2912 14.2857 42.9346V48.9796C14.2857 49.5432 14.7425 50 15.3061 50H25.5102C26.0737 50 26.5306 49.5432 26.5306 48.9796V42.9346C34.9835 40.2893 40.8163 32.4032 40.8163 23.4694ZM25.5102 2.04082V3.71245C23.8568 3.28051 22.1465 3.06122 20.4082 3.06122C18.6692 3.06122 16.958 3.28092 15.3061 3.71235V2.04082H25.5102ZM16.3265 47.9592V46.9388H19.898V44.898H16.3265V43.462C17.6672 43.7373 19.035 43.8776 20.4082 43.8776C21.7818 43.8776 23.1501 43.7372 24.4898 43.4621V47.9592H16.3265ZM25.1916 41.1989C23.9631 41.533 22.7012 41.7349 21.4286 41.8061V32.1429H19.3878V41.806C18.115 41.7349 16.8527 41.5328 15.6213 41.1979C7.62531 39.0532 2.04082 31.763 2.04082 23.4694C2.04082 19.5372 3.26704 15.7874 5.58684 12.6252C7.86153 9.52459 10.9804 7.25102 14.613 6.04806C16.467 5.42041 18.4168 5.10204 20.4082 5.10204C22.4004 5.10204 24.3502 5.42031 26.2098 6.05031C29.8358 7.25102 32.9548 9.52459 35.2295 12.6252C37.5493 15.7874 38.7755 19.5372 38.7755 23.4694C38.7755 31.763 33.191 39.0532 25.1916 41.1989Z" fill="url(#paint1_linear)"/>
<path id="Vector_5" d="M20.4082 7.65306C15.0885 7.65306 10.155 10.3032 7.21152 14.7417C5.49764 17.3229 4.59183 20.3408 4.59183 23.4694C4.59183 23.6507 4.59183 23.8381 4.60285 24.0277C4.72234 27.4239 5.89897 30.6253 8.00601 33.2864C8.18693 33.515 8.45693 33.6552 8.74795 33.6717C8.76734 33.6729 8.78672 33.6734 8.80601 33.6734C9.07652 33.6734 9.33693 33.5658 9.52897 33.3731L12.0093 30.8829L10.5633 29.4427L8.92703 31.0855C7.7107 29.2577 6.96009 27.1865 6.71938 24.9999H9.18366V22.9591H6.64183C6.72999 20.5262 7.44979 18.1876 8.73622 16.1456L10.5851 17.6319L11.8638 16.0413L9.94703 14.5004C12.3317 11.7202 15.7186 10.0031 19.3877 9.73286V12.7551H21.4286V9.73173C25.1811 10.0079 28.5206 11.7937 30.8403 14.483L28.9016 16.0414L30.1803 17.632L32.0565 16.1238C33.3176 18.1165 34.0815 20.4535 34.1732 22.9592H31.6326V25H34.0969C33.856 27.1884 33.1045 29.2609 31.8864 31.0899L30.24 29.4507L28.8001 30.8969L31.2903 33.3762C31.4964 33.5814 31.7815 33.6894 32.0704 33.6717C32.3607 33.6546 32.6298 33.5145 32.8103 33.2865C34.9173 30.6254 36.094 27.424 36.2135 24.0278C36.2245 23.8381 36.2245 23.6507 36.2245 23.4694C36.2245 14.7483 29.1294 7.65306 20.4082 7.65306Z" fill="url(#paint2_linear)"/>
<path id="Vector_6" d="M25 32.1429H22.9592V34.1837H25V32.1429Z" fill="url(#paint3_linear)"/>
<path id="Vector_7" d="M28.0612 32.1429H26.0204V34.1837H28.0612V32.1429Z" fill="url(#paint4_linear)"/>
<path id="Vector_8" d="M26.0204 35.2041H22.9592V37.2449H26.0204V35.2041Z" fill="url(#paint5_linear)"/>
<path id="Vector_9" d="M14.7959 32.1429H12.7551V34.1837H14.7959V32.1429Z" fill="url(#paint6_linear)"/>
<path id="Vector_10" d="M17.8571 32.1429H15.8163V34.1837H17.8571V32.1429Z" fill="url(#paint7_linear)"/>
<path id="Vector_11" d="M17.8572 35.2041H14.7959V37.2449H17.8572V35.2041Z" fill="url(#paint8_linear)"/>
</g>
</g>
<defs>
<linearGradient id="paint0_linear" x1="20.4082" y1="26" x2="20.4082" y2="20" gradientUnits="userSpaceOnUse">
<stop stop-color="#1B9EF0"/>
<stop offset="1" stop-color="#4A50C2"/>
</linearGradient>
<linearGradient id="paint1_linear" x1="18.9082" y1="51.5" x2="20.4082" y2="11" gradientUnits="userSpaceOnUse">
<stop stop-color="#1BB2F5"/>
<stop offset="1" stop-color="#163AD3"/>
</linearGradient>
<linearGradient id="paint2_linear" x1="15.4081" y1="34" x2="16.4081" y2="8" gradientUnits="userSpaceOnUse">
<stop stop-color="#1BA9F3"/>
<stop offset="1" stop-color="#0718C0"/>
</linearGradient>
<linearGradient id="paint3_linear" x1="23.9796" y1="32.1429" x2="23.9796" y2="34.1837" gradientUnits="userSpaceOnUse">
<stop stop-color="#4B4FC1"/>
<stop offset="1" stop-color="#04C1FC"/>
</linearGradient>
<linearGradient id="paint4_linear" x1="27.0408" y1="32.1429" x2="27.0408" y2="34.1837" gradientUnits="userSpaceOnUse">
<stop stop-color="#4B4FC1"/>
<stop offset="1" stop-color="#04C1FC"/>
</linearGradient>
<linearGradient id="paint5_linear" x1="24.4898" y1="35.2041" x2="24.4898" y2="37.2449" gradientUnits="userSpaceOnUse">
<stop stop-color="#4B4FC1"/>
<stop offset="1" stop-color="#04C1FC"/>
</linearGradient>
<linearGradient id="paint6_linear" x1="13.7755" y1="32.1429" x2="13.7755" y2="34.1837" gradientUnits="userSpaceOnUse">
<stop stop-color="#4B4FC1"/>
<stop offset="1" stop-color="#04C1FC"/>
</linearGradient>
<linearGradient id="paint7_linear" x1="16.8367" y1="32.1429" x2="16.8367" y2="34.1837" gradientUnits="userSpaceOnUse">
<stop stop-color="#4B4FC1"/>
<stop offset="1" stop-color="#04C1FC"/>
</linearGradient>
<linearGradient id="paint8_linear" x1="16.3265" y1="35.2041" x2="16.3265" y2="37.2449" gradientUnits="userSpaceOnUse">
<stop stop-color="#4B4FC1"/>
<stop offset="1" stop-color="#04C1FC"/>
</linearGradient>
</defs>
</svg>
