<svg width="38" height="48" viewBox="0 0 38 48" fill="none" xmlns="http://www.w3.org/2000/svg">
<g id="balloonred">
<path id="Vector" d="M37.4146 15.891C37.4146 24.6669 28.5513 31.7819 19.113 31.7819C9.67459 31.7819 0 24.6669 0 15.891C0 7.11504 9.67459 0 19.113 0C28.5513 0 37.4146 7.11504 37.4146 15.891Z" fill="url(#paint0_linear)"/>
<path id="Vector_2" d="M36.5364 15.891C36.5364 24.2591 28.0891 31.0386 19.077 31.0386C10.0648 31.0386 0.862671 24.2421 0.862671 15.891C0.862671 7.53981 10.1059 0.743347 19.077 0.743347C28.0481 0.743347 36.5364 7.52282 36.5364 15.891Z" fill="#F55F44"/>
<path id="Vector_3" d="M24.207 39.1306H12.7711V47.3034H24.207V39.1306Z" fill="url(#paint1_linear)"/>
<path id="Vector_4" d="M23.9503 39.1306H13.11V46.8786H23.9503V39.1306Z" fill="#F55F44"/>
<path id="Vector_5" d="M23.8116 39.1306L24.2635 32.0496" stroke="#AD7676" stroke-width="2" stroke-miterlimit="10"/>
<path id="Vector_6" d="M13.377 39.1306L12.7659 32.0496" stroke="#AD7676" stroke-width="2" stroke-miterlimit="10"/>
<g id="Group" opacity="0.2">
<path id="Vector_7" opacity="0.2" d="M15.6673 39.7975C15.6561 39.8538 15.6561 39.9112 15.6673 39.9674C15.6644 39.9872 15.6644 40.0071 15.6673 40.0269C15.6982 39.9526 15.6982 39.8719 15.6673 39.7975Z" fill="white"/>
<path id="Vector_8" opacity="0.2" d="M15.4105 39.0202C15.3951 39.1132 15.3951 39.2075 15.4105 39.3005C15.4256 39.2075 15.4256 39.1132 15.4105 39.0202Z" fill="white"/>
</g>
<path id="Vector_9" d="M20.3454 31.5695H16.2989V32.7377H20.3454V31.5695Z" fill="#F55F44"/>
<g id="Group_2" opacity="0.2">
<path id="Vector_10" opacity="0.2" d="M19.0924 0.688141H18.4505C27.1802 1.00248 35.2526 7.65876 35.2526 15.823C35.2526 23.9873 27.2008 30.6775 18.4505 30.9749H19.0924C28.0891 30.9749 36.5518 24.1784 36.5518 15.8273C36.5518 7.47611 28.0891 0.688141 19.0924 0.688141Z" fill="black"/>
</g>
<g id="Group_3" opacity="0.2">
<path id="Vector_11" opacity="0.2" d="M1.90513 15.891C1.90513 7.64603 10.866 0.93877 19.7343 0.74762H19.3492C10.3524 0.74762 1.13486 7.54408 1.13486 15.8952C1.13486 24.2464 10.3781 31.0428 19.3492 31.0428H19.7343C10.8608 30.8432 1.90513 24.1359 1.90513 15.891Z" fill="white"/>
</g>
<path id="Vector_12" d="M24.3303 28.9147H12.6992V32.0495H24.3303V28.9147Z" fill="#F55F44"/>
<path id="Vector_13" opacity="0.2" d="M12.6992 1.84353C12.6992 1.84353 -1.11434 14.9055 12.6992 29.9341H17.2592C17.2592 29.9341 4.66782 17.5094 16.6841 0.900513L14.4349 1.32529L12.6992 1.84353Z" fill="white"/>
<path id="Vector_14" opacity="0.2" d="M24.7154 1.64815C24.7154 1.64815 38.5289 14.9097 24.7154 29.9384H20.1554C20.1554 29.9384 32.7519 17.4159 20.7357 0.81134L22.9849 1.18515L24.7154 1.64815Z" fill="white"/>
</g>
<defs>
<linearGradient id="paint0_linear" x1="3846.97" y1="9140.48" x2="3846.97" y2="6762.57" gradientUnits="userSpaceOnUse">
<stop stop-color="#808080" stop-opacity="0.25"/>
<stop offset="0.54" stop-color="#808080" stop-opacity="0.12"/>
<stop offset="1" stop-color="#808080" stop-opacity="0.1"/>
</linearGradient>
<linearGradient id="paint1_linear" x1="1059.28" y1="2532.96" x2="1059.28" y2="2375.72" gradientUnits="userSpaceOnUse">
<stop stop-color="#808080" stop-opacity="0.25"/>
<stop offset="0.54" stop-color="#808080" stop-opacity="0.12"/>
<stop offset="1" stop-color="#808080" stop-opacity="0.1"/>
</linearGradient>
</defs>
</svg>
