<svg width="38" height="48" viewBox="0 0 38 48" fill="none" xmlns="http://www.w3.org/2000/svg">
<g id="balloonblue">
<path id="Vector" d="M37.2135 15.9307C37.2135 24.7294 28.3763 31.8614 19 31.8614C9.62371 31.8614 0 24.7294 0 15.9307C0 7.13196 9.62813 0 19 0C28.3719 0 37.2135 7.13952 37.2135 15.9307Z" fill="url(#paint0_linear)"/>
<path id="Vector_2" d="M36.3297 15.9307C36.3297 24.3175 27.9344 31.1131 18.969 31.1131C10.0037 31.1131 0.852753 24.3099 0.852753 15.9307C0.852753 7.55151 10.0302 0.748352 18.969 0.748352C27.9079 0.748352 36.3297 7.55151 36.3297 15.9307Z" fill="#4D8AF0"/>
<path id="Vector_3" d="M24.0681 39.2277H12.6858V47.4217H24.0681V39.2277Z" fill="url(#paint1_linear)"/>
<path id="Vector_4" d="M23.8074 39.2277H13.0216V46.9947H23.8074V39.2277Z" fill="#6C63FF"/>
<path id="Vector_5" d="M23.6793 39.2277L24.13 32.1335" stroke="#AD7676" stroke-width="2" stroke-miterlimit="10"/>
<path id="Vector_6" d="M13.2911 39.2277L12.6814 32.1335" stroke="#AD7676" stroke-width="2" stroke-miterlimit="10"/>
<g id="Group" opacity="0.2">
<path id="Vector_7" opacity="0.2" d="M15.5623 39.9005C15.5438 39.9556 15.5364 40.0131 15.5402 40.0705C15.5372 40.0906 15.5372 40.111 15.5402 40.131C15.5785 40.0588 15.5863 39.9772 15.5623 39.9005Z" fill="white"/>
<path id="Vector_8" opacity="0.2" d="M15.3149 39.1219C15.2996 39.2145 15.2996 39.309 15.3149 39.4016C15.3297 39.3086 15.3297 39.2149 15.3149 39.1219Z" fill="white"/>
</g>
<path id="Vector_9" d="M20.2284 31.6536H16.1986V32.8252H20.2284V31.6536Z" fill="#4D8AF0"/>
<g id="Group_2" opacity="0.2">
<path id="Vector_10" opacity="0.2" d="M18.9779 0.699219C18.7658 0.699219 18.536 0.699219 18.3372 0.699219C27.0463 1.01292 35.0616 7.68378 35.0616 15.8702C35.0616 24.0567 27.0507 30.7389 18.3372 31.0488C18.5493 31.0488 18.7791 31.0488 18.9779 31.0488C27.93 31.0488 36.3386 24.2457 36.3386 15.8665C36.3386 7.48725 27.9344 0.699219 18.9779 0.699219Z" fill="black"/>
</g>
<g id="Group_3" opacity="0.2">
<path id="Vector_11" opacity="0.2" d="M1.86465 15.9307C1.86465 7.66489 10.7814 0.941113 19.6098 0.752136H19.2253C10.2732 0.752136 1.10907 7.55528 1.10907 15.9345C1.10907 24.3137 10.2865 31.1169 19.2253 31.1169H19.6098C10.7902 30.9241 1.86465 24.2003 1.86465 15.9307Z" fill="white"/>
</g>
<path id="Vector_12" d="M24.1918 28.989H12.6151V32.1336H24.1918V28.989Z" fill="#4D8AF0"/>
<path id="Vector_13" opacity="0.2" d="M12.6151 1.85577C12.6151 1.85577 -1.1356 14.9481 12.6151 30.0133H17.1574C17.1574 30.0133 4.62184 17.5673 16.583 0.910889L14.3428 1.33798L12.6151 1.85577Z" fill="white"/>
<path id="Vector_14" opacity="0.2" d="M24.5763 1.6592C24.5763 1.6592 38.327 14.9518 24.5763 30.0057H20.0339C20.0339 30.0057 32.5695 17.4425 20.6084 0.812592L22.8486 1.19054L24.5763 1.6592Z" fill="white"/>
</g>
<defs>
<linearGradient id="paint0_linear" x1="3604.5" y1="17783.8" x2="3604.5" y2="15098.2" gradientUnits="userSpaceOnUse">
<stop stop-color="#808080" stop-opacity="0.25"/>
<stop offset="0.54" stop-color="#808080" stop-opacity="0.12"/>
<stop offset="1" stop-color="#808080" stop-opacity="0.1"/>
</linearGradient>
<linearGradient id="paint1_linear" x1="985.76" y1="4794.39" x2="985.76" y2="4616.75" gradientUnits="userSpaceOnUse">
<stop stop-color="#808080" stop-opacity="0.25"/>
<stop offset="0.54" stop-color="#808080" stop-opacity="0.12"/>
<stop offset="1" stop-color="#808080" stop-opacity="0.1"/>
</linearGradient>
</defs>
</svg>
