<svg width="38" height="48" viewBox="0 0 38 48" fill="none" xmlns="http://www.w3.org/2000/svg">
<g id="balloongreen">
<path id="Vector" d="M23.7475 39.5433L24.1951 32.3869" stroke="#AD7676" stroke-width="2" stroke-miterlimit="10"/>
<path id="Vector_2" d="M37.3077 16.0582C37.3077 24.9295 28.4583 32.1164 19.0572 32.1164C9.65615 32.1164 0 24.9251 0 16.0582C0 7.19127 9.64573 0 19.0416 0C28.4375 0 37.3077 7.19127 37.3077 16.0582Z" fill="url(#paint0_linear)"/>
<path id="Vector_3" d="M36.4331 16.0582C36.4331 24.5105 28.0055 31.3658 19.0364 31.3658C10.0674 31.3658 0.869278 24.5105 0.869278 16.0582C0.869278 7.60582 10.0622 0.750549 19.0364 0.750549C28.0107 0.750549 36.4331 7.60582 36.4331 16.0582Z" fill="#47E6B1"/>
<path id="Vector_4" d="M24.1378 39.5433H12.7326V47.8036H24.1378V39.5433Z" fill="url(#paint1_linear)"/>
<path id="Vector_5" d="M23.8775 39.5433H13.0709V47.3716H23.8775V39.5433Z" fill="#6CEBC1"/>
<path id="Vector_6" d="M13.3364 39.5433L12.7274 32.3869" stroke="#AD7676" stroke-width="2" stroke-miterlimit="10"/>
<g id="Group" opacity="0.2">
<path id="Vector_7" opacity="0.2" d="M15.6216 40.2196C15.6106 40.276 15.6106 40.3335 15.6216 40.3898C15.6185 40.4101 15.6185 40.4306 15.6216 40.4509C15.6525 40.376 15.6525 40.2946 15.6216 40.2196Z" fill="white"/>
<path id="Vector_8" opacity="0.2" d="M15.3665 39.4342C15.351 39.5283 15.351 39.6237 15.3665 39.7178C15.3816 39.6237 15.3816 39.5283 15.3665 39.4342Z" fill="white"/>
</g>
<path id="Vector_9" d="M20.2857 31.9069H16.2515V33.0895H20.2857V31.9069Z" fill="#47E6B1"/>
<g id="Group_2" opacity="0.2">
<path id="Vector_10" opacity="0.2" d="M19.0417 0.698181H18.4014C27.131 1.01236 35.1579 7.74109 35.1579 15.9927C35.1579 24.2444 27.131 30.9731 18.4014 31.2873H19.0417C28.0107 31.2873 36.4384 24.432 36.4384 15.9796C36.4384 7.52727 28.0055 0.698181 19.0417 0.698181Z" fill="black"/>
</g>
<g id="Group_3" opacity="0.2">
<path id="Vector_11" opacity="0.2" d="M1.89481 16.0582C1.89481 7.7236 10.8274 0.946883 19.6767 0.754883H19.2915C10.3225 0.754883 1.12434 7.61015 1.12434 16.0625C1.12434 24.5149 10.3172 31.3702 19.2915 31.3702H19.6767C10.8274 31.1738 1.89481 24.3927 1.89481 16.0582Z" fill="white"/>
</g>
<path id="Vector_12" d="M24.2575 29.2189H12.6597V32.3869H24.2575V29.2189Z" fill="#47E6B1"/>
<path id="Vector_13" opacity="0.2" d="M12.6598 1.86766C12.6598 1.86766 -1.11394 15.0677 12.6598 30.2531H17.2094C17.2094 30.2531 4.64853 17.7077 16.6315 0.92511L14.388 1.36147L12.6598 1.86766Z" fill="white"/>
<path id="Vector_14" opacity="0.2" d="M24.6428 1.66689C24.6428 1.66689 38.4165 15.0676 24.6428 30.2574H20.0932C20.0932 30.2574 32.654 17.6029 20.671 0.824707L22.9146 1.19998L24.6428 1.66689Z" fill="white"/>
</g>
<defs>
<linearGradient id="paint0_linear" x1="42540" y1="15820.8" x2="42540" y2="13456.8" gradientUnits="userSpaceOnUse">
<stop stop-color="#808080" stop-opacity="0.25"/>
<stop offset="0.54" stop-color="#808080" stop-opacity="0.12"/>
<stop offset="1" stop-color="#808080" stop-opacity="0.1"/>
</linearGradient>
<linearGradient id="paint1_linear" x1="12888.6" y1="4248.61" x2="12888.6" y2="4092.24" gradientUnits="userSpaceOnUse">
<stop stop-color="#808080" stop-opacity="0.25"/>
<stop offset="0.54" stop-color="#808080" stop-opacity="0.12"/>
<stop offset="1" stop-color="#808080" stop-opacity="0.1"/>
</linearGradient>
</defs>
</svg>
