<svg width="100" height="150" viewBox="0 0 100 150" fill="none" xmlns="http://www.w3.org/2000/svg">
<g id="balloon">
<path id="Vector" d="M99.7935 50.3925C99.7935 78.2245 76.1504 100.785 50.9764 100.785C25.8025 100.785 0 78.2245 0 50.3925C0 22.5606 25.8025 0 50.9764 0C76.1504 0 99.7935 22.5623 99.7935 50.3925Z" fill="url(#paint0_linear)"/>
<path id="Vector_2" d="M97.4565 50.3925C97.4565 76.9204 74.9202 98.4263 50.9239 98.4263C26.9275 98.4263 2.33691 76.9222 2.33691 50.3925C2.33691 23.8628 26.9293 2.35864 50.9257 2.35864C74.9221 2.35864 97.4565 23.8717 97.4565 50.3925Z" fill="#6C63FF"/>
<path id="Vector_3" d="M43.826 116.255C43.826 114.579 42.2916 113.227 40.3985 113.227C38.5054 113.227 36.971 114.586 36.971 116.255C36.971 117.668 38.0579 118.853 39.5416 119.191V121.566H41.2554V119.191C42.7337 118.853 43.826 117.67 43.826 116.255Z" fill="url(#paint1_linear)"/>
<path id="Vector_4" d="M40.3152 119.166C41.892 119.166 43.1703 117.909 43.1703 116.359C43.1703 114.808 41.892 113.551 40.3152 113.551C38.7384 113.551 37.4601 114.808 37.4601 116.359C37.4601 117.909 38.7384 119.166 40.3152 119.166Z" fill="#F8C198"/>
<path id="Vector_5" d="M41.0289 118.466H39.6014V121.274H41.0289V118.466Z" fill="#F8C198"/>
<path id="Vector_6" d="M41.721 120.221H38.9094C38.109 120.221 37.4601 120.859 37.4601 121.646V131.432C37.4601 132.219 38.109 132.857 38.9094 132.857H41.721C42.5213 132.857 43.1703 132.219 43.1703 131.432V121.646C43.1703 120.859 42.5213 120.221 41.721 120.221Z" fill="#605B38"/>
<path id="Vector_7" d="M39.1359 121.476C39.1359 121.476 36.3895 121.572 31.7482 117.71L28.5362 114.551L27.1087 115.955C27.1087 115.955 35.3188 124.029 38.5217 123.678L39.1359 121.476Z" fill="#605B38"/>
<path id="Vector_8" d="M53.5942 120.271C55.6583 120.271 57.3315 118.625 57.3315 116.596C57.3315 114.566 55.6583 112.92 53.5942 112.92C51.53 112.92 49.8568 114.566 49.8568 116.596C49.8568 118.625 51.53 120.271 53.5942 120.271Z" fill="url(#paint2_linear)"/>
<path id="Vector_9" d="M53.5942 119.918C55.4601 119.918 56.9728 118.431 56.9728 116.596C56.9728 114.761 55.4601 113.273 53.5942 113.273C51.7282 113.273 50.2155 114.761 50.2155 116.596C50.2155 118.431 51.7282 119.918 53.5942 119.918Z" fill="#F8C198"/>
<path id="Vector_10" d="M54.4384 119.088H52.7482V122.41H54.4384V119.088Z" fill="#F8C198"/>
<path id="Vector_11" d="M55.9384 120.884H51.7536C51.5246 120.884 51.2991 120.939 51.096 121.043C50.8931 121.147 50.7185 121.298 50.5869 121.482C47.4076 121.888 40.8659 122.515 40.2029 120.884L39.8985 121.108C39.844 120.902 39.7694 120.703 39.6757 120.511C39.2554 119.649 38.5598 119.116 38.1214 119.323C37.683 119.53 37.6667 120.392 38.0869 121.258C38.2255 121.546 38.4089 121.812 38.6304 122.045L38.4493 122.182C38.4493 122.182 45.1395 124.952 50.3315 124.607V135.059C50.3324 135.431 50.4833 135.788 50.7513 136.052C51.019 136.315 51.3821 136.463 51.7609 136.464H55.9456C56.3244 136.463 56.6875 136.315 56.9552 136.052C57.2232 135.788 57.3741 135.431 57.375 135.059V122.287C57.3735 121.914 57.2214 121.556 56.9522 121.293C56.6828 121.03 56.3181 120.883 55.9384 120.884Z" fill="url(#paint3_linear)"/>
<path id="Vector_12" d="M55.5217 121.165H51.663C50.8627 121.165 50.2137 121.803 50.2137 122.59V134.692C50.2137 135.479 50.8627 136.117 51.663 136.117H55.5217C56.3221 136.117 56.971 135.479 56.971 134.692V122.59C56.971 121.803 56.3221 121.165 55.5217 121.165Z" fill="#53AD9B"/>
<path id="Vector_13" d="M52.1141 121.505C52.1141 121.505 41.3442 123.241 40.5 121.163L38.8098 122.41C38.8098 122.41 46.8351 125.733 51.9022 124.488C56.9692 123.242 52.1141 121.505 52.1141 121.505Z" fill="#53AD9B"/>
<path id="Vector_14" d="M50.2916 113.008C50.3793 113.001 50.467 113.02 50.5427 113.064C50.6186 113.108 50.6789 113.173 50.7155 113.252C51.0634 112.504 51.8858 112.046 52.7083 111.941C53.5308 111.836 54.3768 112.031 55.1684 112.297C56.1811 112.637 57.1721 113.107 57.9347 113.845C58.6974 114.583 59.2028 115.626 59.1141 116.672C59.0452 117.444 58.6666 118.151 58.2934 118.831C58.0634 119.254 57.8134 119.692 57.4021 119.947C56.5434 120.481 55.326 119.916 54.8659 119.027C54.7137 118.733 54.6195 118.413 54.451 118.137C53.942 117.274 52.8876 116.922 51.98 116.474C50.3931 115.682 50.2681 114.591 50.2916 113.008Z" fill="url(#paint4_linear)"/>
<path id="Vector_15" d="M64.5652 124.081H34.0579V150H64.5652V124.081Z" fill="url(#paint5_linear)"/>
<path id="Vector_16" d="M63.8732 124.081H34.9619V148.651H63.8732V124.081Z" fill="url(#paint6_linear)"/>
<path id="Vector_17" d="M63.5163 124.081L64.7228 101.629" stroke="#AD7676" stroke-width="2" stroke-miterlimit="10"/>
<path id="Vector_18" d="M36.6757 124.081L35.0435 101.629" stroke="#AD7676" stroke-width="2" stroke-miterlimit="10"/>
<path id="Vector_19" opacity="0.2" d="M50.7282 116.428C50.7299 115.592 51.0523 114.787 51.6309 114.175C52.2096 113.562 53.0018 113.187 53.8496 113.124C53.7644 113.124 53.6793 113.111 53.5924 113.111C52.6963 113.111 51.8369 113.461 51.2032 114.084C50.5697 114.707 50.2137 115.552 50.2137 116.434C50.2137 117.315 50.5697 118.16 51.2032 118.783C51.8369 119.406 52.6963 119.756 53.5924 119.756C53.6793 119.756 53.7644 119.756 53.8496 119.743C53 119.68 52.2061 119.303 51.6271 118.688C51.0483 118.074 50.7271 117.266 50.7282 116.428Z" fill="white"/>
<path id="Vector_20" opacity="0.2" d="M37.875 116.091C37.8753 115.254 38.1976 114.447 38.7772 113.834C39.3567 113.22 40.1507 112.844 41 112.781C40.9148 112.781 40.8297 112.769 40.7427 112.769C39.8467 112.769 38.9873 113.119 38.3538 113.742C37.7201 114.365 37.3641 115.21 37.3641 116.091C37.3641 116.973 37.7201 117.818 38.3538 118.441C38.9873 119.064 39.8467 119.414 40.7427 119.414C40.8297 119.414 40.9148 119.414 41 119.401C40.1507 119.339 39.3567 118.963 38.7772 118.349C38.1976 117.736 37.8753 116.929 37.875 116.091Z" fill="white"/>
<path id="Vector_21" d="M39.7518 118.646C39.9351 118.766 40.1061 118.903 40.2627 119.056C40.8695 119.799 39.7192 120.95 40.1503 121.805C40.3406 122.182 40.7935 122.375 40.9964 122.745C41.3822 123.449 40.7355 124.479 41.2953 125.061C41.4456 125.216 41.6576 125.307 41.7753 125.489C42.0018 125.845 41.6848 126.319 41.7355 126.736C41.7989 127.27 42.3931 127.555 42.9058 127.744C43.3424 127.904 43.9148 128.033 44.2119 127.678C44.3551 127.5 44.3822 127.267 44.5163 127.087C44.7663 126.75 45.2699 126.748 45.6377 126.542C46.2083 126.221 46.3478 125.473 46.3478 124.83C46.3478 124.186 46.2826 123.485 46.6413 122.941C47.0471 122.325 47.8895 122.095 48.2953 121.479C48.9094 120.542 48.2319 119.232 48.6703 118.204C48.8224 117.848 49.1014 117.547 49.192 117.173C49.3424 116.555 48.9402 115.926 48.4674 115.511C47.9945 115.096 47.404 114.77 47.0036 114.264C46.7228 113.907 46.5398 113.489 46.2083 113.184C45.404 112.447 44.125 112.71 43.0507 112.472C42.0561 112.26 41.1395 111.59 40.1268 111.702C39.2409 111.8 38.5489 112.47 37.9311 113.102C37.7688 113.24 37.6496 113.42 37.5869 113.622C37.4058 114.483 38.2554 115.368 38.6286 115.999C39.1051 116.843 38.9583 117.992 39.7518 118.646Z" fill="#FCCC63"/>
<g id="Group" opacity="0.2">
<path id="Vector_22" opacity="0.2" d="M37.9202 113.799C38.538 113.166 39.23 112.496 40.1159 112.398C41.1268 112.286 42.0452 112.956 43.0398 113.168C44.1141 113.398 45.3949 113.134 46.1974 113.881C46.5289 114.185 46.7119 114.611 46.9927 114.96C47.3931 115.457 47.9764 115.776 48.4565 116.207C48.7896 116.484 49.0376 116.847 49.1721 117.255C49.1721 117.235 49.1847 117.216 49.1902 117.196C49.3405 116.578 48.9384 115.949 48.4565 115.534C47.9746 115.119 47.3931 114.793 46.9927 114.287C46.7119 113.931 46.5289 113.512 46.1974 113.207C45.3931 112.47 44.1141 112.733 43.0398 112.495C42.0452 112.283 41.1286 111.613 40.1159 111.725C39.23 111.823 38.538 112.493 37.9202 113.125C37.7579 113.263 37.6387 113.444 37.576 113.645C37.5393 113.842 37.5474 114.044 37.5996 114.237C37.6744 114.071 37.7835 113.921 37.9202 113.799Z" fill="white"/>
<path id="Vector_23" opacity="0.2" d="M41.7971 126.205C41.7471 126.379 41.7262 126.559 41.7355 126.739C41.7433 126.805 41.7597 126.87 41.7844 126.932C41.8423 126.679 41.9058 126.424 41.7971 126.205Z" fill="white"/>
<path id="Vector_24" opacity="0.2" d="M41.1032 123.739C41.0545 124.034 41.0472 124.334 41.0815 124.63C41.1291 124.335 41.1366 124.036 41.1032 123.739Z" fill="white"/>
<path id="Vector_25" opacity="0.2" d="M48.5525 120.67C48.5699 120.282 48.5596 119.894 48.5217 119.508C48.5041 119.896 48.5144 120.284 48.5525 120.67Z" fill="white"/>
<path id="Vector_26" opacity="0.2" d="M46.3405 125.027C46.3405 124.963 46.3405 124.899 46.3405 124.837C46.3405 124.805 46.3405 124.773 46.3405 124.741C46.3442 124.837 46.3405 124.933 46.3405 125.027Z" fill="white"/>
<path id="Vector_27" opacity="0.2" d="M40.3949 119.968C40.2644 120.529 39.9329 121.146 40.096 121.669C40.2228 121.083 40.5706 120.465 40.3949 119.968Z" fill="white"/>
</g>
<path id="Vector_28" d="M50.5471 113.181C50.6295 113.174 50.7119 113.192 50.7833 113.234C50.8545 113.275 50.9112 113.336 50.9456 113.41C51.2735 112.698 52.0471 112.274 52.8297 112.174C53.6123 112.074 54.4021 112.259 55.1485 112.511C56.1032 112.831 57.0362 113.275 57.7554 113.97C58.4746 114.664 58.9547 115.646 58.8659 116.642C58.8007 117.369 58.4438 118.035 58.0924 118.676C57.875 119.074 57.6395 119.487 57.2518 119.727C56.442 120.228 55.2953 119.699 54.8587 118.862C54.7156 118.586 54.6268 118.283 54.4674 118.015C53.9873 117.203 52.9927 116.872 52.1395 116.45C50.6413 115.703 50.5235 114.675 50.5471 113.181Z" fill="#263238"/>
<path id="Vector_29" opacity="0.2" d="M50.5471 113.519C50.6295 113.512 50.7119 113.531 50.7833 113.572C50.8545 113.613 50.9112 113.675 50.9456 113.749C51.2735 113.036 52.0471 112.612 52.8297 112.512C53.6123 112.413 54.4021 112.598 55.1485 112.849C56.1032 113.17 57.0362 113.613 57.7554 114.308C58.3924 114.902 58.7884 115.704 58.8695 116.564C58.9293 115.6 58.4565 114.65 57.7554 113.971C57.0543 113.293 56.1032 112.833 55.1485 112.512C54.4021 112.261 53.6105 112.076 52.8297 112.176C52.0489 112.276 51.2735 112.71 50.9456 113.412C50.9112 113.338 50.8545 113.276 50.7833 113.235C50.7119 113.194 50.6295 113.176 50.5471 113.182C50.5471 113.327 50.5471 113.467 50.5471 113.603C50.5453 113.574 50.5453 113.546 50.5471 113.519Z" fill="white"/>
<path id="Vector_30" d="M54.2681 100.112H43.471V103.819H54.2681V100.112Z" fill="#6C63FF"/>
<g id="Group_2" opacity="0.2">
<path id="Vector_31" opacity="0.2" d="M50.9257 2.19122C50.3532 2.19122 49.7826 2.20726 49.2101 2.2322C72.5543 3.2227 94.0308 24.3225 94.0308 50.2251C94.0308 76.1277 72.5525 97.2275 49.2101 98.218C49.7826 98.2429 50.355 98.2589 50.9257 98.2589C74.9203 98.2589 97.4583 76.753 97.4583 50.2251C97.4583 23.6972 74.9203 2.19122 50.9257 2.19122Z" fill="black"/>
</g>
<g id="Group_3" opacity="0.2">
<path id="Vector_32" opacity="0.2" d="M5.07786 50.3925C5.07786 24.244 28.9728 2.97503 52.6376 2.37289C52.2952 2.37289 51.9529 2.35864 51.6105 2.35864C27.6159 2.35864 3.0217 23.8717 3.0217 50.3925C3.0217 76.9133 27.6159 98.4263 51.6105 98.4263C51.9529 98.4263 52.2952 98.4263 52.6376 98.4121C28.9746 97.8028 5.07786 76.5427 5.07786 50.3925Z" fill="white"/>
</g>
<path id="Vector_33" d="M64.8949 91.6853H33.8731V101.629H64.8949V91.6853Z" fill="#6C63FF"/>
<path id="Vector_34" opacity="0.2" d="M33.8713 5.85748C33.8713 5.85748 -2.97648 47.2749 33.8713 94.9311L46.0398 94.8901C46.0398 94.8901 12.4474 55.5196 44.4982 2.86816L38.5 4.21318L33.8713 5.85748Z" fill="white"/>
<path id="Vector_35" opacity="0.2" d="M65.9221 5.22503C65.9221 5.22503 102.77 47.2678 65.9221 94.9293L53.7536 94.8883C53.7536 94.8883 87.346 55.1829 55.2953 2.52966L61.2898 3.70722L65.9221 5.22503Z" fill="white"/>
</g>
<defs>
<linearGradient id="paint0_linear" x1="49.8967" y1="100.787" x2="49.8967" y2="0" gradientUnits="userSpaceOnUse">
<stop stop-color="#808080" stop-opacity="0.25"/>
<stop offset="0.54" stop-color="#808080" stop-opacity="0.12"/>
<stop offset="1" stop-color="#808080" stop-opacity="0.1"/>
</linearGradient>
<linearGradient id="paint1_linear" x1="4744.2" y1="6095.6" x2="4744.2" y2="5704.99" gradientUnits="userSpaceOnUse">
<stop stop-color="#808080" stop-opacity="0.25"/>
<stop offset="0.54" stop-color="#808080" stop-opacity="0.12"/>
<stop offset="1" stop-color="#808080" stop-opacity="0.1"/>
</linearGradient>
<linearGradient id="paint2_linear" x1="5645.67" y1="5192.9" x2="5645.67" y2="4889.69" gradientUnits="userSpaceOnUse">
<stop stop-color="#808080" stop-opacity="0.25"/>
<stop offset="0.54" stop-color="#808080" stop-opacity="0.12"/>
<stop offset="1" stop-color="#808080" stop-opacity="0.1"/>
</linearGradient>
<linearGradient id="paint3_linear" x1="14268.3" y1="13885.3" x2="14268.3" y2="12227.4" gradientUnits="userSpaceOnUse">
<stop stop-color="#808080" stop-opacity="0.25"/>
<stop offset="0.54" stop-color="#808080" stop-opacity="0.12"/>
<stop offset="1" stop-color="#808080" stop-opacity="0.1"/>
</linearGradient>
<linearGradient id="paint4_linear" x1="6814.99" y1="5959.71" x2="6814.99" y2="5578.33" gradientUnits="userSpaceOnUse">
<stop stop-color="#808080" stop-opacity="0.25"/>
<stop offset="0.54" stop-color="#808080" stop-opacity="0.12"/>
<stop offset="1" stop-color="#808080" stop-opacity="0.1"/>
</linearGradient>
<linearGradient id="paint5_linear" x1="22151.9" y1="22362.3" x2="22151.9" y2="18591.4" gradientUnits="userSpaceOnUse">
<stop stop-color="#808080" stop-opacity="0.25"/>
<stop offset="0.54" stop-color="#808080" stop-opacity="0.12"/>
<stop offset="1" stop-color="#808080" stop-opacity="0.1"/>
</linearGradient>
<linearGradient id="paint6_linear" x1="49.4175" y1="124.081" x2="49.4175" y2="148.651" gradientUnits="userSpaceOnUse">
<stop stop-color="#6C63FF" stop-opacity="0.69"/>
<stop offset="1" stop-color="#8982FF" stop-opacity="0.56"/>
</linearGradient>
</defs>
</svg>
