<svg width="189" height="58" viewBox="0 0 189 58" fill="none" xmlns="http://www.w3.org/2000/svg">
<path id="cloud1" d="M42.064 11.0138C26.2463 2.88706 19.7292 7.21385 11.0776 16.8089C-4.99213 27.6217 -2.33325 30.1427 11.0776 40.9553C24.1735 49.7005 30.7663 51.5568 42.064 44.4968C59.18 54.9257 68.6988 55.3184 85.5765 49.0041C105.251 59.6274 116.208 59.8481 135.682 54.7993C153.238 58.3306 162.759 58.5838 177.876 49.0041C191.191 38.0077 194.151 31.3083 177.876 16.8089C165.271 6.24277 155.226 6.70272 135.682 11.0138C118.218 -1.99367 107.337 -3.45821 85.5765 6.50646C69.7537 -0.172463 60.2746 0.448656 42.064 11.0138Z" fill="url(#paint0_linear)" fill-opacity="0.4"/>
<defs>
<linearGradient id="paint0_linear" x1="94.4999" y1="-1.55816e-07" x2="94.4999" y2="58" gradientUnits="userSpaceOnUse">
<stop stop-color="#FFF7F7"/>
<stop offset="1" stop-color="#B0DFFA"/>
</linearGradient>
</defs>
</svg>
