<svg width="36" height="38" viewBox="0 0 36 38" fill="none" xmlns="http://www.w3.org/2000/svg">
<path fill-rule="evenodd" clip-rule="evenodd" d="M13.8978 11.5333C13.8978 11.5333 13.8978 11.5332 13.8978 11.5332C13.8001 11.377 15.724 8.75976 17.2181 7.02148C18.1947 5.88867 19.7376 4.3457 20.4408 3.79883L20.8645 3.471L20.8997 3.4375C21.1927 3.17383 21.8958 2.83203 22.1399 2.83203C23.1067 2.83203 26.1243 5.75195 28.8001 9.27734C29.711 10.4811 30.1749 11.1361 30.3045 11.4004C30.3299 11.4084 30.3431 11.4169 30.3431 11.4258C30.3431 11.4746 30.4212 11.6113 30.5189 11.7188C31.3782 12.7148 33.6634 17.1191 34.347 19.0918C35.0501 21.1035 35.2357 22.0898 35.2943 23.9746C35.3333 25.2441 35.304 25.8496 35.1868 26.5332C34.3372 31.416 30.9095 35.3906 26.2415 36.9141C24.6204 37.4414 22.4329 37.6758 20.8314 37.5C19.1907 37.3145 17.9017 36.9336 16.3978 36.2207C15.9269 35.9958 15.6179 35.8165 15.4816 35.6972C14.5767 35.2765 12.6282 33.5528 11.6322 32.2363C10.5482 30.8008 9.62044 28.7207 9.25911 26.9434C8.45833 23.0273 9.67903 18.3789 12.9505 12.8906C13.2923 12.3242 13.6536 11.7871 13.7513 11.6992C13.8154 11.6467 13.8691 11.5838 13.8978 11.5333ZM27.1986 30.8984C28.0384 30.4785 28.6927 29.541 28.7025 28.7207C28.7025 28.2617 28.4193 27.5879 28.0091 27.1289C27.6283 26.6895 26.8079 26.2695 26.349 26.2695C25.9095 26.2695 24.972 26.4844 24.972 26.582C24.972 26.6309 24.9036 26.6602 24.8255 26.6602C24.7474 26.6602 24.679 26.7285 24.679 26.8066C24.679 26.8848 24.5911 27.002 24.4837 27.0703C24.3763 27.1387 24.2884 27.2461 24.2884 27.3145C24.2884 27.3828 24.2493 27.4414 24.2103 27.4414C24.1126 27.4414 23.8001 28.3984 23.8001 28.7109C23.8001 29.0332 24.015 29.7168 24.1615 29.8633C24.2298 29.9414 24.3372 30.0781 24.3861 30.1758C24.5033 30.4004 25.2064 30.8887 25.6068 31.0352C26.1146 31.2109 26.6615 31.1719 27.1986 30.8984ZM22.4232 24.5703C27.3841 19.6094 27.5208 19.4434 27.0618 19.2676C26.9447 19.2285 25.5872 20.5273 21.9447 24.1699C17.7161 28.3984 16.9935 29.1602 17.0716 29.3164C17.1204 29.4141 17.2376 29.4922 17.3353 29.4922C17.4232 29.4922 19.7181 27.2754 22.4232 24.5703ZM18.8783 22.3145C19.5033 22.0606 19.972 21.6016 20.2943 20.9375C20.5579 20.4102 20.597 20.2441 20.5482 19.8731C20.4212 18.9941 19.9036 18.2813 19.0833 17.8711C18.1458 17.4023 17.3841 17.5195 16.5247 18.2715C16.1732 18.584 15.597 19.6094 15.597 19.9316C15.597 20.3613 15.929 21.1035 16.3001 21.5332C17.013 22.3438 18.0579 22.6563 18.8783 22.3145Z" fill="#BAC6F2"/>
<path fill-rule="evenodd" clip-rule="evenodd" d="M2.4299 11.4103C2.66478 11.5726 3.07589 11.7377 3.56573 11.8555C5.43097 12.3145 7.45245 11.5234 8.48761 9.94141C9.86456 7.83203 9.46417 5.45898 7.22784 2.48047C6.31964 1.25 4.98175 0 4.60089 0C4.5423 0 4.30792 0.136719 4.08331 0.292969L3.99237 0.360093L3.9759 0.341797L3.8729 0.448275L3.67316 0.595704L3.70003 0.626967L3.10676 1.24023C1.56379 2.82227 0.430981 4.78516 0.0891835 6.43555C-0.252614 8.14453 0.401684 9.88281 1.8177 10.9961C2.15218 11.2589 2.33689 11.3865 2.4299 11.4103Z" fill="#BAC6F2"/>
</svg>
