<svg width="100" height="220" viewBox="0 0 100 220" fill="none" xmlns="http://www.w3.org/2000/svg">
<g id="leftlamp">
<path id="Vector" d="M28.1431 111.013C24.6751 110.045 21.3102 109.724 18.2344 110.173C18.0744 110.196 17.9171 110.223 17.7601 110.25C18.5417 110.936 23.096 114.989 28.734 121.096L28.1431 111.013Z" fill="#6C63FF"/>
<path id="Vector_2" d="M17.4823 110.425L17.5616 110.285C12.9311 111.146 9.6617 113.724 7.86279 117.455L28.4683 121.266C22.3663 114.66 17.5515 110.484 17.4823 110.425Z" fill="#6C63FF"/>
<path id="Vector_3" d="M16.8926 157.317C13.2289 157.273 9.90746 157.819 7.15184 159.024C7.00848 159.087 6.86903 159.152 6.73004 159.218C7.73246 159.673 13.5943 162.374 21.2629 166.756L16.8926 157.317Z" fill="#6C63FF"/>
<path id="Vector_4" d="M6.53162 159.454L6.55451 159.301C2.47571 161.291 0.340196 164.569 0.0388794 168.574L21.0744 166.985C12.7761 162.246 6.62006 159.493 6.53162 159.454Z" fill="#6C63FF"/>
<path id="Vector_5" d="M21.6919 167.339L0.17368 168.964L0.0235145 168.775C-0.156818 171.805 0.701469 175.24 2.55017 178.839L32.6636 174.148C28.8441 171.587 25.0999 169.301 21.6919 167.339Z" fill="#6C63FF"/>
<path id="Vector_6" opacity="0.1" d="M63.4766 220C82.7848 220 98.4375 217.838 98.4375 215.17C98.4375 212.503 82.7848 210.341 63.4766 210.341C44.1684 210.341 28.5156 212.503 28.5156 215.17C28.5156 217.838 44.1684 220 63.4766 220Z" fill="black"/>
<path id="Vector_7" d="M29.5693 121.579C32.0983 124.339 34.8267 127.498 37.5194 130.941L37.9038 115.061L38.116 115.172C35.2438 113.453 32.0898 112.073 28.7471 111.074L28.9592 111.17L29.5693 121.579Z" fill="#E6E6E6"/>
<path id="Vector_8" d="M48.8262 148.298C49.241 149.108 49.6352 149.913 50.0094 150.712L57.1266 133.514L57.3316 133.674C56.491 132.38 55.6 131.122 54.6586 129.9L48.9234 148.368L48.8262 148.298Z" fill="#E6E6E6"/>
<path id="Vector_9" d="M44.6703 141.046L48.3899 123.015L48.6008 123.153C45.5688 120.213 42.1215 117.577 38.3318 115.301L37.9398 131.483C40.4457 134.719 42.6891 137.906 44.6703 141.046Z" fill="#E6E6E6"/>
<path id="Vector_10" d="M6.87288 128.287L6.78589 128.067C7.10812 130.794 7.76628 133.488 8.7503 136.108L42.9512 138.995C41.1656 136.3 39.3226 133.772 37.5333 131.468L6.87288 128.287Z" fill="#E6E6E6"/>
<path id="Vector_11" d="M8.92129 136.548L8.83105 136.328C9.17707 137.251 9.56492 138.184 9.99461 139.128L9.9025 138.909L44.5168 141.426C44.0988 140.757 43.6758 140.096 43.2484 139.445L8.92129 136.548Z" fill="#E6E6E6"/>
<path id="Vector_12" d="M48.5812 147.829L54.2687 129.515L54.477 129.665C52.7609 127.457 50.8645 125.345 48.8008 123.345L45.0312 141.62C46.3379 143.719 47.5211 145.789 48.5812 147.829Z" fill="#E6E6E6"/>
<path id="Vector_13" d="M50.0289 151.632L16.3445 148.977C18.176 150.996 20.1708 152.912 22.3154 154.713L22.2319 154.469L53.0223 159.653C52.2215 156.932 51.2219 154.254 50.0289 151.632Z" fill="#E6E6E6"/>
<path id="Vector_14" d="M50.6332 152.077C51.6906 154.447 52.5898 156.863 53.3262 159.314L61.3476 142.851L61.5433 143.012C61.0355 140.72 60.175 138.491 58.9824 136.378C58.5094 135.549 58.014 134.732 57.4965 133.929L50.2941 151.332C50.4078 151.58 50.5234 151.829 50.6332 152.077Z" fill="#E6E6E6"/>
<path id="Vector_15" d="M37.175 131.009C34.5099 127.607 31.8124 124.487 29.3124 121.759L8.23412 117.861L8.16267 117.643C6.84681 120.479 6.36572 123.963 6.76424 127.854L37.175 131.009Z" fill="#E6E6E6"/>
<path id="Vector_16" d="M15.9354 148.518L49.8121 151.188L49.8191 151.172C48.3492 148.001 46.6723 144.897 44.7945 141.874L10.095 139.35C10.6842 140.627 11.35 141.917 12.0925 143.221C13.174 145.079 14.4603 146.852 15.9354 148.518Z" fill="#E6E6E6"/>
<path id="Vector_17" d="M97.8082 153.896L97.8852 154.092C97.0133 151.268 95.6594 148.56 93.8633 146.045L93.9516 146.23L86.309 154.566C86.1055 158.012 85.7445 161.869 85.1356 165.926L97.8082 153.896Z" fill="#E6E6E6"/>
<path id="Vector_18" d="M93.7465 145.887C91.8301 143.332 89.4887 141.328 86.7699 140.068C86.6285 140.003 86.4863 139.941 86.3441 139.88C86.4113 140.817 86.7605 146.315 86.3434 153.961L93.7465 145.887Z" fill="#E6E6E6"/>
<path id="Vector_19" d="M80.316 185.195C80.0039 186.036 79.6805 186.861 79.3457 187.672L98.2316 178.141L98.2645 178.371C98.6254 176.936 98.9195 175.502 99.1469 174.07L80.3363 185.3L80.316 185.195Z" fill="#E6E6E6"/>
<path id="Vector_20" d="M82.7676 177.44L99.6855 165.495L99.7402 165.711C99.6965 161.864 99.0957 158.035 97.9512 154.303L85.0367 166.562C84.4445 170.363 83.6883 173.988 82.7676 177.44Z" fill="#E6E6E6"/>
<path id="Vector_21" d="M99.7445 165.964L82.5981 178.071C81.968 180.37 81.2664 182.582 80.493 184.706L99.1469 173.57L99.1903 173.794C99.5899 171.197 99.775 168.581 99.7445 165.964Z" fill="#E6E6E6"/>
<path id="Vector_22" d="M66.652 206.849C66.6672 206.66 66.6816 206.466 66.6953 206.267C69.7512 203.288 72.357 200.018 74.457 196.529L64.1012 185.968C63.9656 185.608 63.8234 185.248 63.6754 184.89L74.6981 196.131C76.2012 193.618 77.5188 191.033 78.6438 188.39L56.8434 170.469C56.9113 170.328 56.9805 170.184 57.05 170.037L78.8227 187.936L78.8406 187.927C80.1801 184.717 81.3074 181.452 82.2176 178.144L60.5965 160.629C60.6418 160.467 60.6867 160.303 60.7309 160.139L82.3524 177.653C82.5524 176.92 82.7414 176.19 82.9199 175.465L61.3621 157.502C61.3984 157.33 61.4332 157.158 61.4676 156.986L83.0422 174.963C83.7668 171.956 84.3176 169.047 84.7352 166.339L63.6004 147.885L63.7051 147.67C63.2043 148.267 62.7176 148.893 62.2434 149.542C62.2559 147.491 62.0523 145.443 61.6352 143.421L53.5367 160.042C54.191 162.334 54.6602 164.658 54.9402 167.001C54.8914 167.397 54.8469 167.795 54.8117 168.198L55.0781 168.416C55.0949 168.63 55.1106 168.843 55.1234 169.055L54.7695 168.764C54.7527 168.998 54.7402 169.232 54.7277 169.467C54.5621 166.306 54.0328 163.165 53.1473 160.085L22.582 154.939C24.1216 156.233 25.7353 157.49 27.3843 158.702C24.1833 157.88 20.8617 157.416 17.5092 157.321L17.7474 157.359L22.2592 167.103C25.707 169.089 29.4948 171.403 33.356 173.996L27.8016 159.007C28.0074 159.157 28.2137 159.306 28.4205 159.454L33.9605 174.405C37.5659 176.849 40.9035 179.313 43.9731 181.797L41.4273 167.726C41.6059 167.828 41.7832 167.929 41.9598 168.029L44.5336 182.252C46.5688 183.918 48.4762 185.587 50.2551 187.259L49.0211 171.833C49.1961 171.922 49.368 172.01 49.5367 172.096L50.7836 187.685L50.6648 187.643C51.3652 188.308 52.0441 188.974 52.702 189.639L52.9402 173.778C53.1242 173.866 53.2938 173.948 53.4496 174.021L53.207 190.157C53.409 190.364 53.6129 190.572 53.8109 190.779C55.7121 192.766 57.4793 194.837 59.1055 196.981L59.2207 195.538C59.3621 195.966 59.5043 196.387 59.6461 196.8L59.5809 197.62C59.818 197.943 60.048 198.266 60.2746 198.588C60.4516 199.079 60.6266 199.557 60.8 200.022C60.2977 199.26 59.7734 198.506 59.2266 197.76L28.2143 200.597C44.5203 207.617 64.7551 210.944 66.0445 211.152C65.7387 210.045 65.3668 208.947 64.9387 207.86C65.05 207.765 65.1602 207.668 65.2703 207.572C65.3227 207.702 65.3774 207.832 65.4281 207.961C65.3707 208.012 65.3141 208.063 65.2563 208.114C65.3199 208.089 65.3867 208.063 65.4566 208.036C65.7543 208.8 66.0215 209.562 66.2578 210.321C66.352 209.704 66.4785 208.768 66.5887 207.583C72.1738 205.295 86.6383 198.608 93.982 188.125L74.7906 196.699C72.6035 200.346 69.8695 203.756 66.652 206.849ZM60.2934 182.085L60.3406 181.489L60.8274 181.986L60.7801 182.581L60.2934 182.085Z" fill="#E6E6E6"/>
<path id="Vector_23" d="M85.9941 139.87L86.1641 139.804C81.927 138.049 77.3996 138.328 73.1055 140.264L86.0062 153.953C86.4551 145.68 86.0012 139.952 85.9941 139.87Z" fill="#E6E6E6"/>
<path id="Vector_24" d="M78.7625 189.049C77.7293 191.427 76.5387 193.757 75.1957 196.029L94.2051 187.535L94.2309 187.762C95.625 185.732 96.6996 183.566 97.4289 181.316C97.7105 180.43 97.9652 179.543 98.193 178.654L79.082 188.298C78.9758 188.549 78.8711 188.801 78.7625 189.049Z" fill="#E6E6E6"/>
<path id="Vector_25" d="M85.9711 154.57L72.7746 140.566L72.8895 140.361C69.6656 141.858 66.5801 144.29 63.8543 147.495L84.8168 165.798C85.4156 161.787 85.7707 157.976 85.9711 154.57Z" fill="#E6E6E6"/>
<path id="Vector_26" d="M33.5684 174.494L3.20771 179.224L3.04187 179.036C4.37852 181.549 6.022 183.945 7.94716 186.187L41.5637 180.281C38.8479 178.17 36.1402 176.233 33.5684 174.494Z" fill="#E6E6E6"/>
<path id="Vector_27" d="M43.9711 182.198C43.3207 181.667 42.6691 181.146 42.0164 180.634L8.27584 186.562L8.10693 186.375C8.78467 187.166 9.50615 187.955 10.2713 188.745L10.1008 188.559L43.9711 182.198Z" fill="#E6E6E6"/>
<path id="Vector_28" d="M58.9445 197.38C57.1551 194.996 55.1926 192.701 53.0676 190.509L20.0303 196.505C22.5347 197.962 25.1556 199.28 27.8754 200.45L27.7038 200.239L58.9445 197.38Z" fill="#E6E6E6"/>
<path id="Vector_29" d="M52.6945 190.125C50.0992 187.481 47.332 184.954 44.4043 182.553L10.4507 188.93C11.4932 189.995 12.6138 191.054 13.8125 192.106C15.5427 193.599 17.4357 194.961 19.468 196.172L52.6941 190.142L52.6945 190.125Z" fill="#E6E6E6"/>
<path id="Vector_30" d="M29.5693 121.579C32.0983 124.339 34.8267 127.498 37.5194 130.941L37.9038 115.061L38.116 115.172C35.2438 113.453 32.0898 112.073 28.7471 111.074L28.9592 111.17L29.5693 121.579Z" fill="#6C63FF"/>
<path id="Vector_31" d="M48.8262 148.298C49.241 149.108 49.6352 149.913 50.0094 150.712L57.1266 133.514L57.3316 133.674C56.491 132.38 55.6 131.122 54.6586 129.9L48.9234 148.368L48.8262 148.298Z" fill="#6C63FF"/>
<path id="Vector_32" d="M44.6703 141.046L48.3899 123.015L48.6008 123.153C45.5688 120.213 42.1215 117.577 38.3318 115.301L37.9398 131.483C40.4457 134.719 42.6891 137.906 44.6703 141.046Z" fill="#6C63FF"/>
<path id="Vector_33" d="M6.87288 128.287L6.78589 128.067C7.10812 130.794 7.76628 133.488 8.7503 136.108L42.9512 138.995C41.1656 136.3 39.3226 133.772 37.5333 131.468L6.87288 128.287Z" fill="#6C63FF"/>
<path id="Vector_34" d="M8.92129 136.548L8.83105 136.328C9.17707 137.251 9.56492 138.184 9.99461 139.128L9.9025 138.909L44.5168 141.426C44.0988 140.757 43.6758 140.096 43.2484 139.445L8.92129 136.548Z" fill="#6C63FF"/>
<path id="Vector_35" d="M48.5812 147.829L54.2687 129.515L54.477 129.665C52.7609 127.457 50.8645 125.345 48.8008 123.345L45.0312 141.62C46.3379 143.719 47.5211 145.789 48.5812 147.829Z" fill="#6C63FF"/>
<path id="Vector_36" d="M50.0289 151.632L16.3445 148.977C18.176 150.996 20.1708 152.912 22.3154 154.713L22.2319 154.469L53.0223 159.653C52.2215 156.932 51.2219 154.254 50.0289 151.632Z" fill="#6C63FF"/>
<path id="Vector_37" d="M50.6332 152.077C51.6906 154.447 52.5898 156.863 53.3262 159.314L61.3476 142.851L61.5433 143.012C61.0355 140.72 60.175 138.491 58.9824 136.378C58.5094 135.549 58.014 134.732 57.4965 133.929L50.2941 151.332C50.4078 151.58 50.5234 151.829 50.6332 152.077Z" fill="#6C63FF"/>
<path id="Vector_38" d="M37.175 131.009C34.5099 127.607 31.8124 124.487 29.3124 121.759L8.23412 117.861L8.16267 117.643C6.84681 120.479 6.36572 123.963 6.76424 127.854L37.175 131.009Z" fill="#6C63FF"/>
<path id="Vector_39" d="M15.9354 148.518L49.8121 151.188L49.8191 151.172C48.3492 148.001 46.6723 144.897 44.7945 141.874L10.095 139.35C10.6842 140.627 11.35 141.917 12.0925 143.221C13.174 145.079 14.4603 146.852 15.9354 148.518Z" fill="#6C63FF"/>
<path id="Vector_40" d="M97.8082 153.896L97.8852 154.092C97.0133 151.268 95.6594 148.56 93.8633 146.045L93.9516 146.23L86.309 154.566C86.1055 158.012 85.7445 161.869 85.1356 165.926L97.8082 153.896Z" fill="#6C63FF"/>
<path id="Vector_41" d="M93.7465 145.887C91.8301 143.332 89.4887 141.328 86.7699 140.068C86.6285 140.003 86.4863 139.941 86.3441 139.88C86.4113 140.817 86.7605 146.315 86.3434 153.961L93.7465 145.887Z" fill="#6C63FF"/>
<path id="Vector_42" d="M80.316 185.195C80.0039 186.036 79.6805 186.861 79.3457 187.672L98.2316 178.141L98.2645 178.371C98.6254 176.936 98.9195 175.502 99.1469 174.07L80.3363 185.3L80.316 185.195Z" fill="#6C63FF"/>
<path id="Vector_43" d="M82.7676 177.44L99.6855 165.495L99.7402 165.711C99.6965 161.864 99.0957 158.035 97.9512 154.303L85.0367 166.562C84.4445 170.363 83.6883 173.988 82.7676 177.44Z" fill="#6C63FF"/>
<path id="Vector_44" d="M99.7445 165.964L82.5981 178.071C81.968 180.37 81.2664 182.582 80.493 184.706L99.1469 173.57L99.1903 173.794C99.5899 171.197 99.775 168.581 99.7445 165.964Z" fill="#6C63FF"/>
<path id="Vector_45" d="M66.652 206.849C66.6672 206.66 66.6816 206.466 66.6953 206.267C69.7512 203.288 72.357 200.018 74.457 196.529L64.1012 185.968C63.9656 185.608 63.8234 185.248 63.6754 184.89L74.6981 196.131C76.2012 193.618 77.5188 191.033 78.6438 188.39L56.8434 170.469C56.9113 170.328 56.9805 170.184 57.05 170.037L78.8227 187.936L78.8406 187.927C80.1801 184.717 81.3074 181.452 82.2176 178.144L60.5965 160.629C60.6418 160.467 60.6867 160.303 60.7309 160.139L82.3524 177.653C82.5524 176.92 82.7414 176.19 82.9199 175.465L61.3621 157.502C61.3984 157.33 61.4332 157.158 61.4676 156.986L83.0422 174.963C83.7668 171.956 84.3176 169.047 84.7352 166.339L63.6004 147.885L63.7051 147.67C63.2043 148.267 62.7176 148.893 62.2434 149.542C62.2559 147.491 62.0523 145.443 61.6352 143.421L53.5367 160.042C54.191 162.334 54.6602 164.658 54.9402 167.001C54.8914 167.397 54.8469 167.795 54.8117 168.198L55.0781 168.416C55.0949 168.63 55.1106 168.843 55.1234 169.055L54.7695 168.764C54.7527 168.998 54.7402 169.232 54.7277 169.467C54.5621 166.306 54.0328 163.165 53.1473 160.085L22.582 154.939C24.1216 156.233 25.7353 157.49 27.3843 158.702C24.1833 157.88 20.8617 157.416 17.5092 157.321L17.7474 157.359L22.2592 167.103C25.707 169.089 29.4948 171.403 33.356 173.996L27.8016 159.007C28.0074 159.157 28.2137 159.306 28.4205 159.454L33.9605 174.405C37.5659 176.849 40.9035 179.313 43.9731 181.797L41.4273 167.726C41.6059 167.828 41.7832 167.929 41.9598 168.029L44.5336 182.252C46.5688 183.918 48.4762 185.587 50.2551 187.259L49.0211 171.833C49.1961 171.922 49.368 172.01 49.5367 172.096L50.7836 187.685L50.6648 187.643C51.3652 188.308 52.0441 188.974 52.702 189.639L52.9402 173.778C53.1242 173.866 53.2938 173.948 53.4496 174.021L53.207 190.157C53.409 190.364 53.6129 190.572 53.8109 190.779C55.7121 192.766 57.4793 194.837 59.1055 196.981L59.2207 195.538C59.3621 195.966 59.5043 196.387 59.6461 196.8L59.5809 197.62C59.818 197.943 60.048 198.266 60.2746 198.588C60.4516 199.079 60.6266 199.557 60.8 200.022C60.2977 199.26 59.7734 198.506 59.2266 197.76L28.2143 200.597C44.5203 207.617 64.7551 210.944 66.0445 211.152C65.7387 210.045 65.3668 208.947 64.9387 207.86C65.05 207.765 65.1602 207.668 65.2703 207.572C65.3227 207.702 65.3774 207.832 65.4281 207.961C65.3707 208.012 65.3141 208.063 65.2563 208.114C65.3199 208.089 65.3867 208.063 65.4566 208.036C65.7543 208.8 66.0215 209.562 66.2578 210.321C66.352 209.704 66.4785 208.768 66.5887 207.583C72.1738 205.295 86.6383 198.608 93.982 188.125L74.7906 196.699C72.6035 200.346 69.8695 203.756 66.652 206.849ZM60.2934 182.085L60.3406 181.489L60.8274 181.986L60.7801 182.581L60.2934 182.085Z" fill="#6C63FF"/>
<path id="Vector_46" d="M85.9941 139.87L86.1641 139.804C81.927 138.049 77.3996 138.328 73.1055 140.264L86.0062 153.953C86.4551 145.68 86.0012 139.952 85.9941 139.87Z" fill="#6C63FF"/>
<path id="Vector_47" d="M78.7625 189.049C77.7293 191.427 76.5387 193.757 75.1957 196.029L94.2051 187.535L94.2309 187.762C95.625 185.732 96.6996 183.566 97.4289 181.316C97.7105 180.43 97.9652 179.543 98.193 178.654L79.082 188.298C78.9758 188.549 78.8711 188.801 78.7625 189.049Z" fill="#6C63FF"/>
<path id="Vector_48" d="M85.9711 154.57L72.7746 140.566L72.8895 140.361C69.6656 141.858 66.5801 144.29 63.8543 147.495L84.8168 165.798C85.4156 161.787 85.7707 157.976 85.9711 154.57Z" fill="#6C63FF"/>
<path id="Vector_49" d="M33.5684 174.494L3.20771 179.224L3.04187 179.036C4.37852 181.549 6.022 183.945 7.94716 186.187L41.5637 180.281C38.8479 178.17 36.1402 176.233 33.5684 174.494Z" fill="#6C63FF"/>
<path id="Vector_50" d="M43.9711 182.198C43.3207 181.667 42.6691 181.146 42.0164 180.634L8.27584 186.562L8.10693 186.375C8.78467 187.166 9.50615 187.955 10.2713 188.745L10.1008 188.559L43.9711 182.198Z" fill="#6C63FF"/>
<path id="Vector_51" d="M58.9445 197.38C57.1551 194.996 55.1926 192.701 53.0676 190.509L20.0303 196.505C22.5347 197.962 25.1556 199.28 27.8754 200.45L27.7038 200.239L58.9445 197.38Z" fill="#6C63FF"/>
<path id="Vector_52" d="M52.6945 190.125C50.0992 187.481 47.332 184.954 44.4043 182.553L10.4507 188.93C11.4932 189.995 12.6138 191.054 13.8125 192.106C15.5427 193.599 17.4357 194.961 19.468 196.172L52.6941 190.142L52.6945 190.125Z" fill="#6C63FF"/>
<path id="Vector_53" opacity="0.1" d="M78.4203 8.86755L78.3696 8.6374L73.561 6.55317H72.8063L72.518 6.10046H62.6078L60.3098 6.55317H51.8461L49.5531 8.74289L49.5297 8.87715C49.3813 9.66033 46.0649 28.0763 54.8149 33.9358L58.4633 35.3232H60.8227L60.3617 34.5694L62.4125 35.3232H69.0531L69.1711 35.1784L73.1117 33.971L73.2133 33.8751C73.5688 33.5298 81.9438 25.2025 78.4203 8.86755Z" fill="#6C63FF"/>
<path id="Vector_54" d="M66.5141 27.1717H62.6078V35.483H66.5141V27.1717Z" fill="#E6E6E6"/>
<path id="Vector_55" d="M67.8813 46.1918H60.85V206.025H67.8813V46.1918Z" fill="#3F3D56"/>
<path id="Vector_56" d="M69.6391 43.4747H59.0922V48.909H69.6391V43.4747Z" fill="#3F3D56"/>
<path id="Vector_57" d="M55.1859 33.565L61.8266 39.319L59.0922 43.4747L64.5609 44.4337L69.6391 43.4747L66.5141 38.9993L72.7641 33.565H55.1859Z" fill="#3F3D56"/>
<path id="Vector_58" d="M78.4203 8.86756L78.3696 8.6374L73.561 6.55318L71.3656 5.60057L59.0414 4.95164L52.1313 6.28146L51.8461 6.55318L49.5531 8.74289L49.5297 8.87715C49.3813 9.66034 46.0649 28.0763 54.8149 33.9358L58.4633 35.3232L61.5336 36.49L60.8227 35.3232L59.6547 33.4148C58.4321 27.5904 55.7446 12.288 57.4594 9.09133L64.5453 7.22128L70.8344 9.13289C71.268 11.4313 74.0727 27.5457 69.1586 33.2901L69.0531 33.4148V35.2145L73.1117 33.971L73.2133 33.8751C73.5688 33.5298 81.9438 25.2025 78.4203 8.86756ZM72.4047 33.1622L70.225 33.8335V33.7121C75.6156 27.1301 72.0922 9.45575 71.9399 8.70133L71.8852 8.42642L65.7211 6.55318L64.5766 6.20474L63.2563 6.55318L56.6469 8.29855L56.5336 8.46158C54.0219 12.1473 58.3305 32.769 58.5141 33.6449L58.5297 33.7153L58.9946 34.4761L55.4985 33.1558C47.7055 27.8462 50.3774 10.8431 50.6625 9.15846L52.7719 7.14456L55.8422 6.55318L59.143 5.91704L64.5766 6.20474L71.0375 6.54678L71.0531 6.55318L77.3149 9.26395C80.4164 24.0805 73.2992 32.216 72.4047 33.1622Z" fill="#3F3D56"/>
<path id="Vector_59" d="M64.5609 8.95067C70.3859 8.95067 75.1078 6.947 75.1078 4.47533C75.1078 2.00367 70.3859 0 64.5609 0C58.7359 0 54.0141 2.00367 54.0141 4.47533C54.0141 6.947 58.7359 8.95067 64.5609 8.95067Z" fill="#3F3D56"/>
<path id="Vector_60" d="M59.0922 197.874L52.8422 214.177C52.8422 214.177 62.6078 218.652 75.8891 214.177L69.6391 197.874H59.0922Z" fill="#3F3D56"/>
</g>
</svg>
