<svg width="253" height="192" viewBox="0 0 253 192" fill="none" xmlns="http://www.w3.org/2000/svg">
<g id="middlepart">
<path id="Vector" d="M244.627 12.6348L241.156 9.22151L241.087 9.28921V9.27318C240.725 8.51784 240.109 8.05109 239.725 8.23102C239.341 8.41094 239.326 9.17164 239.694 9.92698C239.773 10.0891 239.867 10.2435 239.975 10.3884L239.612 10.7447C239.612 10.7447 248.489 19.4739 251.957 19.0909L252.611 16.7108C252.611 16.7108 249.643 16.807 244.627 12.6348Z" fill="url(#paint0_linear)"/>
<path id="Vector_2" d="M241.584 11.1686C241.939 11.0014 241.952 10.2989 241.612 9.59953C241.272 8.89995 240.707 8.46865 240.352 8.63593C239.996 8.80321 239.984 9.50564 240.324 10.2051C240.664 10.9046 241.228 11.3359 241.584 11.1686Z" fill="#F8C198"/>
<g id="bench">
<path id="Vector_3" d="M170.869 57.3004H165V102.568H170.869V57.3004Z" fill="#3F3D56"/>
<path id="Vector_4" d="M235.632 51.7408H228.981V106.062H235.632V51.7408Z" fill="#3F3D56"/>
<path id="Vector_5" d="M6.65121 118.819H0.000183105V175.198H6.65121V118.819Z" fill="#3F3D56"/>
<path id="Vector_6" d="M28.5603 116.761H21.9093V146.802H28.5603V116.761Z" fill="#3F3D56"/>
<path id="Vector_7" d="M234.067 118.407H227.416V148.449H234.067V118.407Z" fill="#3F3D56"/>
<path id="Vector_8" d="M249.717 120.053H243.066V176.432H249.717V120.053Z" fill="#3F3D56"/>
<path id="Vector_9" d="M249.609 118.819H0.000183105V126.226H249.609V118.819Z" fill="#3F3D56"/>
<path id="Vector_10" d="M232.394 52.1523H18.7794V62.4403H232.394V52.1523Z" fill="#3F3D56"/>
<path id="Vector_11" d="M232.394 84.6626H18.7794V94.9506H232.394V84.6626Z" fill="#3F3D56"/>
<path id="Vector_12" d="M232.394 65.7325H18.7794V71.9053H232.394V65.7325Z" fill="#3F3D56"/>
<path id="Vector_13" d="M232.394 75.1975H18.7794V81.3704H232.394V75.1975Z" fill="#3F3D56"/>
<path id="Vector_14" d="M24.8436 50.3004H18.1926V104.621H24.8436V50.3004Z" fill="#3F3D56"/>
<path id="Vector_15" d="M17.9969 102.358L0 118.819H249.609L232.394 102.358H17.9969Z" fill="#3F3D56"/>
<path id="Vector_16" d="M92.8685 58.3004H87V103.568H92.8685V58.3004Z" fill="#3F3D56"/>
</g>
<g id="boy">
<path id="Vector_17" d="M54.8576 40.6086C55.9652 39.7794 57.1874 39.1345 58.4816 38.6967C66.687 35.4852 75.2849 33.5168 84.0172 32.8498C91.61 32.2835 99.8392 32.9564 105.77 37.9757C106.692 38.6876 107.447 39.6127 107.976 40.6794C108.722 42.3732 108.496 44.3415 108.255 46.1909C108.2 46.9078 108.029 47.6099 107.746 48.2654C106.948 49.8638 104.984 50.4234 103.277 50.2321C101.57 50.0403 99.9691 49.2806 98.286 48.9288C97.2442 48.7378 96.1906 48.6247 95.1334 48.5909L84.5759 47.9897C78.011 47.616 71.3596 47.2481 64.9202 48.642C62.9374 49.0168 61.0219 49.7111 59.241 50.7004C57.77 51.5691 56.7798 52.8152 55.4147 51.2111C53.0173 48.3926 51.6902 43.2119 54.8576 40.6086Z" fill="#2F2E41"/>
<path id="Vector_18" d="M71.2172 45.5193C71.2172 45.5193 85.4175 38.8234 90.8036 46.5494C96.1898 54.2749 87.8654 51.1847 87.8654 51.1847L78.5622 54.2749L68.2794 52.2148L71.2172 45.5193Z" fill="#F8A550"/>
<path id="Vector_19" d="M71.9519 40.6263C71.9519 40.6263 73.9104 50.4123 72.4413 52.9872C70.9723 55.5625 80.7657 59.1679 80.7657 59.1679L90.0689 55.0477C90.0689 55.0477 87.6209 39.0811 90.0689 35.9909L71.9519 40.6263Z" fill="#FFB9B9"/>
<path id="Vector_20" opacity="0.1" d="M71.9519 40.6263C71.9519 40.6263 73.9104 50.4123 72.4413 52.9872C70.9723 55.5625 80.7657 59.1679 80.7657 59.1679L90.0689 55.0477C90.0689 55.0477 87.6209 39.0811 90.0689 35.9909L71.9519 40.6263Z" fill="black"/>
<path id="Vector_21" d="M62.7762 158.295C64.1772 161.12 65.0853 164.181 66.0121 167.214C66.0258 167.316 66.0599 167.413 66.1115 167.499C66.1635 167.586 66.232 167.659 66.313 167.716C66.394 167.772 66.4851 167.811 66.581 167.828C66.6768 167.844 66.775 167.84 66.8693 167.814L75.5786 167.804C76.6538 167.802 78.0959 167.439 78.0845 166.309C78.0767 165.514 77.3048 165.019 76.7304 164.504C75.1358 163.072 74.721 160.713 74.0606 158.621C72.777 154.59 70.3036 151.096 67.0008 148.647C66.554 148.279 66.0403 148.012 65.4914 147.862C64.9394 147.778 64.3768 147.81 63.8365 147.957C62.3075 148.281 56.5982 149.391 57.6768 151.73C58.1412 152.738 59.8623 153.786 60.5837 154.727C61.4249 155.837 62.1592 157.032 62.7762 158.295Z" fill="#575A89"/>
<path id="Vector_22" d="M93.0633 147.67C92.7562 148.349 92.4143 149.009 92.0395 149.649C90.7774 151.839 89.2883 153.88 88.1134 156.122C87.3806 157.521 86.7637 159.032 86.6827 160.626C86.6017 162.221 87.1353 163.918 88.3446 164.883C89.6091 165.892 91.3427 165.939 92.9139 165.704C94.4851 165.469 96.0473 164.995 97.6303 165.12C97.0966 161.944 99.6432 159.148 100.28 155.993C100.459 155.107 100.486 154.188 100.725 153.318C100.984 152.522 101.313 151.754 101.711 151.025C102.979 148.428 103.876 145.647 104.371 142.774C104.431 142.425 96.6291 142.368 95.8971 142.535C93.613 143.054 93.9472 145.677 93.0633 147.67Z" fill="#575A89"/>
<path id="Vector_23" d="M32.9281 97.7699C30.7008 101.436 31.2141 106.295 32.7784 110.323C34.3427 114.35 36.8325 117.911 38.5364 121.875C39.6228 124.403 40.3846 127.083 41.608 129.54C43.1228 132.583 45.3349 135.265 46.3513 138.529C46.9992 140.609 47.1479 142.89 48.1976 144.781C48.8321 145.791 49.5563 146.736 50.3603 147.603C52.6209 150.327 54.3184 153.516 55.3447 156.968C56.304 153.962 59.1768 151.991 62.1275 151.341C65.0778 150.691 68.135 151.132 71.1201 151.576C69.455 148.863 67.7739 146.115 66.7813 143.059C65.8212 140.103 65.5379 136.959 64.8912 133.911C63.5653 127.659 60.7328 121.893 57.9284 116.208L72.3423 115.006C74.6952 114.757 77.0602 114.665 79.4241 114.729C83.1444 114.914 86.7891 115.873 90.4898 116.316C94.1905 116.76 98.1052 116.644 101.403 114.823C95.097 124.34 91.8126 135.711 92.0199 147.31C93.4292 146.161 95.0653 145.358 96.8075 144.961C98.5501 144.563 100.355 144.58 102.09 145.011C103.826 145.442 105.448 146.275 106.837 147.45C108.227 148.625 109.349 150.113 110.121 151.803C115.77 143.684 115.099 132.38 119.574 123.489C120.495 121.66 121.623 119.957 122.616 118.172C124.581 114.64 126.006 110.811 127.422 107C128.674 103.632 129.935 99.8839 128.735 96.4946C128.236 95.209 127.51 94.0346 126.595 93.0337C124.013 90.0387 120.418 87.8234 116.575 87.7313C110.675 87.5893 105.802 92.1893 100.627 95.1716C94.5313 98.6848 87.4202 100.081 80.4871 99.565C73.3783 99.0354 66.5896 96.588 59.8173 94.4325C56.4292 93.3041 52.9855 92.3699 49.5015 91.6337C46.5974 91.0605 43.8314 91.6955 40.9691 92.4765C37.8533 93.3271 34.7214 94.8177 32.9281 97.7699Z" fill="#2F2E41"/>
<path id="Vector_24" d="M94.4762 30.8404C94.4726 34.9374 92.9241 38.8654 90.1698 41.7625C87.4159 44.6592 83.6812 46.2885 79.7864 46.2918C78.9108 46.2934 78.0372 46.2107 77.1765 46.0444C74.4272 45.5222 71.8768 44.1864 69.824 42.1934C67.7711 40.2004 66.3013 37.6329 65.5865 34.7922C64.8717 31.9516 64.9421 28.9555 65.7891 26.1553C66.6362 23.3552 68.2246 20.8671 70.3682 18.983C72.5122 17.099 75.1221 15.8969 77.8924 15.518C80.6628 15.139 83.4781 15.5988 86.009 16.8435C88.5395 18.0882 90.6804 20.0661 92.18 22.5452C93.6796 25.0243 94.4762 27.9019 94.4762 30.8404Z" fill="url(#paint1_linear)"/>
<path id="Vector_25" d="M71.2172 45.5193C71.2172 45.5193 73.9104 46.807 74.8897 47.837C75.869 48.8671 78.8067 54.5325 83.7035 50.9271C88.6002 47.3218 89.0896 45.2617 90.5587 45.2617C92.0278 45.2617 93.9863 48.3518 93.9863 48.3518L107.452 90.8432C103.823 95.1523 99.6166 98.8823 94.9656 101.917C87.1311 107.067 77.8275 109.642 73.4206 107.582C69.0137 105.522 60.6898 103.977 59.2207 99.8568C57.7516 95.7362 55.3032 83.3753 55.3032 83.3753L62.1585 51.9572L71.2172 45.5193Z" fill="url(#paint2_linear)"/>
<path id="Vector_26" d="M69.3267 88.4938C70.3939 86.0683 70.5493 83.323 70.6396 80.6518C70.7836 78.0061 70.7167 75.3526 70.4405 72.7189C70.0066 69.2736 68.9397 65.9543 68.266 62.5522C67.6756 59.5679 67.3885 56.5263 67.41 53.4786C67.4198 52.0876 67.5156 50.6234 68.2359 49.4572C68.7386 48.6436 69.5246 48.0135 69.8388 47.1012C70.4546 45.3127 68.9331 43.4395 67.2656 42.7029C65.2817 41.8267 63.0141 41.8856 60.9268 42.4354C58.8396 42.9852 56.8928 43.9967 54.9644 45.0008C53.5716 45.7263 52.149 46.474 51.0688 47.6498C49.5489 49.3041 48.8806 51.6082 48.3407 53.8378C47.9088 55.6226 47.525 57.4831 47.8536 59.2917C48.3873 62.2288 50.6635 64.4378 51.8771 67.1419C53.2864 70.2823 53.1913 73.9415 52.631 77.3633C52.0704 80.7856 51.0755 84.1312 50.7687 87.5884C50.462 91.0456 50.9327 94.7621 52.9921 97.4761C53.8313 98.5819 56.1076 101.203 57.6439 100.907C58.8509 100.674 60.6005 97.879 61.5727 96.993C64.3814 94.4341 67.7136 92.158 69.3267 88.4938Z" fill="#2F2E41"/>
<path id="Vector_27" d="M94.9812 43.8395C95.0239 46.7119 93.8201 49.4424 92.4046 51.8996C90.9887 54.3564 89.3259 56.6798 88.2825 59.335C86.9859 62.6588 86.7215 66.3284 87.5262 69.8193C87.8255 71.0086 88.1862 72.1798 88.6064 73.328L91.2895 81.0683C91.6503 82.2852 92.1741 83.4424 92.8451 84.5041C93.4515 85.3173 94.1632 86.0374 94.9593 86.6432C96.9973 88.3745 99.3424 89.6613 101.858 90.4288C104.382 91.1304 107.144 91.0864 109.529 89.9687C109.788 79.4753 111.39 69.0666 114.294 59.0239C114.83 57.1699 115.416 55.2181 115.003 53.3296C114.539 51.2144 112.924 49.6263 111.389 48.1761C106.693 43.7407 101.529 39.0819 95.2438 38.4839C91.606 38.1379 94.9499 41.7625 94.9812 43.8395Z" fill="#2F2E41"/>
<path id="Vector_28" d="M86.5281 66.3634C85.9299 64.958 85.3047 63.5119 84.2304 62.4658C83.2148 61.563 82.0129 60.9226 80.7202 60.5955C79.045 60.0922 77.3126 59.8309 75.5708 59.8193C73.4968 59.8057 71.0923 60.3905 70.2116 62.3654C69.5125 63.9337 70.0547 65.7909 70.7586 67.3568C71.0594 68.1679 71.5606 68.8798 72.2105 69.4193C73.1044 70.0547 74.2613 70.0345 75.3212 70.2477C76.9835 70.5815 78.471 71.5185 79.9194 72.4391L83.5516 74.7485L89.7903 78.7152C89.6259 78.6107 89.6842 74.1107 89.4925 73.3732C88.8756 70.9971 87.4859 68.6132 86.5281 66.3634Z" fill="url(#paint3_linear)"/>
<path id="Vector_29" d="M65.7852 166.048C64.3255 168.135 64.6182 171.118 63.3251 173.323C62.2043 175.234 60.0916 176.236 58.6898 177.93C58.2422 178.492 57.8435 179.096 57.4981 179.733C56.1972 182.024 55.1401 184.961 56.421 187.265C57.4515 189.118 59.6174 189.842 61.6037 190.336C64.1143 190.96 66.7226 191.459 69.2625 190.982C71.8021 190.506 74.2841 188.87 75.1894 186.329C75.3674 185.69 75.579 185.062 75.8232 184.448C77.1995 181.597 81.5172 181.567 82.9261 178.734C83.912 176.751 83.0055 174.355 82.0998 172.331L79.333 166.148C78.4147 164.096 74.6929 165.276 72.7524 164.785C70.2219 164.143 67.6057 163.437 65.7852 166.048Z" fill="#2F2E41"/>
<path id="Vector_30" d="M87.1851 160.737C86.011 161.602 85.252 162.96 84.682 164.344C83.3126 167.667 82.8424 171.309 82.3858 174.899C82.2027 176.337 82.0208 177.809 82.3064 179.228C82.8967 182.16 85.4222 184.319 88.1405 185.215C90.8588 186.111 93.7743 185.973 96.6193 185.826C97.5333 185.779 98.4836 185.721 99.2848 185.257C100.715 184.428 101.273 182.478 101.028 180.78C100.783 179.082 99.901 177.571 99.0376 176.113C98.1745 174.655 97.2915 173.145 97.0442 171.447C96.6283 168.591 97.802 164.399 96.1342 161.815C94.4625 159.226 89.4159 159.092 87.1851 160.737Z" fill="#2F2E41"/>
<path id="Vector_31" d="M94.1064 22.7879C93.8451 21.8639 93.2696 21.0735 92.489 20.5676C92.5293 19.5778 92.4139 18.5877 92.1479 17.6374C91.2582 14.8711 89.1506 15.0297 87.1624 13.8066C86.2997 13.276 86.3529 12.807 85.9038 11.9354C85.3153 10.7929 84.4339 9.84694 83.3595 9.20513C82.0841 8.35019 80.7375 7.46974 79.2281 7.3615C76.0567 7.13414 73.6252 10.2718 70.5939 11.2789C69.2578 11.7227 67.822 11.741 66.4789 12.1606C65.1358 12.5802 63.7958 13.5821 63.5955 15.0408C63.5031 15.7142 63.6663 16.405 63.5724 17.0783C63.3861 18.4164 62.2699 19.3535 61.5231 20.4541C59.8709 22.8878 60.0599 26.3261 61.3811 28.9741C61.6596 29.522 61.9781 30.0464 62.3337 30.5423C62.444 31.7939 62.7856 33.0107 63.3396 34.1247C64.6608 36.7728 66.9347 38.7514 69.3095 40.3955C69.115 39.5173 68.9969 38.6222 68.9574 37.7214C68.9237 37.4214 68.9609 37.1169 69.0653 36.8354C69.3298 36.2539 70.0286 36.0992 70.5614 35.7806C71.6651 35.121 72.0982 33.6609 72.1299 32.3261C72.162 30.9912 71.8928 29.6541 72.0258 28.3262C72.0313 28.0208 72.097 27.72 72.2195 27.4431C72.3419 27.1662 72.5184 26.9193 72.7371 26.7185C73.1444 26.4741 73.6099 26.3574 74.0782 26.3822C76.3396 26.2852 78.7023 26.2415 80.6972 25.1166C81.3775 24.7329 82.0102 24.2254 82.757 24.0205C84.4523 23.5555 86.1851 24.8052 87.162 26.3348C88.1389 27.8643 88.626 29.6845 89.5274 31.2645C90.4288 32.8448 91.9859 34.2539 93.7285 34.0666C93.8267 34.0666 93.9237 34.0452 94.0137 34.0033C94.1033 33.9613 94.1835 33.9 94.2492 33.823C94.3243 33.6811 94.3576 33.5185 94.3451 33.3568L94.4421 26.3494C94.5231 25.1508 94.4096 23.9464 94.1064 22.7879Z" fill="#2F2E41"/>
<path id="Vector_32" d="M107.4 45.1012L112.233 48.4428C114.378 49.7206 116.092 51.635 117.163 53.9465L125.121 67.9823C126.184 69.8576 127.26 71.7638 127.781 73.8835C127.978 74.5761 128.034 75.3078 127.944 76.0325C127.805 76.6942 127.563 77.3312 127.226 77.9177C124.499 83.1753 119.883 88.0448 114.191 88.5304C112.867 88.6029 111.541 88.5539 110.232 88.3839C107.718 88.1358 105.165 87.8773 102.845 86.8975C100.416 85.8724 98.3752 84.1131 96.2508 82.5382C92.439 79.7131 88.2707 77.4284 83.8533 75.7428C83.2113 75.4979 82.5168 75.2271 82.1639 74.6234C81.4507 73.4033 82.556 71.9086 83.4206 70.7477C84.8971 68.7646 85.8498 66.1008 85.0137 63.8144C92.1248 66.7601 99.8298 69.7551 107.386 67.7913C107.523 67.795 107.66 67.7601 107.782 67.6901C107.905 67.6206 108.007 67.5181 108.079 67.3946C108.151 67.2708 108.19 67.1304 108.192 66.9876C108.194 66.8452 108.158 66.7057 108.089 66.5847C107.591 64.8016 106.831 63.1173 106.223 61.3741C105.121 58.1971 104.528 54.8415 104.469 51.4374C104.435 49.5292 103.988 42.7424 107.4 45.1012Z" fill="#2F2E41"/>
<path id="Vector_33" opacity="0.1" d="M55.5576 66.044C55.6221 69.6823 54.8874 73.2868 53.4104 76.5778C53.0262 77.3049 52.743 78.0864 52.5697 78.8979C52.3126 80.6296 53.2493 82.3062 54.3201 83.6485C56.4327 86.2893 59.1722 88.2942 62.2606 89.4592" fill="black"/>
<path id="Vector_34" opacity="0.1" d="M106.434 62.9773C106.088 63.9539 106.402 65.0337 106.668 66.0374C107.439 68.9481 107.799 71.9621 107.736 74.9831C107.748 75.0358 107.746 75.0909 107.732 75.1428C107.718 75.195 107.692 75.2424 107.656 75.2815C107.62 75.3201 107.575 75.3485 107.526 75.3646C107.477 75.381 107.425 75.3839 107.374 75.3732C106.244 75.4461 104.95 75.4539 104.183 74.5773" fill="black"/>
<path id="Vector_35" d="M46.2125 60.7827C44.8107 62.9576 43.1949 65.0485 42.4245 67.5481C41.9715 69.0173 41.831 70.5699 41.5032 72.0753C40.4112 77.0893 37.2567 81.5428 36.9398 86.6761C36.8287 87.8164 36.9879 88.9683 37.403 90.0284C38.3079 92.0987 40.3588 89.9967 42.4245 90.6831C44.4902 91.3695 41.8224 88.5502 43.4711 90.0284C44.3013 90.8654 45.547 88.2564 46.2125 89.2428C45.824 87.3909 45.6377 87.0572 49.7309 88.4197C49.4077 86.0761 51.6999 88.1247 53.4812 86.6761C54.4453 85.8918 53.8052 84.4704 55.0192 84.3601C59.5532 87.307 51.1937 80.4568 55.0192 84.3601C55.7438 86.1675 53.4327 83.3292 55.0192 84.3601C54.5665 83.23 54.5728 81.9646 54.5618 80.7383C54.5223 76.2502 54.1612 71.7716 53.4812 67.3407C53.009 64.2638 52.3834 61.2148 51.6683 58.1905C51.4676 57.3415 50.2805 53.5329 48.8197 54.4243C48.4758 54.6341 48.1538 57.0498 47.9527 57.551C47.4746 58.6856 46.8917 59.7679 46.2125 60.7827Z" fill="#2F2E41"/>
<path id="leftpalm" d="M36.4452 50.8522C36.6901 50.1543 37.0653 49.5164 37.3141 48.8201C37.6173 47.8518 37.7899 46.8391 37.8274 45.8086C38.1631 41.3358 38.036 36.3596 35.1357 32.7963C34.863 32.428 34.518 32.121 34.1248 31.8967C33.3597 31.5088 32.4461 31.7017 31.7468 32.1294C30.29 33.0206 29.5733 34.7407 28.9595 36.3683C27.6292 39.8959 26.3781 43.6403 26.9095 47.4823C27.4333 51.2695 29.8526 54.7741 33.0773 56.8016C34.5383 57.7201 36.9929 59.2148 36.5888 56.5992C36.2824 54.6148 35.7664 52.7856 36.4452 50.8522Z" fill="url(#paint4_linear)"/>
<path id="Vector_36" d="M48.1549 81.3922C47.7973 85.1658 50.0442 83.6 49.9761 85.8893C49.9081 88.1786 50.6264 88.0012 49.3134 89.8193C48 91.637 47.8944 90.837 47.8944 90.837C49.2938 89.5518 46.9112 92.4728 47.8944 90.837C47.4491 91.2802 46.9131 91.621 46.3208 91.8382C45.7563 91.9905 45.1667 92.0465 44.5759 92.0041C39.4018 91.8675 33.7242 90.0107 30.9417 85.4979C30.325 84.4308 29.8011 83.3144 29.3761 82.1625C28.5011 79.9831 27.6164 77.7662 27.3823 75.4514C27.1372 73.0292 27.6169 70.6313 27.9208 68.2387C28.4651 63.9461 28.4454 59.5765 27.8623 55.242C27.7775 54.6123 27.6902 53.9288 28.002 53.3934C28.6326 52.3111 30.2432 52.6234 31.4967 52.8708C33.6383 53.293 36.0779 53.0074 37.471 51.3938C38.2324 58.465 39.2077 66.0473 43.91 71.5074C43.9656 71.6226 44.0501 71.7218 44.1553 71.7946C44.2606 71.8675 44.3818 71.9111 44.507 71.921C44.6318 71.9308 44.7559 71.9061 44.8658 71.8502C44.9754 71.7942 45.0669 71.7086 45.1303 71.6024C46.2821 70.472 43.7993 74.3897 44.8744 73.1843C44.8744 73.1843 48.5125 77.6185 48.1549 81.3922Z" fill="#2F2E41"/>
</g>
<g id="girl">
<path id="Vector_37" opacity="0.07" d="M181.439 28.7369C181.439 28.7369 184.132 29.4654 185.28 27.7511C187.815 23.8936 185.518 29.7226 185.518 29.7226C185.518 29.7226 184.766 31.9942 184.845 33.1086C184.845 34.2658 181.914 28.9083 181.439 28.7369Z" fill="black"/>
<path id="Vector_38" d="M199.537 113.572C198.032 110.872 196.844 110.143 193.122 110.058C189.399 109.929 184.449 110.015 184.449 110.015L184.409 115.715C184.409 115.715 188.528 118.287 190.706 119.53C190.825 119.615 191.181 119.83 191.458 120.001C191.854 120.216 192.25 120.344 192.646 120.472C194.824 120.987 196.765 120.73 198.191 119.187C199.735 117.515 201.042 116.272 199.537 113.572Z" fill="#2F2E41"/>
<path id="Vector_39" d="M171.499 108.472C171.38 108.6 171.024 108.858 170.826 109.072C170.509 109.372 170.232 109.715 169.995 110.1C168.767 112.072 168.252 114.172 169.044 116.144C169.915 118.33 170.509 120.13 173.361 119.616C176.212 119.101 177.321 118.158 178.786 114.472C180.251 110.786 182.073 105.772 182.033 105.772L177.162 103.586C177.123 103.586 173.4 106.757 171.499 108.472Z" fill="#2F2E41"/>
<path id="Vector_40" d="M184.805 110.229C184.805 110.229 184.885 116.015 184.013 116.144C183.142 116.272 171.182 114.386 166.43 114.129C161.678 113.872 150.867 110.529 145.56 104.014C140.967 98.3996 141.68 92.2276 145.085 92.2276C148.491 92.2276 151.58 89.0987 160.213 93.5564C168.846 98.0136 177.954 98.7424 183.063 98.3136C188.171 97.8852 202.547 95.0136 203.656 94.1136C204.764 93.2131 210.15 90.6847 217.635 91.5847C225.119 92.4847 221.595 98.914 220.011 101.357C217.793 104.786 212.526 108.514 208.17 108.686C203.735 108.814 184.805 110.229 184.805 110.229Z" fill="#2F2E41"/>
<path id="Vector_41" d="M175.935 9.42094C173.4 10.4067 170.192 23.9507 170.192 23.9507L170.153 23.9078L169.797 25.7937L169.361 28.2367L170.192 42.8951L178.35 47.3099L197.082 52.7531L202.27 60.7251C202.27 60.7251 213.873 73.4975 213.952 74.3975C214.031 75.2975 201.477 79.7551 200.29 79.9696C197.399 80.4407 218.704 74.7831 211.893 65.8255C209.002 62.0107 204.725 50.4815 196.29 42.8095C191.379 38.3946 192.765 25.8365 191.023 17.9073C188.845 7.9637 187.538 5.00629 185.36 5.00629C183.38 4.96345 180.647 7.49222 175.935 9.42094Z" fill="url(#paint5_linear)"/>
<path id="Vector_42" d="M202.428 41.4807C198.507 37.5802 197.161 36.6375 193.755 37.9663C190.349 39.2947 188.647 40.4947 183.934 41.3519C181.043 41.9091 178.073 41.4807 175.38 40.2379L165.717 41.2663C164.49 41.0951 150.748 68.9971 150.431 74.8263C150.234 78.3835 157.678 83.8695 159.777 84.4267C160.609 84.6412 162.114 75.8547 162.589 75.0831L159.46 74.0547C160.015 72.5547 161.916 68.7827 163.144 66.7683C163.539 66.1255 166.509 60.8107 166.906 58.7535C166.985 58.9679 167.42 62.8251 167.816 64.0683C168.569 66.3399 169.638 67.6683 169.638 69.4687C169.638 71.2687 169.44 78.5123 168.212 81.7695C166.985 85.0272 165.203 92.5704 165.203 92.5704L196.092 92.356C196.092 92.356 194.983 77.9979 195.419 73.0259C195.419 73.0259 194.943 71.0543 195.854 68.1827C197.359 63.4251 197.795 56.3963 197.517 55.2819C197.121 53.5243 206.586 68.2255 208.645 71.9543C209.516 73.4975 197.755 76.2407 196.804 77.3979C195.775 78.6407 197.795 81.9839 197.795 81.9839C197.795 81.9839 218.268 79.2835 218.189 75.8975C218.149 72.5115 206.982 45.9811 202.428 41.4807Z" fill="url(#paint6_linear)"/>
<path id="Vector_43" d="M178.39 1.44888C178.39 1.44888 172.648 1.70604 170.984 8.22081C169.321 14.7356 169.084 23.8221 169.044 25.1936C169.004 26.6937 169.638 35.3942 166.549 39.0374C163.896 42.1662 164.965 45.2095 164.292 47.7383L163.975 51.8959C164.014 52.4103 164.371 52.7959 164.807 52.9671C165.203 53.0959 166.628 52.3671 166.906 52.2815C170.47 50.7387 170.469 49.4955 171.816 48.2527C172.925 47.2239 176.014 44.8667 176.925 43.9239C177.836 42.9806 178.469 42.1662 178.549 40.9662C178.747 34.923 177.756 29.3511 176.529 26.3937C175.301 23.4363 172.964 18.4645 174.905 15.1214C176.845 11.7783 180.41 8.52085 180.608 7.66365C180.806 6.84929 180.925 10.8782 183.063 12.2497C185.241 13.6641 187.023 15.6357 187.696 17.5216C188.251 19.1074 189.003 21.8505 186.944 26.5651C184.885 31.2798 183.261 37.3658 186.112 41.8662C189.003 46.3667 195.062 51.2099 196.052 53.4815C197.161 56.0103 196.092 61.8823 195.894 65.4395C195.696 68.9971 202.309 59.2679 202.111 54.6387C201.913 50.0099 202.626 48.0383 198.507 40.8806C194.389 33.7658 191.736 21.5505 191.617 18.636C191.498 15.6786 190.31 7.49221 187.815 5.13489C185.676 3.16328 185.202 1.23456 180.845 1.23456C180.093 1.27744 179.221 1.36316 178.39 1.44888Z" fill="#2F2E41"/>
<path id="Vector_44" opacity="0.07" d="M165.322 100.114L194.27 100.285C194.27 100.285 190.864 103.157 189.241 103.5C187.617 103.843 180.608 107.572 178.034 106.157C176.212 105.043 165.322 100.114 165.322 100.114Z" fill="black"/>
<path id="Vector_45" opacity="0.07" d="M170.628 49.5815C170.311 50.0099 169.797 50.3955 169.559 51.5099C169.123 53.3103 168.648 55.3675 167.5 57.2535C166.826 58.3675 167.183 62.6107 168.331 65.3539C168.648 66.1255 169.678 68.1399 169.638 68.6115L169.598 72.5115H172.727C172.727 72.5115 175.38 72.8115 174.826 70.4543C174.351 68.3543 171.816 60.5535 173.519 58.8391C176.727 55.6675 172.687 49.3243 174.192 47.2666C175.499 45.5094 177.36 44.2239 177.36 43.6666C177.36 43.4522 176.885 44.1806 176.529 44.395C175.895 44.9094 175.578 45.295 175.024 45.6811C174.43 46.1094 173.559 46.7955 172.964 47.2666C172.093 47.9527 171.341 48.7239 170.628 49.5815Z" fill="black"/>
<path id="Vector_46" d="M158.55 74.7403C158.55 74.7403 158.51 72.6831 160.371 72.5975C162.232 72.5115 201.636 72.5547 201.636 72.5547C201.636 72.5547 203.378 72.7687 203.418 74.3119C203.457 75.8119 203.457 98.3568 203.457 98.3568C203.457 98.3568 203.497 100.114 201.794 100.157C200.092 100.2 159.936 100.2 159.936 100.2C159.936 100.2 158.431 99.7712 158.47 98.1424C158.47 96.5564 158.55 74.7403 158.55 74.7403Z" fill="white"/>
<path id="Vector_47" d="M181.122 88.2416C182.063 88.2416 182.825 87.4165 182.825 86.3984C182.825 85.3807 182.063 84.5556 181.122 84.5556C180.182 84.5556 179.419 85.3807 179.419 86.3984C179.419 87.4165 180.182 88.2416 181.122 88.2416Z" fill="url(#paint7_linear)"/>
</g>
<g id="headphone">
<path id="Vector_48" fill-rule="evenodd" clip-rule="evenodd" d="M164.34 17.4844C164.291 17.0568 164.259 16.6237 164.247 16.1856C163.998 7.55447 171.151 0.312294 180.222 0.00978381C189.294 -0.292768 196.849 6.45892 197.098 15.0901C197.122 15.9425 197.075 16.7814 196.96 17.6014L196.926 16.422L194.279 16.5083C194.519 15.6667 194.634 14.7918 194.607 13.8962C194.43 7.86344 187.925 3.18028 180.079 3.43608C172.233 3.69188 166.017 8.78982 166.195 14.8226C166.221 15.7182 166.387 16.584 166.676 17.4083L164.34 17.4844Z" fill="#0474C3"/>
<path id="Vector_49" d="M194.128 23.8624C194.168 24.1492 194.421 24.3475 194.694 24.3053C194.967 24.263 195.155 23.9963 195.115 23.7095L194.241 17.4667C194.201 17.1799 193.947 16.9817 193.675 17.0239C193.402 17.0661 193.213 17.3329 193.254 17.6197L194.128 23.8624Z" fill="#0D2031"/>
<path id="Vector_50" d="M194.29 25.0251C194.39 25.7422 193.919 26.4091 193.238 26.5147L191.709 15.5926C192.39 15.487 193.024 15.9827 193.124 16.6997L194.29 25.0251Z" fill="#0D2031"/>
<path id="Vector_51" d="M192.777 26.586L192.957 26.5581C193.385 26.4919 193.68 26.0737 193.617 25.624L192.306 16.2599C192.243 15.8102 191.846 15.4994 191.418 15.5656L191.238 15.5935C190.811 15.6597 190.515 16.0779 190.578 16.5276L191.889 25.8917C191.952 26.3414 192.35 26.6522 192.777 26.586Z" fill="#08ADEF"/>
<path id="Vector_52" d="M194.953 24.5245C195.079 25.4239 195.874 26.0457 196.729 25.9132C197.584 25.7807 198.175 24.9442 198.049 24.0448L197.023 16.7165C196.897 15.8171 196.102 15.1953 195.247 15.3278C194.392 15.4602 193.801 16.2967 193.927 17.1962L194.953 24.5245Z" fill="#08ADEF"/>
<path id="Vector_53" d="M194.487 21.0108L197.586 20.5526L198.076 24.2202C198.197 25.1205 197.601 25.9529 196.745 26.0794C195.889 26.206 195.097 25.5787 194.977 24.6784L194.487 21.0108Z" fill="#0474C3"/>
<path id="Vector_54" d="M167.61 18.6109C167.634 18.3221 167.431 18.0675 167.156 18.0422C166.882 18.0169 166.64 18.2306 166.616 18.5194L166.093 24.8054C166.069 25.0942 166.272 25.3488 166.547 25.3741C166.821 25.3994 167.063 25.1857 167.087 24.8969L167.61 18.6109Z" fill="#0D2031"/>
<path id="Vector_55" d="M167.707 17.4401C167.768 16.7181 168.372 16.184 169.059 16.2472L168.144 27.245C167.458 27.1818 166.95 26.5453 167.01 25.8233L167.707 17.4401Z" fill="#0D2031"/>
<path id="Vector_56" d="M169.522 16.2898L169.341 16.2731C168.911 16.2335 168.531 16.5685 168.494 17.0213L167.709 26.4503C167.672 26.9031 167.99 27.3023 168.421 27.3419L168.602 27.3586C169.032 27.3982 169.412 27.0633 169.449 26.6104L170.234 17.1814C170.271 16.7286 169.953 16.3294 169.522 16.2898Z" fill="#08ADEF"/>
<path id="Vector_57" d="M166.963 17.6706C167.039 16.765 166.402 15.9666 165.541 15.8873C164.68 15.8081 163.921 16.478 163.845 17.3837L163.231 24.7629C163.156 25.6685 163.793 26.467 164.654 26.5462C165.515 26.6254 166.274 25.9555 166.349 25.0498L166.963 17.6706Z" fill="#08ADEF"/>
<path id="Vector_58" d="M163.569 21.1021L166.687 21.389L166.38 25.0786C166.305 25.9842 165.546 26.6542 164.685 26.575C163.824 26.4957 163.187 25.6973 163.262 24.7917L163.569 21.1021Z" fill="#0474C3"/>
</g>
</g>
<defs>
<linearGradient id="paint0_linear" x1="8744.46" y1="7929.13" x2="8744.46" y2="7261.29" gradientUnits="userSpaceOnUse">
<stop stop-color="#808080" stop-opacity="0.25"/>
<stop offset="0.54" stop-color="#808080" stop-opacity="0.12"/>
<stop offset="1" stop-color="#808080" stop-opacity="0.1"/>
</linearGradient>
<linearGradient id="paint1_linear" x1="62.2927" y1="30.8066" x2="94.374" y2="30.8066" gradientUnits="userSpaceOnUse">
<stop stop-color="#F87B58"/>
<stop offset="0.0001" stop-color="#F87B58"/>
<stop offset="0.505208" stop-color="#F8C249"/>
<stop offset="1" stop-color="#F89C51"/>
</linearGradient>
<linearGradient id="paint2_linear" x1="55.2504" y1="68.2551" x2="107.286" y2="67.5112" gradientUnits="userSpaceOnUse">
<stop stop-color="#D687E0"/>
<stop offset="1" stop-color="#7A5BF5"/>
</linearGradient>
<linearGradient id="paint3_linear" x1="66.205" y1="60.0247" x2="85.7668" y2="60.0247" gradientUnits="userSpaceOnUse">
<stop stop-color="#F87B58"/>
<stop offset="0.484375" stop-color="#F8C249"/>
<stop offset="1" stop-color="#F89C51"/>
</linearGradient>
<linearGradient id="paint4_linear" x1="25.1252" y1="45.2099" x2="41.1478" y2="44.6746" gradientUnits="userSpaceOnUse">
<stop stop-color="#F87B58"/>
<stop offset="0.489583" stop-color="#F8C249"/>
<stop offset="1" stop-color="#F89C51"/>
</linearGradient>
<linearGradient id="paint5_linear" x1="169.342" y1="42.465" x2="213.918" y2="42.465" gradientUnits="userSpaceOnUse">
<stop stop-color="#F87B58"/>
<stop offset="0.5" stop-color="#F8C548"/>
<stop offset="1" stop-color="#F89C51"/>
</linearGradient>
<linearGradient id="paint6_linear" x1="150.427" y1="64.9675" x2="218.251" y2="64.9675" gradientUnits="userSpaceOnUse">
<stop stop-color="#E5A4ED"/>
<stop offset="1" stop-color="#7A5BF5"/>
</linearGradient>
<linearGradient id="paint7_linear" x1="182.824" y1="86.393" x2="179.419" y2="86.393" gradientUnits="userSpaceOnUse">
<stop stop-color="#59C2E9"/>
<stop offset="1" stop-color="#5BD3EF"/>
</linearGradient>
</defs>
</svg>
