<svg id="WholeMoon" viewBox="0 0 200 200" fill="none" xmlns="http://www.w3.org/2000/svg">
<g id="Moon" >
<g id="Group" filter="url(#filter0_ddf)">
<path id="Vector" d="M45 70C45 50.6831 60.6831 35 80 35C99.3169 35 115 50.6831 115 70C115 89.3169 99.3169 105 80 105C60.6831 105 45 89.3169 45 70Z" fill="white"/>
</g>
<path id="Vector_2" d="M92.9501 53.5501C92.9501 52.5841 93.7341 51.8001 94.7 51.8001C95.666 51.8001 96.45 52.5841 96.45 53.5501C96.45 54.5161 95.666 55.3001 94.7 55.3001C93.7341 55.3001 92.9501 54.5161 92.9501 53.5501Z" fill="#D9D9BE"/>
<path id="Vector_3" d="M84.2 70.6997C84.2 68.7681 85.7685 67.1997 87.7 67.1997C89.6316 67.1997 91.2 68.7681 91.2 70.6997C91.2 72.6313 89.6316 74.1997 87.7 74.1997C85.7685 74.1997 84.2 72.6313 84.2 70.6997Z" fill="#D9D9BE"/>
<path id="Vector_4" d="M92.9501 77.7001C92.9501 74.8026 95.3025 72.4501 98.2001 72.4501C101.098 72.4501 103.45 74.8026 103.45 77.7001C103.45 80.5977 101.098 82.9501 98.2001 82.9501C95.3025 82.9501 92.9501 80.5977 92.9501 77.7001Z" fill="#D9D9BE"/>
<g id="Group_2" filter="url(#filter1_d)">
<path id="Vector_5" d="M77.2 86.4499C77.2 82.5868 80.3365 79.4499 84.2 79.4499C88.0632 79.4499 91.2 82.5868 91.2 86.4499C91.2 90.3134 88.0632 93.4499 84.2 93.4499C80.3365 93.4499 77.2 90.3134 77.2 86.4499Z" fill="#D9D9BE"/>
</g>
</g>
<defs>
<filter id="filter0_ddf" x="0" y="0" width="170" height="160" filterUnits="userSpaceOnUse" color-interpolation-filters="sRGB">
<feFlood flood-opacity="0" result="BackgroundImageFix"/>
<feColorMatrix in="SourceAlpha" type="matrix" values="0 0 0 0 0 0 0 0 0 0 0 0 0 0 0 0 0 0 127 0"/>
<feOffset dx="-5" dy="5"/>
<feGaussianBlur stdDeviation="20"/>
<feColorMatrix type="matrix" values="0 0 0 0 1 0 0 0 0 0.9875 0 0 0 0 0.9875 0 0 0 1 0"/>
<feBlend mode="normal" in2="BackgroundImageFix" result="effect1_dropShadow"/>
<feColorMatrix in="SourceAlpha" type="matrix" values="0 0 0 0 0 0 0 0 0 0 0 0 0 0 0 0 0 0 127 0"/>
<feOffset dx="10" dy="10"/>
<feGaussianBlur stdDeviation="22.5"/>
<feColorMatrix type="matrix" values="0 0 0 0 1 0 0 0 0 1 0 0 0 0 1 0 0 0 0.4 0"/>
<feBlend mode="normal" in2="effect1_dropShadow" result="effect2_dropShadow"/>
<feBlend mode="normal" in="SourceGraphic" in2="effect2_dropShadow" result="shape"/>
<feGaussianBlur stdDeviation="0.5" result="effect3_foregroundBlur"/>
</filter>
<filter id="filter1_d" x="73.2" y="79.4499" width="22" height="22" filterUnits="userSpaceOnUse" color-interpolation-filters="sRGB">
<feFlood flood-opacity="0" result="BackgroundImageFix"/>
<feColorMatrix in="SourceAlpha" type="matrix" values="0 0 0 0 0 0 0 0 0 0 0 0 0 0 0 0 0 0 127 0"/>
<feOffset dy="4"/>
<feGaussianBlur stdDeviation="2"/>
<feColorMatrix type="matrix" values="0 0 0 0 0 0 0 0 0 0 0 0 0 0 0 0 0 0 0.25 0"/>
<feBlend mode="normal" in2="BackgroundImageFix" result="effect1_dropShadow"/>
<feBlend mode="normal" in="SourceGraphic" in2="effect1_dropShadow" result="shape"/>
</filter>
</defs>
</svg>
