<svg width="10" height="11" viewBox="0 0 10 11" fill="none" xmlns="http://www.w3.org/2000/svg">
<path d="M8.44443 0.780588C7.31845 0.830341 6.3294 0.975565 5.22729 1.24803C4.57118 1.41124 3.88418 1.62701 3.39044 1.82479L3.21673 1.89396L3.21555 3.12767C3.21398 3.80536 3.21243 4.6712 3.20969 5.05153C3.20851 5.4319 3.20538 6.28248 3.20421 6.94223L3.20264 8.13997L3.13496 8.11507C3.09818 8.10125 3.00233 8.07495 2.92056 8.05836C2.7132 8.01273 2.32079 8.01272 2.10796 8.05696C1.60992 8.16211 1.17799 8.41384 0.918599 8.75129C0.423294 9.39717 0.598178 10.1745 1.32353 10.5395C1.75663 10.758 2.30671 10.7873 2.82314 10.6185C3.41587 10.4263 3.85601 10.0128 3.99412 9.51894L4.02385 9.4124L4.02541 6.92145L4.02816 4.43055L4.11265 4.40425C5.30788 4.04326 6.47025 3.804 7.71751 3.66293C7.97886 3.63388 8.43856 3.5924 8.50937 3.5924H8.55006V5.32125C8.55006 6.29906 8.54458 7.05009 8.53754 7.05009C8.5305 7.05009 8.49803 7.04042 8.46399 7.02795C8.30163 6.97125 8.13965 6.94915 7.88691 6.94775C7.60209 6.94775 7.4679 6.96713 7.20969 7.05009C6.72573 7.20499 6.33371 7.51618 6.13731 7.90071C6.05124 8.07219 6.01172 8.20775 6.00077 8.37787C5.98082 8.68075 6.08801 8.95873 6.31258 9.18972C6.51837 9.40412 6.77111 9.53705 7.11109 9.61153C7.31845 9.65598 7.71048 9.65721 7.9237 9.61153C8.34271 9.52306 8.69247 9.34462 8.95929 9.08322C9.15687 8.891 9.27385 8.70565 9.35015 8.46499L9.38965 8.34326L9.39396 4.55639L9.3967 0.770874L8.9636 0.773631C8.72377 0.77503 8.49099 0.77779 8.44443 0.780588Z" fill="url(#paint0_linear)"/>
<defs>
<linearGradient id="paint0_linear" x1="0.180728" y1="5.04923" x2="12.3781" y2="4.21408" gradientUnits="userSpaceOnUse">
<stop stop-color="#00C7FF"/>
</linearGradient>
</defs>
</svg>
