<svg width="100" height="79" viewBox="0 0 100 79" fill="none" xmlns="http://www.w3.org/2000/svg">
<g id="Group 5">
<g id="Frame" clip-path="url(#clip0)">
<path id="Vector" d="M15.7173 49.8674C15.7173 49.8674 -19.6467 30.9186 15.7173 20.6715C15.7173 20.6715 31.2168 -21.8625 59.2741 15.0944C59.2741 15.0944 84.9903 12.3058 85.5916 30.6163C85.5916 30.6163 91.1584 34.6481 99.6359 35.5887C108.113 36.5293 108.714 43.9881 106.943 46.1381C105.171 48.2884 99.0666 48.9268 99.0666 48.9268L15.7173 49.8674Z" fill="#BAC6F2"/>
</g>
<g id="Frame_2">
<path id="Vector_2" d="M62.7115 43.2079L73.7817 77.646L74.7681 77.2347L62.7115 43.2079Z" fill="url(#paint0_linear)"/>
<path id="Vector_3" d="M47.5858 32.1964L58.9848 76.9201L57.5965 76.799L47.5858 32.1964Z" fill="url(#paint1_linear)"/>
<path id="Vector_4" d="M49.1933 24.9845C49.1933 24.9845 49.0107 30.7686 47.5858 32.2206C47.5858 32.1964 45.7956 28.7115 49.1933 24.9845Z" fill="url(#paint2_linear)"/>
<path id="Vector_5" d="M54.3449 27.09C54.3449 27.09 51.0201 31.6398 48.9742 32.39C49.0107 32.39 49.303 29.0745 54.3449 27.09Z" fill="url(#paint3_linear)"/>
<path id="Vector_6" d="M43.64 23C43.64 23 48.3531 29.7037 47.2935 31.9302C47.2935 31.9302 41.3018 28.6873 43.64 23Z" fill="url(#paint4_linear)"/>
<path id="Vector_7" d="M56.6466 29.4375C56.6466 29.4375 53.0295 35.3426 51.897 36.9882C51.6047 37.3755 51.3855 37.5448 51.2393 37.5691C50.6913 37.6175 50.5451 36.2864 50.6548 35.391C50.8374 34.1567 52.5546 30.5749 56.6466 29.4375Z" fill="url(#paint5_linear)"/>
<path id="Vector_8" d="M51.1663 37.4481C51.1663 37.4481 51.2029 37.4239 51.2029 37.4723C51.0202 38.0289 49.9972 41.296 50.0337 41.8769C50.0702 42.5061 49.7414 41.0298 49.7414 41.0298L51.1663 37.4481Z" fill="url(#paint6_linear)"/>
<path id="Vector_9" d="M49.0107 32.3416C49.0107 32.3416 49.1203 32.3174 49.0837 32.3416C48.7549 32.8498 48.4626 35.0522 48.4992 35.633C48.5357 36.2622 48.28 35.1247 48.28 35.1247L49.0107 32.3416Z" fill="url(#paint7_linear)"/>
<path id="Vector_10" d="M57.9253 32.0028C57.9253 32.0028 55.4775 39.9408 53.7969 41.6348C51.6413 43.8129 51.8239 39.4809 52.1527 38.7065C52.5181 37.9563 54.0161 33.4307 57.9253 32.0028Z" fill="url(#paint8_linear)"/>
<path id="Vector_11" d="M49.0107 32.3416C49.0107 32.3416 49.1203 32.3174 49.0837 32.3416C48.7549 32.8498 48.4626 35.0522 48.4992 35.633C48.5357 36.2622 48.28 35.1247 48.28 35.1247L49.0107 32.3416Z" fill="url(#paint9_linear)"/>
<path id="Vector_12" d="M52.6277 41.9495C52.6277 41.9495 52.6642 41.9011 52.6642 41.9737C52.4815 42.5787 51.349 46.2331 51.3855 46.8864C51.3855 47.5884 51.0932 45.9669 51.0932 45.9669L52.6277 41.9495Z" fill="url(#paint10_linear)"/>
<path id="Vector_13" d="M63.4056 35.7056C63.4056 35.7056 58.0715 44.539 55.7332 46.3058C52.8104 48.5565 53.8699 43.4015 54.5275 42.5545C55.1852 41.6833 59.0214 36.9398 63.4056 35.7056Z" fill="url(#paint11_linear)"/>
<path id="Vector_14" d="M54.3449 46.7654C54.3449 46.7654 54.4179 46.6204 54.4179 46.6687C54.1987 47.3463 52.6277 50.9524 52.6642 51.6783C52.7008 52.4527 52.2989 50.783 52.2989 50.783L54.3449 46.7654Z" fill="url(#paint12_linear)"/>
<path id="Vector_15" d="M65.9631 40.2554C65.9631 40.2554 59.5329 49.3307 57.1581 51.2426C54.1987 53.6629 55.7697 47.903 56.7927 46.4024C57.8523 44.8294 61.5423 41.5864 65.9631 40.2554Z" fill="url(#paint13_linear)"/>
<path id="Vector_16" d="M55.7332 51.751C55.7332 51.751 55.8063 51.5816 55.8063 51.6541C55.5871 52.3802 53.943 56.2282 53.9795 57.0025C53.9795 57.8255 53.6507 56.0586 53.6507 56.0586L55.7332 51.751Z" fill="url(#paint14_linear)"/>
<path id="Vector_17" d="M67.2418 45.1198C67.2418 45.1198 60.8116 54.1952 58.4368 56.1071C55.4774 58.5272 57.0485 52.7674 58.0715 51.267C59.1675 49.718 62.821 46.4508 67.2418 45.1198Z" fill="url(#paint15_linear)"/>
<path id="Vector_18" d="M57.0485 56.6153C57.0485 56.6153 57.1215 56.4459 57.1215 56.5184C56.9023 57.2446 55.2583 61.2378 55.2583 61.9881C55.2583 62.8109 54.8564 60.8748 54.8564 60.8748L57.0485 56.6153Z" fill="url(#paint16_linear)"/>
<path id="Vector_19" d="M70.4569 49.597C70.4569 49.597 62.6018 58.8902 60.2636 60.8021C57.3042 63.2222 59.4233 56.7364 60.4828 55.2358C61.5058 53.6385 65.9996 50.9038 70.4569 49.597Z" fill="url(#paint17_linear)"/>
<path id="Vector_20" d="M59.0944 61.2378C59.0944 61.2378 59.131 61.1409 59.131 61.2378C58.8752 62.1089 56.7927 66.8524 56.7562 67.748C56.7196 68.7402 56.2812 66.4167 56.2812 66.4167L59.0944 61.2378Z" fill="url(#paint18_linear)"/>
<path id="Vector_21" d="M74.5854 55.1633C74.5854 55.1633 71.5165 58.4789 67.9725 61.1894C65.5977 63.0044 62.6749 64.3113 61.5423 64.9647C57.9618 66.9976 62.0538 61.1409 63.4787 59.7616C64.9035 58.382 69.8724 55.9619 74.5854 55.1633Z" fill="url(#paint19_linear)"/>
<path id="Vector_22" d="M60.2271 65.2551C60.2271 65.2551 60.2636 65.1583 60.2636 65.2551C60.0079 66.1263 57.7792 71.2327 57.8158 72.1524C57.8158 72.3702 57.3408 70.4827 57.3408 70.4827L60.2271 65.2551Z" fill="url(#paint20_linear)"/>
<path id="Vector_23" d="M75.8642 60.3181C75.8642 60.3181 72.4299 64.0694 68.4476 67.1187C65.7804 69.1756 62.5654 70.6762 61.2866 71.4021C57.3043 73.7014 61.9077 67.1429 63.5153 65.5698C65.1594 63.9966 70.6762 61.2378 75.8642 60.3181Z" fill="url(#paint21_linear)"/>
<path id="Vector_24" d="M79.2254 68.9579C79.2254 68.9579 72.9779 70.8456 68.3744 72.7575C63.0038 74.984 62.0903 75.2259 60.6289 75.4195C55.9524 76.0246 64.2094 70.0953 66.4746 69.3452C68.7763 68.5708 74.3297 68.0382 79.2254 68.9579Z" fill="url(#paint22_linear)"/>
<path id="Vector_25" d="M59.7521 71.9103C59.7886 71.8378 59.8251 71.7895 59.8982 71.7409C59.752 72.1766 58.3272 74.1612 58.4368 74.6452C58.4733 74.7661 58.1445 73.798 58.1445 73.798L59.7521 71.9103Z" fill="url(#paint23_linear)"/>
<path id="Vector_26" d="M59.7886 75.1293L59.8982 75.0324C59.7886 75.2501 58.5829 76.1698 58.7656 76.4361C58.8021 76.5086 58.4003 76.0004 58.4003 76.0004L59.7886 75.1293Z" fill="url(#paint24_linear)"/>
<path id="Vector_27" d="M44.0053 26.7754C44.0053 26.7754 46.3801 32.2932 47.8415 33.6001C47.8415 33.6001 47.6223 30.1393 44.0053 26.7754Z" fill="url(#paint25_linear)"/>
<path id="Vector_28" d="M41.4844 29.0503C41.4844 29.0503 45.3937 33.2371 47.0012 33.8421C46.9647 33.8421 45.5033 30.696 41.4844 29.0503Z" fill="url(#paint26_linear)"/>
<path id="Vector_29" d="M46.782 24.5973C46.782 24.5973 46.307 31.2284 47.8781 33.3097C47.9146 33.3097 50.4721 29.8731 46.782 24.5973Z" fill="url(#paint27_linear)"/>
<path id="Vector_30" d="M40.8999 31.422C40.8999 31.422 45.5033 36.8672 46.8551 38.3919C47.184 38.7549 47.4032 38.9001 47.5128 38.9001C47.8781 38.9001 47.4397 37.6417 47.0378 36.7704C46.4898 35.633 44.0054 32.2932 40.8999 31.422Z" fill="url(#paint28_linear)"/>
<path id="Vector_31" d="M47.5492 38.7791C47.5492 38.7791 47.5127 38.7549 47.5492 38.8033C47.878 39.3115 49.8144 42.3851 49.9971 42.9417C50.2163 43.5467 49.8875 42.1189 49.8875 42.1189L47.5492 38.7791Z" fill="url(#paint29_linear)"/>
<path id="Vector_32" d="M46.9647 33.7937C46.9647 33.7937 46.8916 33.7937 46.9281 33.7937C47.33 34.2535 48.353 36.359 48.5722 36.8914C48.7914 37.4965 48.4992 36.3832 48.4992 36.3832L46.9647 33.7937Z" fill="url(#paint30_linear)"/>
<path id="Vector_33" d="M41.0825 33.9389C41.0825 33.9389 45.7225 41.3686 47.4762 42.9175C49.7048 44.8778 47.9146 40.7636 47.4031 40.0376C46.8551 39.3115 44.1149 35.1006 41.0825 33.9389Z" fill="url(#paint31_linear)"/>
<path id="Vector_34" d="M46.9647 33.7937C46.9647 33.7937 46.8916 33.7937 46.9281 33.7937C47.33 34.2535 48.353 36.359 48.5722 36.8914C48.7914 37.4965 48.4992 36.3832 48.4992 36.3832L46.9647 33.7937Z" fill="url(#paint32_linear)"/>
<path id="Vector_35" d="M48.3165 43.1595C48.3165 43.1595 48.28 43.1353 48.3165 43.1837C48.6453 43.7404 50.8009 47.1769 51.0567 47.8061C51.3124 48.4837 50.874 46.9106 50.874 46.9106L48.3165 43.1595Z" fill="url(#paint33_linear)"/>
<path id="Vector_36" d="M39 37.7627C39 37.7627 45.8321 45.8942 48.0242 47.4674C50.7644 49.4759 48.0973 44.5874 47.3666 43.813C46.5993 43.0627 42.2882 38.7065 39 37.7627Z" fill="url(#paint34_linear)"/>
<path id="Vector_37" d="M49.0838 47.8303C49.0838 47.8303 48.9742 47.6851 49.0107 47.7578C49.376 48.3871 51.8239 51.751 52.0797 52.4527C52.372 53.203 51.97 51.5816 51.97 51.5816L49.0838 47.8303Z" fill="url(#paint35_linear)"/>
<path id="Vector_38" d="M39.1096 42.2641C39.1096 42.2641 46.7455 50.5892 49.0107 52.2834C51.8605 54.4371 48.6088 49.0405 47.3666 47.6367C46.0879 46.1847 42.4709 43.2805 39.1096 42.2641Z" fill="url(#paint36_linear)"/>
<path id="Vector_39" d="M50.1067 52.6705C50.1067 52.6705 49.9606 52.5252 49.9971 52.5738C50.4355 53.2514 52.9565 56.8331 53.2488 57.5834C53.5776 58.382 53.1026 56.6637 53.1026 56.6637L50.1067 52.6705Z" fill="url(#paint37_linear)"/>
<path id="Vector_40" d="M40.1691 46.9833C40.1691 46.9833 47.805 55.3085 50.0702 57.0025C52.9199 59.1565 49.6683 53.7596 48.4261 52.3559C47.1108 50.9038 43.5303 47.9997 40.1691 46.9833Z" fill="url(#paint38_linear)"/>
<path id="Vector_41" d="M51.1663 57.3898C51.1663 57.3898 51.0202 57.2446 51.0567 57.2929C51.4951 57.9705 54.0891 61.6976 54.3814 62.4235C54.7103 63.2222 54.1988 61.3344 54.1988 61.3344L51.1663 57.3898Z" fill="url(#paint39_linear)"/>
<path id="Vector_42" d="M39.8403 51.3878C39.8403 51.3878 48.4992 59.8341 50.7278 61.5282C53.5776 63.682 49.7048 57.6075 48.4261 56.2038C47.1473 54.8003 43.2015 52.4286 39.8403 51.3878Z" fill="url(#paint40_linear)"/>
<path id="Vector_43" d="M51.6412 61.9395C51.6412 61.9395 51.5681 61.867 51.6047 61.9395C52.1162 62.7623 55.2582 67.167 55.6236 68.0382C56.0255 68.982 55.4409 66.7555 55.4409 66.7555L51.6412 61.9395Z" fill="url(#paint41_linear)"/>
<path id="Vector_44" d="M39.3289 56.9541C39.3289 56.9541 42.5805 59.9551 45.9418 62.351C48.1704 63.9483 50.5818 65.0616 51.5317 65.6181C54.6372 67.3606 49.7414 61.9878 48.28 60.7538C46.7821 59.4711 42.6901 57.4381 39.3289 56.9541Z" fill="url(#paint42_linear)"/>
<path id="Vector_45" d="M52.4815 65.8116C52.4815 65.8116 52.4085 65.7391 52.445 65.8116C52.9565 66.6347 56.3543 71.4021 56.6831 72.2735C56.7562 72.4912 56.3543 70.652 56.3543 70.652L52.4815 65.8116Z" fill="url(#paint43_linear)"/>
<path id="Vector_46" d="M40.498 61.9395C40.498 61.9395 44.1881 65.3276 47.9147 68.0382C50.4356 69.8534 53.1027 71.1119 54.1622 71.7409C57.5965 73.7255 52.1162 67.6994 50.4722 66.2957C48.7915 64.868 44.1881 62.5446 40.498 61.9395Z" fill="url(#paint44_linear)"/>
<path id="Vector_47" d="M41.667 70.3616C41.667 70.3616 46.4166 71.8136 50.1066 73.4109C54.4178 75.2501 55.0755 75.4195 56.0985 75.5405C59.3501 75.8793 51.7142 70.6521 49.9971 70.047C48.2434 69.4177 44.4437 69.2242 41.667 70.3616Z" fill="url(#paint45_linear)"/>
<path id="Vector_48" d="M55.3313 72.1283C55.3313 72.1283 55.1487 71.9347 55.1852 71.9589C55.4409 72.3702 57.1581 74.1854 57.2312 74.6694C57.2677 74.7902 57.085 73.8466 57.085 73.8466L55.3313 72.1283Z" fill="url(#paint46_linear)"/>
<path id="Vector_49" d="M56.537 75.2018C56.537 75.2018 56.4274 75.1049 56.4274 75.1293C56.5736 75.347 57.7062 76.1456 57.6696 76.4119C57.6696 76.4844 57.7062 75.9762 57.7062 75.9762L56.537 75.2018Z" fill="url(#paint47_linear)"/>
<path id="Vector_50" d="M58.2542 38.4645C58.2542 38.4645 60.9578 42.5303 62.7115 43.2079C62.7115 43.2079 62.5653 40.3038 58.2542 38.4645Z" fill="url(#paint48_linear)"/>
<path id="Vector_51" d="M55.2217 41.1992C55.2217 41.1992 59.7886 43.6436 61.725 43.6677C61.6885 43.6677 60.0079 41.3928 55.2217 41.1992Z" fill="url(#paint49_linear)"/>
<path id="Vector_52" d="M61.6885 35.7298C61.6885 35.7298 61.0308 41.6107 62.821 42.9417C62.821 42.9417 65.9996 39.1905 61.6885 35.7298Z" fill="url(#paint50_linear)"/>
<path id="Vector_53" d="M54.491 43.4015C54.491 43.4015 59.8982 46.717 61.5057 47.6126C61.8711 47.8303 62.1269 47.903 62.273 47.8545C62.7114 47.7578 62.2365 46.7898 61.725 46.1605C61.1039 45.3618 58.181 43.2321 54.491 43.4015Z" fill="url(#paint51_linear)"/>
<path id="Vector_54" d="M62.273 47.782C62.273 47.782 62.2365 47.7578 62.273 47.782C62.6384 48.1449 64.9036 50.2021 65.1228 50.6377C65.3785 51.0976 64.9766 49.9599 64.9766 49.9599L62.273 47.782Z" fill="url(#paint52_linear)"/>
<path id="Vector_55" d="M61.6519 43.6436C61.6519 43.6436 61.5789 43.6436 61.5789 43.6677C62.0538 43.9582 63.2595 45.4586 63.4787 45.8701C63.7345 46.3299 63.4056 45.4586 63.4056 45.4586L61.6519 43.6436Z" fill="url(#paint53_linear)"/>
<path id="Vector_56" d="M54.6372 45.5554C54.6372 45.5554 60.0444 50.5892 62.0904 51.3878C64.721 52.4044 62.675 49.4034 62.0539 48.9194C61.4328 48.4354 58.2907 45.628 54.6372 45.5554Z" fill="url(#paint54_linear)"/>
<path id="Vector_57" d="M61.6519 43.6436C61.6519 43.6436 61.5789 43.6436 61.5789 43.6677C62.0538 43.9582 63.2595 45.4586 63.4787 45.8701C63.7345 46.3299 63.4056 45.4586 63.4056 45.4586L61.6519 43.6436Z" fill="url(#paint55_linear)"/>
<path id="Vector_58" d="M63.1133 51.3395C63.1133 51.3395 63.0768 51.3153 63.1133 51.3395C63.5152 51.7266 65.9996 54.0742 66.2919 54.5099C66.5842 55.0181 66.1092 53.7837 66.1092 53.7837L63.1133 51.3395Z" fill="url(#paint56_linear)"/>
<path id="Vector_59" d="M52.0797 49.4759C52.0797 49.4759 60.1175 54.4615 62.7115 55.1633C65.9631 56.0588 62.8577 52.6705 61.9808 52.2106C61.1039 51.751 55.989 49.2824 52.0797 49.4759Z" fill="url(#paint57_linear)"/>
<path id="Vector_60" d="M63.9902 55.1391C63.9902 55.1391 63.8441 55.0422 63.8806 55.0906C64.319 55.5262 67.1688 57.7044 67.4611 58.2126C67.7899 58.7691 67.3149 57.4865 67.3149 57.4865L63.9902 55.1391Z" fill="url(#paint58_linear)"/>
<path id="Vector_61" d="M52.1162 53.2997C52.1162 53.2997 61.1039 58.1884 63.7709 58.9871C67.1322 59.9793 63.3691 56.3007 61.9077 55.4537C60.4097 54.6065 56.1351 53.2031 52.1162 53.2997Z" fill="url(#paint59_linear)"/>
<path id="Vector_62" d="M65.0863 59.0113C65.0863 59.0113 64.9401 58.9144 64.9767 58.9629C65.4516 59.4225 68.4475 61.7701 68.7763 62.3025C69.1417 62.8834 68.6302 61.5524 68.6302 61.5524L65.0863 59.0113Z" fill="url(#paint60_linear)"/>
<path id="Vector_63" d="M53.2853 57.0752C53.2853 57.0752 62.273 61.9637 64.9401 62.7623C68.3013 63.7548 64.5382 60.0762 63.0768 59.229C61.5788 58.382 57.3042 56.9783 53.2853 57.0752Z" fill="url(#paint61_linear)"/>
<path id="Vector_64" d="M66.2554 62.7623C66.2554 62.7623 66.1092 62.6657 66.1458 62.714C66.6207 63.1738 69.6897 65.6181 70.0185 66.1507C70.3839 66.7313 69.8359 65.2551 69.8359 65.2551L66.2554 62.7623Z" fill="url(#paint62_linear)"/>
<path id="Vector_65" d="M52.8104 61.0198C52.8104 61.0198 63.0037 65.715 65.6343 66.5136C68.9955 67.5058 64.4651 63.4401 63.0037 62.6171C61.5058 61.7459 56.8293 60.899 52.8104 61.0198Z" fill="url(#paint63_linear)"/>
<path id="Vector_66" d="M66.7304 66.562C66.7304 66.562 66.6208 66.5136 66.6938 66.562C67.2784 67.1187 70.9685 69.9742 71.4069 70.6277C71.8819 71.3296 71.1877 69.5871 71.1877 69.5871L66.7304 66.562Z" fill="url(#paint64_linear)"/>
<path id="Vector_67" d="M52.1162 65.9569C52.1162 65.9569 55.9524 67.5783 59.8982 68.6432C62.5287 69.345 65.3785 69.5871 66.5476 69.7807C70.2012 70.3616 64.4651 67.1912 62.7479 66.562C60.9942 65.9085 56.0985 65.3762 52.1162 65.9569Z" fill="url(#paint65_linear)"/>
<path id="Vector_68" d="M67.6438 69.684C67.6438 69.684 67.5342 69.6354 67.6072 69.684C68.1918 70.2405 72.1741 73.3382 72.5761 73.9916C72.6856 74.1612 72.2107 72.6848 72.2107 72.6848L67.6438 69.684Z" fill="url(#paint66_linear)"/>
<path id="Vector_69" d="M53.395 69.9259C53.395 69.9259 57.7061 71.7409 62.1269 72.9752C65.0863 73.798 68.2648 74.0643 69.5436 74.2821C73.6356 74.9599 67.1688 71.4021 65.2324 70.7004C63.2595 69.9742 57.8157 69.345 53.395 69.9259Z" fill="url(#paint67_linear)"/>
<path id="Vector_70" d="M54.6372 76.8715C54.6372 76.8715 60.3002 76.7021 64.6844 76.9684C69.836 77.2589 70.6397 77.2106 71.8454 76.9926C75.7181 76.2909 66.6939 74.0643 64.6479 74.0643C62.5289 74.0643 57.9985 75.0324 54.6372 76.8715Z" fill="url(#paint68_linear)"/>
<path id="Vector_71" d="M70.9685 74.2821C70.9685 74.2821 70.7493 74.161 70.7858 74.1854C71.1146 74.4756 73.0875 75.5164 73.1971 75.9035C73.2337 76.0004 73.0145 75.2259 73.0145 75.2259L70.9685 74.2821Z" fill="url(#paint69_linear)"/>
<path id="Vector_72" d="M72.3203 76.5571C72.3203 76.5571 72.1741 76.5086 72.2107 76.5086C72.3933 76.6538 73.7086 77.0168 73.7086 77.2347C73.7086 77.2831 73.7817 76.8474 73.7817 76.8474L72.3203 76.5571Z" fill="url(#paint70_linear)"/>
<path id="Vector_73" d="M63.0768 38.4887C63.0768 38.4887 63.6979 42.9659 63.1499 44.2486C63.1499 44.2244 61.7981 41.7317 63.0768 38.4887Z" fill="url(#paint71_linear)"/>
<path id="Vector_74" d="M66.0362 39.5051C66.0362 39.5051 64.8671 43.4015 63.9171 44.2244C63.9171 44.2244 63.6614 41.6348 66.0362 39.5051Z" fill="url(#paint72_linear)"/>
<path id="Vector_75" d="M59.9347 37.6175C59.9347 37.6175 63.2229 42.2157 62.9671 44.0549C62.9671 44.0549 59.4598 42.2399 59.9347 37.6175Z" fill="url(#paint73_linear)"/>
<path id="Vector_76" d="M67.5342 41.0298C67.5342 41.0298 66.4016 45.991 66.0362 47.3946C65.9632 47.7334 65.8535 47.8786 65.7805 47.9272C65.4882 48.0239 65.269 47.0075 65.1959 46.3058C65.0863 45.3618 65.5247 42.4093 67.5342 41.0298Z" fill="url(#paint74_linear)"/>
<path id="Vector_77" d="M65.6708 47.8545C65.6708 47.8545 65.7073 47.8303 65.6708 47.8545C65.6343 48.2902 65.5247 50.9524 65.5977 51.3878C65.7073 51.8718 65.342 50.783 65.342 50.783L65.6708 47.8545Z" fill="url(#paint75_linear)"/>
<path id="Vector_78" d="M63.9171 44.176L63.9537 44.1518C63.8441 44.5874 63.9902 46.3058 64.0633 46.7412C64.1729 47.2252 63.8806 46.3783 63.8806 46.3783L63.9171 44.176Z" fill="url(#paint76_linear)"/>
<path id="Vector_79" d="M68.5205 42.8691C68.5205 42.8691 68.2283 49.2582 67.5706 50.7586C66.7303 52.6705 66.2919 49.3307 66.365 48.7017C66.438 48.0724 66.6572 44.4422 68.5205 42.8691Z" fill="url(#paint77_linear)"/>
<path id="Vector_80" d="M63.9171 44.176L63.9537 44.1518C63.8441 44.5874 63.9902 46.3058 64.0633 46.7412C64.1729 47.2252 63.8806 46.3783 63.8806 46.3783L63.9171 44.176Z" fill="url(#paint78_linear)"/>
<path id="Vector_81" d="M67.0226 51.1459C67.0226 51.1459 67.0226 51.1218 67.0226 51.1459C66.9861 51.6299 66.8765 54.6065 66.9861 55.0906C67.0957 55.6231 66.7303 54.413 66.7303 54.413L67.0226 51.1459Z" fill="url(#paint79_linear)"/>
<path id="Vector_82" d="M71.8087 45.0714C71.8087 45.0714 70.1281 52.5011 69.1782 54.1225C67.936 56.2038 67.8629 52.114 68.0821 51.3878C68.3013 50.6619 69.6897 46.5477 71.8087 45.0714Z" fill="url(#paint80_linear)"/>
<path id="Vector_83" d="M68.4841 54.6551C68.4841 54.6551 68.5206 54.534 68.5206 54.5824C68.4841 55.115 68.1187 58.0916 68.2283 58.6483C68.3379 59.2531 67.936 57.9949 67.936 57.9949L68.4841 54.6551Z" fill="url(#paint81_linear)"/>
<path id="Vector_84" d="M73.7086 48.2902C73.7086 48.2902 71.48 56.0344 70.53 57.7769C69.2878 59.9793 69.3974 55.381 69.7263 54.0742C70.0551 52.7674 71.553 49.8391 73.7086 48.2902Z" fill="url(#paint82_linear)"/>
<path id="Vector_85" d="M69.8358 58.3095C69.8358 58.3095 69.8724 58.1643 69.8724 58.2126C69.8358 58.7935 69.4705 61.9395 69.5801 62.5446C69.6897 63.198 69.2878 61.8429 69.2878 61.8429L69.8358 58.3095Z" fill="url(#paint83_linear)"/>
<path id="Vector_86" d="M74.9873 51.8962C74.9873 51.8962 72.7587 59.6405 71.8087 61.383C70.5665 63.5851 70.6762 58.9871 71.005 57.6803C71.3338 56.349 72.8683 53.4208 74.9873 51.8962Z" fill="url(#paint84_linear)"/>
<path id="Vector_87" d="M71.1511 61.9154C71.1511 61.9154 71.1876 61.7701 71.1876 61.8187C71.1511 62.3994 70.7858 65.6667 70.8954 66.2473C71.005 66.9007 70.53 65.4245 70.53 65.4245L71.1511 61.9154Z" fill="url(#paint85_linear)"/>
<path id="Vector_88" d="M77.216 54.9456C77.216 54.9456 74.2932 63.0044 73.3067 64.747C72.0645 66.9493 72.3568 61.7218 72.7222 60.415C73.0875 59.1081 75.0968 56.4701 77.216 54.9456Z" fill="url(#paint86_linear)"/>
<path id="Vector_89" d="M72.7587 65.2551C72.7587 65.2551 72.7952 65.1824 72.7587 65.2551C72.7587 65.9327 72.2837 69.8292 72.3568 70.531C72.4664 71.3055 71.9184 69.563 71.9184 69.563L72.7587 65.2551Z" fill="url(#paint87_linear)"/>
<path id="Vector_90" d="M80.0292 58.7691C79.2618 60.6085 78.3851 62.3994 77.3257 64.1902C76.3028 65.8602 74.9508 67.2154 74.4393 67.8446C72.8318 69.829 74.2201 64.8436 74.7681 63.6095C75.4257 62.351 77.7274 59.931 80.0292 58.7691Z" fill="url(#paint88_linear)"/>
<path id="Vector_91" d="M73.8547 68.2076C73.8547 68.2076 73.8913 68.1351 73.8547 68.2076C73.8547 68.8854 73.3432 73.0963 73.4528 73.798C73.4893 73.9674 73.0144 72.5639 73.0144 72.5639L73.8547 68.2076Z" fill="url(#paint89_linear)"/>
<path id="Vector_92" d="M81.3809 62.5929C81.3809 62.5929 80.0656 65.8844 78.3851 68.6916C77.2524 70.5793 75.7545 72.1041 75.2066 72.83C73.4164 75.0565 74.9874 69.4661 75.6451 68.0867C76.3028 66.6589 78.7872 63.8998 81.3809 62.5929Z" fill="url(#paint90_linear)"/>
<path id="Vector_93" d="M84.1942 68.8368C84.1942 68.8368 81.1983 71.015 79.0427 73.0236C76.5583 75.3711 76.0833 75.6616 75.3528 75.9762C73.0144 76.9926 76.5583 71.4507 77.6177 70.6035C78.7139 69.7565 81.5271 68.6916 84.1942 68.8368Z" fill="url(#paint91_linear)"/>
<path id="Vector_94" d="M74.4394 73.3626C74.4394 73.3626 74.4759 73.1688 74.4759 73.2174C74.4394 73.5803 73.9644 75.2501 74.074 75.6374C74.1105 75.7341 73.8182 75.0082 73.8182 75.0082L74.4394 73.3626Z" fill="url(#paint92_linear)"/>
<path id="Vector_95" d="M74.9143 75.8552C74.9143 75.8552 74.9509 75.7585 74.9509 75.7827C74.9143 75.9762 74.4394 76.8232 74.549 76.9926C74.5855 77.0412 74.2932 76.7021 74.2932 76.7021L74.9143 75.8552Z" fill="url(#paint93_linear)"/>
<path id="Vector_96" d="M91.0265 50.3715L75.0239 76.8959L74.1835 76.4119L91.0265 50.3715Z" fill="url(#paint94_linear)"/>
<path id="Vector_97" d="M95.9585 47.1044C95.9585 47.1044 92.7435 50.0327 91.0262 50.3473C91.063 50.3715 91.6838 48.0239 95.9585 47.1044Z" fill="url(#paint95_linear)"/>
<path id="Vector_98" d="M98.3335 49.7422C98.3335 49.7422 93.6935 51.0976 91.9032 50.8796C91.9032 50.8796 93.8762 49.2582 98.3335 49.7422Z" fill="url(#paint96_linear)"/>
<path id="Vector_99" d="M93.255 44.4422C93.255 44.4422 92.8897 49.3065 90.9897 50.1537C90.9897 50.1293 88.6879 46.6687 93.255 44.4422Z" fill="url(#paint97_linear)"/>
<path id="Vector_100" d="M98.6259 51.6541C98.6259 51.6541 93.0724 53.6385 91.4282 54.1469C91.0265 54.2678 90.8071 54.2919 90.6977 54.2436C90.2956 54.0984 90.9168 53.3724 91.4647 52.9368C92.1956 52.3559 95.2644 51.0007 98.6259 51.6541Z" fill="url(#paint98_linear)"/>
<path id="Vector_101" d="M90.6977 54.1469C90.6977 54.1469 90.7341 54.1225 90.6977 54.1469C90.2956 54.3888 87.8476 55.7684 87.5556 56.083C87.2268 56.4218 87.7747 55.5504 87.7747 55.5504L90.6977 54.1469Z" fill="url(#paint99_linear)"/>
<path id="Vector_102" d="M91.9397 50.8555C91.9397 50.8555 92.013 50.8555 92.013 50.8796C91.538 51.049 90.1494 52.114 89.8574 52.4044C89.5286 52.7432 89.9668 52.0656 89.9668 52.0656L91.9397 50.8555Z" fill="url(#paint100_linear)"/>
<path id="Vector_103" d="M98.1141 53.3725C98.1141 53.3725 92.2685 56.7364 90.2227 57.0994C87.6286 57.5834 90.0397 55.4052 90.6609 55.115C91.3185 54.8245 94.7529 52.9368 98.1141 53.3725Z" fill="url(#paint101_linear)"/>
<path id="Vector_104" d="M91.9397 50.8555C91.9397 50.8555 92.013 50.8555 92.013 50.8796C91.538 51.049 90.1494 52.114 89.8574 52.4044C89.5286 52.7432 89.9668 52.0656 89.9668 52.0656L91.9397 50.8555Z" fill="url(#paint102_linear)"/>
<path id="Vector_105" d="M89.3091 56.93C89.3091 56.93 89.3459 56.9058 89.3091 56.93C88.8709 57.1963 86.1671 58.745 85.8382 59.0838C85.473 59.4469 86.1306 58.5272 86.1306 58.5272L89.3091 56.93Z" fill="url(#paint103_linear)"/>
<path id="Vector_106" d="M99.8679 56.9058C99.8679 56.9058 91.5744 59.8582 89.09 60.0762C85.9115 60.3664 89.3824 58.0191 90.2591 57.7769C91.1359 57.5592 96.2509 56.2282 99.8679 56.9058Z" fill="url(#paint104_linear)"/>
<path id="Vector_107" d="M87.8841 59.9066C87.8841 59.9066 88.0303 59.8582 87.9938 59.8824C87.4824 60.1728 84.523 61.5524 84.1577 61.9395C83.7556 62.351 84.4132 61.383 84.4132 61.383L87.8841 59.9066Z" fill="url(#paint105_linear)"/>
<path id="Vector_108" d="M99.1738 60.0276C99.1738 60.0276 90.0032 62.7867 87.4095 63.0528C84.1212 63.4157 88.2497 60.9231 89.7477 60.4391C91.282 59.9551 95.4835 59.3984 99.1738 60.0276Z" fill="url(#paint106_linear)"/>
<path id="Vector_109" d="M86.2035 62.9076C86.2035 62.9076 86.3497 62.8592 86.3133 62.8834C85.8018 63.198 82.6598 64.6984 82.258 65.1099C81.8195 65.5456 82.55 64.5048 82.55 64.5048L86.2035 62.9076Z" fill="url(#paint107_linear)"/>
<path id="Vector_110" d="M97.4568 62.9317C97.4568 62.9317 88.2862 65.6908 85.6921 65.9569C82.4042 66.3201 86.5327 63.8273 88.0306 63.3432C89.565 62.8834 93.7664 62.3025 97.4568 62.9317Z" fill="url(#paint108_linear)"/>
<path id="Vector_111" d="M84.4865 65.8117C84.4865 65.8117 84.6327 65.7633 84.5962 65.7875C84.0848 66.1021 80.833 67.6511 80.4677 68.0626C80.0292 68.498 80.7966 67.3606 80.7966 67.3606L84.4865 65.8117Z" fill="url(#paint109_linear)"/>
<path id="Vector_112" d="M97.2373 66.199C97.2373 66.199 87.0438 68.6433 84.4501 68.9337C81.1618 69.2967 86.0209 66.5861 87.5556 66.1263C89.09 65.6181 93.5474 65.5456 97.2373 66.199Z" fill="url(#paint110_linear)"/>
<path id="Vector_113" d="M83.3907 68.8127C83.3907 68.8127 83.5001 68.7885 83.4271 68.8368C82.8059 69.2242 78.8965 71.0392 78.3851 71.499C77.8371 72.0072 78.7503 70.6762 78.7503 70.6762L83.3907 68.8127Z" fill="url(#paint111_linear)"/>
<path id="Vector_114" d="M97.0547 70.3133C94.5338 70.8215 91.9762 71.1844 89.3824 71.4507C86.8247 71.6684 84.1212 71.4749 83.025 71.4749C79.5177 71.4507 85.4001 69.6596 87.0806 69.3694C88.8341 69.0789 93.4741 69.3208 97.0547 70.3133Z" fill="url(#paint112_linear)"/>
<path id="Vector_115" d="M82.0386 71.2327C82.0386 71.2327 82.1483 71.2086 82.075 71.2569C81.4542 71.6442 77.216 73.6045 76.7774 74.0885C76.668 74.2096 77.3257 73.0721 77.3257 73.0721L82.0386 71.2327Z" fill="url(#paint113_linear)"/>
<path id="Vector_116" d="M95.1915 73.3868C95.1915 73.3868 90.8803 74.2821 86.5692 74.6694C83.6827 74.9355 80.7233 74.7419 79.4813 74.7419C75.5718 74.7419 82.1848 72.709 84.0848 72.3946C86.0577 72.0555 91.2091 72.2977 95.1915 73.3868Z" fill="url(#paint114_linear)"/>
<path id="Vector_117" d="M92.8897 78.832C92.8897 78.832 87.665 77.9365 83.573 77.5493C78.7872 77.0895 78.0562 76.9443 76.9604 76.6055C73.4894 75.5164 82.2212 74.9355 84.1212 75.2018C86.0577 75.4922 90.0765 76.8959 92.8897 78.832Z" fill="url(#paint115_linear)"/>
<path id="Vector_118" d="M78.2024 74.5242C78.2024 74.5242 78.4215 74.4515 78.3851 74.4756C78.0562 74.6694 76.0104 75.2501 75.8642 75.5406C75.8277 75.6133 76.1198 75.0082 76.1198 75.0082L78.2024 74.5242Z" fill="url(#paint116_linear)"/>
<path id="Vector_119" d="M76.5219 76.194C76.5219 76.194 76.668 76.1698 76.6312 76.1698C76.4486 76.2667 75.1333 76.3634 75.1333 76.5571C75.1333 76.6055 75.1333 76.2181 75.1333 76.2181L76.5219 76.194Z" fill="url(#paint117_linear)"/>
<path id="Vector_120" d="M91.5011 46.4752C91.5011 46.4752 90.1859 50.0327 90.4782 51.1459C90.4782 51.1459 92.1588 49.3065 91.5011 46.4752Z" fill="url(#paint118_linear)"/>
<path id="Vector_121" d="M88.615 46.9106C88.615 46.9106 89.0168 50.2262 89.7841 51.0249C90.1494 49.6211 89.7112 48.1449 88.615 46.9106Z" fill="url(#paint119_linear)"/>
<path id="Vector_122" d="M94.5703 46.1847C94.5703 46.1847 90.7341 49.4759 90.6977 51.0249C90.6609 51.0249 94.2415 50.0327 94.5703 46.1847Z" fill="url(#paint120_linear)"/>
<path id="Vector_123" d="M86.9709 47.9755C86.9709 47.9755 87.19 52.1623 87.2997 53.3724C87.3362 53.6629 87.373 53.7837 87.4824 53.8323C87.7383 53.9531 88.1036 53.1545 88.2862 52.598C88.5053 51.7993 88.615 49.3307 86.9709 47.9755Z" fill="url(#paint121_linear)"/>
<path id="Vector_124" d="M87.5553 53.7596C87.5553 53.7596 87.5553 53.7112 87.5553 53.7596C87.4824 54.1225 87.1535 56.3007 87.0074 56.6395C86.8247 57.0025 87.3726 56.1797 87.3726 56.1797L87.5553 53.7596Z" fill="url(#paint122_linear)"/>
<path id="Vector_125" d="M89.7841 50.9765L89.7477 50.9524C89.7841 51.3153 89.3824 52.6946 89.1997 53.0578C89.0167 53.4208 89.4188 52.7915 89.4188 52.7915L89.7841 50.9765Z" fill="url(#paint123_linear)"/>
<path id="Vector_126" d="M85.7289 49.3307C85.7289 49.3307 84.9251 54.5582 85.2539 55.8892C85.6921 57.5592 86.6785 54.897 86.7154 54.3646C86.7518 53.8323 87.19 50.8555 85.7289 49.3307Z" fill="url(#paint124_linear)"/>
<path id="Vector_127" d="M89.7841 50.9765L89.7477 50.9524C89.7841 51.3153 89.3824 52.6946 89.1997 53.0578C89.0167 53.4208 89.4188 52.7915 89.4188 52.7915L89.7841 50.9765Z" fill="url(#paint125_linear)"/>
<path id="Vector_128" d="M85.7289 56.2524C85.7289 56.2524 85.7289 56.2282 85.7289 56.2524C85.6556 56.6637 85.2539 59.0837 85.1077 59.4711C84.9251 59.8824 85.4365 58.9385 85.4365 58.9385L85.7289 56.2524Z" fill="url(#paint126_linear)"/>
<path id="Vector_129" d="M82.2945 50.6619C82.2945 50.6619 82.5869 56.9058 83.2077 58.382C84.0115 60.2456 84.7789 56.93 84.6692 56.3007C84.5594 55.6715 84.048 52.1381 82.2945 50.6619Z" fill="url(#paint127_linear)"/>
<path id="Vector_130" d="M83.7924 58.8902C83.7924 58.8902 83.7924 58.7691 83.756 58.8177C83.6827 59.2531 83.5365 61.7218 83.3539 62.1575C83.1712 62.6171 83.756 61.6735 83.756 61.6735L83.7924 58.8902Z" fill="url(#paint128_linear)"/>
<path id="Vector_131" d="M80.0292 53.0093C80.0292 53.0093 80.7601 59.6163 81.3809 61.1409C82.1483 63.1255 82.8424 59.35 82.733 58.2609C82.6233 57.1477 81.7466 54.5582 80.0292 53.0093Z" fill="url(#paint129_linear)"/>
<path id="Vector_132" d="M81.9292 61.6976C81.9292 61.6976 81.9292 61.5766 81.8924 61.6249C81.8195 62.0847 81.6368 64.7228 81.4177 65.1826C81.1983 65.6908 81.8195 64.6501 81.8195 64.6501L81.9292 61.6976Z" fill="url(#paint130_linear)"/>
<path id="Vector_133" d="M78.2389 55.7684C78.2389 55.7684 78.9698 62.3752 79.5906 63.8998C80.358 65.8844 81.0521 62.1089 80.9427 61.0198C80.833 59.9068 79.9195 57.3171 78.2389 55.7684Z" fill="url(#paint131_linear)"/>
<path id="Vector_134" d="M80.1021 64.4565C80.1021 64.4565 80.1021 64.3354 80.0656 64.384C79.9927 64.8436 79.7733 67.5542 79.5906 68.014C79.3715 68.5222 80.0656 67.3848 80.0656 67.3848L80.1021 64.4565Z" fill="url(#paint132_linear)"/>
<path id="Vector_135" d="M75.6816 57.9705C75.6816 57.9705 77.0333 64.9163 77.6545 66.4651C78.4219 68.4497 79.0427 64.1419 78.9333 63.0286C78.7872 61.9154 77.3621 59.4953 75.6816 57.9705Z" fill="url(#paint133_linear)"/>
<path id="Vector_136" d="M78.0198 66.9493C78.0198 66.9493 78.0198 66.8766 78.0198 66.9493C77.9101 67.5058 77.691 70.7245 77.4719 71.2813C77.2524 71.8861 78.0198 70.5552 78.0198 70.5552V66.9493Z" fill="url(#paint134_linear)"/>
<path id="Vector_137" d="M72.3933 60.681C72.7952 62.2783 73.3067 63.8756 73.9643 65.4487C74.6219 66.9493 75.6451 68.232 76.0104 68.8126C77.143 70.6521 76.7045 66.3926 76.4121 65.3276C76.0469 64.2144 74.3662 61.9395 72.3933 60.681Z" fill="url(#paint135_linear)"/>
<path id="Vector_138" d="M76.5219 69.2C76.5219 69.2 76.5219 69.1273 76.5219 69.2C76.4121 69.7565 76.1566 73.2415 75.9371 73.798C75.9007 73.9191 76.5583 72.8542 76.5583 72.8542L76.5219 69.2Z" fill="url(#paint136_linear)"/>
<path id="Vector_139" d="M70.4935 63.6095C70.9319 65.4004 71.5165 67.2154 72.2472 68.982C72.9779 70.6762 74.1105 72.1283 74.5124 72.7817C75.7909 74.8388 75.2795 70.0711 74.9143 68.861C74.5489 67.6027 72.6856 65.0374 70.4935 63.6095Z" fill="url(#paint137_linear)"/>
<path id="Vector_140" d="M66.84 68.3286C66.84 68.3286 69.2513 70.5068 70.8954 72.4429C72.8318 74.6936 73.1606 74.984 73.8182 75.347C75.8278 76.4844 73.4529 71.499 72.6125 70.6762C71.7722 69.8048 69.3244 68.5708 66.84 68.3286Z" fill="url(#paint138_linear)"/>
<path id="Vector_141" d="M75.1337 73.314C75.1337 73.2657 75.1337 73.2174 75.0969 73.193C75.0604 73.4834 75.243 74.9355 75.0604 75.2018C75.0239 75.2745 75.3892 74.7177 75.3892 74.7177L75.1337 73.314Z" fill="url(#paint139_linear)"/>
<path id="Vector_142" d="M74.2932 75.2745C74.2932 75.2745 74.2566 75.1776 74.2566 75.2018C74.2566 75.347 74.5855 76.1215 74.4393 76.2425C74.4028 76.2667 74.7316 76.0246 74.7316 76.0246L74.2932 75.2745Z" fill="url(#paint140_linear)"/>
</g>
</g>
<defs>
<linearGradient id="paint0_linear" x1="67.1636" y1="62.8843" x2="70.433" y2="50.393" gradientUnits="userSpaceOnUse">
<stop stop-color="#58CAEA"/>
<stop offset="1" stop-color="#4C4CBF"/>
</linearGradient>
<linearGradient id="paint1_linear" x1="47.9301" y1="54.6021" x2="58.6529" y2="54.4351" gradientUnits="userSpaceOnUse">
<stop stop-color="#58CAEA"/>
<stop offset="1" stop-color="#4C4CBF"/>
</linearGradient>
<linearGradient id="paint2_linear" x1="47.0679" y1="28.5961" x2="49.2282" y2="28.5625" gradientUnits="userSpaceOnUse">
<stop stop-color="#58CAEA"/>
<stop offset="1" stop-color="#4C4CBF"/>
</linearGradient>
<linearGradient id="paint3_linear" x1="48.9405" y1="29.7456" x2="54.3897" y2="29.6609" gradientUnits="userSpaceOnUse">
<stop stop-color="#58CAEA"/>
<stop offset="1" stop-color="#4C4CBF"/>
</linearGradient>
<linearGradient id="paint4_linear" x1="43.1115" y1="27.4856" x2="47.3779" y2="27.4193" gradientUnits="userSpaceOnUse">
<stop stop-color="#58CAEA"/>
<stop offset="1" stop-color="#4C4CBF"/>
</linearGradient>
<linearGradient id="paint5_linear" x1="50.5836" y1="33.5121" x2="56.7084" y2="33.4169" gradientUnits="userSpaceOnUse">
<stop stop-color="#58CAEA"/>
<stop offset="1" stop-color="#4C4CBF"/>
</linearGradient>
<linearGradient id="paint6_linear" x1="49.6578" y1="39.7386" x2="51.1933" y2="39.7148" gradientUnits="userSpaceOnUse">
<stop stop-color="#58CAEA"/>
<stop offset="1" stop-color="#4C4CBF"/>
</linearGradient>
<linearGradient id="paint7_linear" x1="48.2517" y1="34.0679" x2="49.0939" y2="34.0548" gradientUnits="userSpaceOnUse">
<stop stop-color="#58CAEA"/>
<stop offset="1" stop-color="#4C4CBF"/>
</linearGradient>
<linearGradient id="paint8_linear" x1="51.8852" y1="37.1412" x2="57.9956" y2="37.0462" gradientUnits="userSpaceOnUse">
<stop stop-color="#58CAEA"/>
<stop offset="1" stop-color="#4C4CBF"/>
</linearGradient>
<linearGradient id="paint9_linear" x1="48.2517" y1="34.0679" x2="49.0939" y2="34.0548" gradientUnits="userSpaceOnUse">
<stop stop-color="#58CAEA"/>
<stop offset="1" stop-color="#4C4CBF"/>
</linearGradient>
<linearGradient id="paint10_linear" x1="51.0571" y1="44.5029" x2="52.6943" y2="44.4775" gradientUnits="userSpaceOnUse">
<stop stop-color="#58CAEA"/>
<stop offset="1" stop-color="#4C4CBF"/>
</linearGradient>
<linearGradient id="paint11_linear" x1="53.7244" y1="41.3123" x2="63.4797" y2="41.1606" gradientUnits="userSpaceOnUse">
<stop stop-color="#58CAEA"/>
<stop offset="1" stop-color="#4C4CBF"/>
</linearGradient>
<linearGradient id="paint12_linear" x1="52.2756" y1="49.28" x2="54.4428" y2="49.2458" gradientUnits="userSpaceOnUse">
<stop stop-color="#58CAEA"/>
<stop offset="1" stop-color="#4C4CBF"/>
</linearGradient>
<linearGradient id="paint13_linear" x1="55.3532" y1="46.0712" x2="66.0174" y2="45.9053" gradientUnits="userSpaceOnUse">
<stop stop-color="#58CAEA"/>
<stop offset="1" stop-color="#4C4CBF"/>
</linearGradient>
<linearGradient id="paint14_linear" x1="53.6119" y1="54.4253" x2="55.8447" y2="54.3905" gradientUnits="userSpaceOnUse">
<stop stop-color="#58CAEA"/>
<stop offset="1" stop-color="#4C4CBF"/>
</linearGradient>
<linearGradient id="paint15_linear" x1="56.6611" y1="50.9545" x2="67.3253" y2="50.7891" gradientUnits="userSpaceOnUse">
<stop stop-color="#58CAEA"/>
<stop offset="1" stop-color="#4C4CBF"/>
</linearGradient>
<linearGradient id="paint16_linear" x1="54.8253" y1="59.3552" x2="57.1496" y2="59.3193" gradientUnits="userSpaceOnUse">
<stop stop-color="#58CAEA"/>
<stop offset="1" stop-color="#4C4CBF"/>
</linearGradient>
<linearGradient id="paint17_linear" x1="58.6304" y1="55.4905" x2="70.5128" y2="55.3055" gradientUnits="userSpaceOnUse">
<stop stop-color="#58CAEA"/>
<stop offset="1" stop-color="#4C4CBF"/>
</linearGradient>
<linearGradient id="paint18_linear" x1="56.2287" y1="64.6201" x2="59.1696" y2="64.5747" gradientUnits="userSpaceOnUse">
<stop stop-color="#58CAEA"/>
<stop offset="1" stop-color="#4C4CBF"/>
</linearGradient>
<linearGradient id="paint19_linear" x1="59.9871" y1="60.3313" x2="74.654" y2="60.1037" gradientUnits="userSpaceOnUse">
<stop stop-color="#58CAEA"/>
<stop offset="1" stop-color="#4C4CBF"/>
</linearGradient>
<linearGradient id="paint20_linear" x1="57.2853" y1="68.7069" x2="60.2937" y2="68.6604" gradientUnits="userSpaceOnUse">
<stop stop-color="#58CAEA"/>
<stop offset="1" stop-color="#4C4CBF"/>
</linearGradient>
<linearGradient id="paint21_linear" x1="59.5925" y1="66.1509" x2="75.9413" y2="65.8969" gradientUnits="userSpaceOnUse">
<stop stop-color="#58CAEA"/>
<stop offset="1" stop-color="#4C4CBF"/>
</linearGradient>
<linearGradient id="paint22_linear" x1="59.1593" y1="72.0149" x2="79.242" y2="71.7026" gradientUnits="userSpaceOnUse">
<stop stop-color="#58CAEA"/>
<stop offset="1" stop-color="#4C4CBF"/>
</linearGradient>
<linearGradient id="paint23_linear" x1="58.1315" y1="73.1916" x2="59.882" y2="73.1647" gradientUnits="userSpaceOnUse">
<stop stop-color="#58CAEA"/>
<stop offset="1" stop-color="#4C4CBF"/>
</linearGradient>
<linearGradient id="paint24_linear" x1="58.4193" y1="75.7283" x2="59.9052" y2="75.7048" gradientUnits="userSpaceOnUse">
<stop stop-color="#58CAEA"/>
<stop offset="1" stop-color="#4C4CBF"/>
</linearGradient>
<linearGradient id="paint25_linear" x1="44.0232" y1="30.1872" x2="47.7481" y2="30.1293" gradientUnits="userSpaceOnUse">
<stop stop-color="#58CAEA"/>
<stop offset="1" stop-color="#4C4CBF"/>
</linearGradient>
<linearGradient id="paint26_linear" x1="41.4952" y1="31.4656" x2="46.9201" y2="31.3812" gradientUnits="userSpaceOnUse">
<stop stop-color="#58CAEA"/>
<stop offset="1" stop-color="#4C4CBF"/>
</linearGradient>
<linearGradient id="paint27_linear" x1="46.7479" y1="28.9507" x2="48.7391" y2="28.9197" gradientUnits="userSpaceOnUse">
<stop stop-color="#58CAEA"/>
<stop offset="1" stop-color="#4C4CBF"/>
</linearGradient>
<linearGradient id="paint28_linear" x1="40.9498" y1="35.1602" x2="47.601" y2="35.0567" gradientUnits="userSpaceOnUse">
<stop stop-color="#58CAEA"/>
<stop offset="1" stop-color="#4C4CBF"/>
</linearGradient>
<linearGradient id="paint29_linear" x1="47.5444" y1="40.9305" x2="50.0223" y2="40.8919" gradientUnits="userSpaceOnUse">
<stop stop-color="#58CAEA"/>
<stop offset="1" stop-color="#4C4CBF"/>
</linearGradient>
<linearGradient id="paint30_linear" x1="46.906" y1="35.4234" x2="48.5842" y2="35.3973" gradientUnits="userSpaceOnUse">
<stop stop-color="#58CAEA"/>
<stop offset="1" stop-color="#4C4CBF"/>
</linearGradient>
<linearGradient id="paint31_linear" x1="41.1356" y1="38.7135" x2="48.4692" y2="38.5994" gradientUnits="userSpaceOnUse">
<stop stop-color="#58CAEA"/>
<stop offset="1" stop-color="#4C4CBF"/>
</linearGradient>
<linearGradient id="paint32_linear" x1="46.906" y1="35.4234" x2="48.5842" y2="35.3973" gradientUnits="userSpaceOnUse">
<stop stop-color="#58CAEA"/>
<stop offset="1" stop-color="#4C4CBF"/>
</linearGradient>
<linearGradient id="paint33_linear" x1="48.3278" y1="45.5636" x2="51.0767" y2="45.5209" gradientUnits="userSpaceOnUse">
<stop stop-color="#58CAEA"/>
<stop offset="1" stop-color="#4C4CBF"/>
</linearGradient>
<linearGradient id="paint34_linear" x1="39.0541" y1="42.8914" x2="49.1315" y2="42.7347" gradientUnits="userSpaceOnUse">
<stop stop-color="#58CAEA"/>
<stop offset="1" stop-color="#4C4CBF"/>
</linearGradient>
<linearGradient id="paint35_linear" x1="49.028" y1="50.2069" x2="52.1259" y2="50.1587" gradientUnits="userSpaceOnUse">
<stop stop-color="#58CAEA"/>
<stop offset="1" stop-color="#4C4CBF"/>
</linearGradient>
<linearGradient id="paint36_linear" x1="39.1824" y1="47.5436" x2="50.0612" y2="47.3743" gradientUnits="userSpaceOnUse">
<stop stop-color="#58CAEA"/>
<stop offset="1" stop-color="#4C4CBF"/>
</linearGradient>
<linearGradient id="paint37_linear" x1="50.0532" y1="55.184" x2="53.3301" y2="55.1329" gradientUnits="userSpaceOnUse">
<stop stop-color="#58CAEA"/>
<stop offset="1" stop-color="#4C4CBF"/>
</linearGradient>
<linearGradient id="paint38_linear" x1="40.2263" y1="52.2597" x2="51.1051" y2="52.0903" gradientUnits="userSpaceOnUse">
<stop stop-color="#58CAEA"/>
<stop offset="1" stop-color="#4C4CBF"/>
</linearGradient>
<linearGradient id="paint39_linear" x1="51.098" y1="59.9549" x2="54.4385" y2="59.9033" gradientUnits="userSpaceOnUse">
<stop stop-color="#58CAEA"/>
<stop offset="1" stop-color="#4C4CBF"/>
</linearGradient>
<linearGradient id="paint40_linear" x1="39.9037" y1="56.722" x2="51.6534" y2="56.5392" gradientUnits="userSpaceOnUse">
<stop stop-color="#58CAEA"/>
<stop offset="1" stop-color="#4C4CBF"/>
</linearGradient>
<linearGradient id="paint41_linear" x1="51.6337" y1="65.086" x2="55.7255" y2="65.0221" gradientUnits="userSpaceOnUse">
<stop stop-color="#58CAEA"/>
<stop offset="1" stop-color="#4C4CBF"/>
</linearGradient>
<linearGradient id="paint42_linear" x1="39.3992" y1="61.4852" x2="52.4562" y2="61.2817" gradientUnits="userSpaceOnUse">
<stop stop-color="#58CAEA"/>
<stop offset="1" stop-color="#4C4CBF"/>
</linearGradient>
<linearGradient id="paint43_linear" x1="52.4657" y1="69.0385" x2="56.6284" y2="68.974" gradientUnits="userSpaceOnUse">
<stop stop-color="#58CAEA"/>
<stop offset="1" stop-color="#4C4CBF"/>
</linearGradient>
<linearGradient id="paint44_linear" x1="40.5503" y1="67.0869" x2="55.1706" y2="66.8593" gradientUnits="userSpaceOnUse">
<stop stop-color="#58CAEA"/>
<stop offset="1" stop-color="#4C4CBF"/>
</linearGradient>
<linearGradient id="paint45_linear" x1="41.7" y1="72.6079" x2="56.8468" y2="72.3724" gradientUnits="userSpaceOnUse">
<stop stop-color="#58CAEA"/>
<stop offset="1" stop-color="#4C4CBF"/>
</linearGradient>
<linearGradient id="paint46_linear" x1="55.1891" y1="73.3147" x2="57.2074" y2="73.2833" gradientUnits="userSpaceOnUse">
<stop stop-color="#58CAEA"/>
<stop offset="1" stop-color="#4C4CBF"/>
</linearGradient>
<linearGradient id="paint47_linear" x1="56.4373" y1="75.765" x2="57.7391" y2="75.7448" gradientUnits="userSpaceOnUse">
<stop stop-color="#58CAEA"/>
<stop offset="1" stop-color="#4C4CBF"/>
</linearGradient>
<linearGradient id="paint48_linear" x1="59.9534" y1="40.9787" x2="61.2104" y2="40.1447" gradientUnits="userSpaceOnUse">
<stop stop-color="#58CAEA"/>
<stop offset="1" stop-color="#4C4CBF"/>
</linearGradient>
<linearGradient id="paint49_linear" x1="56.4426" y1="43.0219" x2="59.813" y2="40.786" gradientUnits="userSpaceOnUse">
<stop stop-color="#58CAEA"/>
<stop offset="1" stop-color="#4C4CBF"/>
</linearGradient>
<linearGradient id="paint50_linear" x1="60.6315" y1="39.8126" x2="63.5462" y2="37.879" gradientUnits="userSpaceOnUse">
<stop stop-color="#58CAEA"/>
<stop offset="1" stop-color="#4C4CBF"/>
</linearGradient>
<linearGradient id="paint51_linear" x1="56.3614" y1="46.2165" x2="60.1336" y2="43.714" gradientUnits="userSpaceOnUse">
<stop stop-color="#58CAEA"/>
<stop offset="1" stop-color="#4C4CBF"/>
</linearGradient>
<linearGradient id="paint52_linear" x1="63.3398" y1="49.3688" x2="64.229" y2="48.7791" gradientUnits="userSpaceOnUse">
<stop stop-color="#58CAEA"/>
<stop offset="1" stop-color="#4C4CBF"/>
</linearGradient>
<linearGradient id="paint53_linear" x1="62.4317" y1="44.8589" x2="62.8946" y2="44.5518" gradientUnits="userSpaceOnUse">
<stop stop-color="#58CAEA"/>
<stop offset="1" stop-color="#4C4CBF"/>
</linearGradient>
<linearGradient id="paint54_linear" x1="57.0234" y1="49.1034" x2="60.7383" y2="46.6391" gradientUnits="userSpaceOnUse">
<stop stop-color="#58CAEA"/>
<stop offset="1" stop-color="#4C4CBF"/>
</linearGradient>
<linearGradient id="paint55_linear" x1="62.4317" y1="44.8589" x2="62.8946" y2="44.5518" gradientUnits="userSpaceOnUse">
<stop stop-color="#58CAEA"/>
<stop offset="1" stop-color="#4C4CBF"/>
</linearGradient>
<linearGradient id="paint56_linear" x1="64.3074" y1="53.108" x2="65.2517" y2="52.4815" gradientUnits="userSpaceOnUse">
<stop stop-color="#58CAEA"/>
<stop offset="1" stop-color="#4C4CBF"/>
</linearGradient>
<linearGradient id="paint57_linear" x1="54.6398" y1="53.3385" x2="60.6688" y2="49.3386" gradientUnits="userSpaceOnUse">
<stop stop-color="#58CAEA"/>
<stop offset="1" stop-color="#4C4CBF"/>
</linearGradient>
<linearGradient id="paint58_linear" x1="65.086" y1="56.9186" x2="66.3679" y2="56.0679" gradientUnits="userSpaceOnUse">
<stop stop-color="#58CAEA"/>
<stop offset="1" stop-color="#4C4CBF"/>
</linearGradient>
<linearGradient id="paint59_linear" x1="54.7983" y1="57.3052" x2="61.3932" y2="52.9305" gradientUnits="userSpaceOnUse">
<stop stop-color="#58CAEA"/>
<stop offset="1" stop-color="#4C4CBF"/>
</linearGradient>
<linearGradient id="paint60_linear" x1="66.2878" y1="60.8936" x2="67.605" y2="60.0195" gradientUnits="userSpaceOnUse">
<stop stop-color="#58CAEA"/>
<stop offset="1" stop-color="#4C4CBF"/>
</linearGradient>
<linearGradient id="paint61_linear" x1="55.9587" y1="61.0812" x2="62.5533" y2="56.7061" gradientUnits="userSpaceOnUse">
<stop stop-color="#58CAEA"/>
<stop offset="1" stop-color="#4C4CBF"/>
</linearGradient>
<linearGradient id="paint62_linear" x1="67.4684" y1="64.6986" x2="68.846" y2="63.7848" gradientUnits="userSpaceOnUse">
<stop stop-color="#58CAEA"/>
<stop offset="1" stop-color="#4C4CBF"/>
</linearGradient>
<linearGradient id="paint63_linear" x1="55.5083" y1="65.0488" x2="62.8783" y2="60.1598" gradientUnits="userSpaceOnUse">
<stop stop-color="#58CAEA"/>
<stop offset="1" stop-color="#4C4CBF"/>
</linearGradient>
<linearGradient id="paint64_linear" x1="68.2669" y1="68.9142" x2="70.0196" y2="67.7517" gradientUnits="userSpaceOnUse">
<stop stop-color="#58CAEA"/>
<stop offset="1" stop-color="#4C4CBF"/>
</linearGradient>
<linearGradient id="paint65_linear" x1="54.4239" y1="69.4542" x2="63.6197" y2="63.3537" gradientUnits="userSpaceOnUse">
<stop stop-color="#58CAEA"/>
<stop offset="1" stop-color="#4C4CBF"/>
</linearGradient>
<linearGradient id="paint66_linear" x1="69.2137" y1="72.0748" x2="71.0066" y2="70.8853" gradientUnits="userSpaceOnUse">
<stop stop-color="#58CAEA"/>
<stop offset="1" stop-color="#4C4CBF"/>
</linearGradient>
<linearGradient id="paint67_linear" x1="56.0187" y1="73.8847" x2="66.2678" y2="67.0854" gradientUnits="userSpaceOnUse">
<stop stop-color="#58CAEA"/>
<stop offset="1" stop-color="#4C4CBF"/>
</linearGradient>
<linearGradient id="paint68_linear" x1="55.9479" y1="78.7983" x2="68.7511" y2="70.3049" gradientUnits="userSpaceOnUse">
<stop stop-color="#58CAEA"/>
<stop offset="1" stop-color="#4C4CBF"/>
</linearGradient>
<linearGradient id="paint69_linear" x1="71.4589" y1="75.1887" x2="72.5317" y2="74.4771" gradientUnits="userSpaceOnUse">
<stop stop-color="#58CAEA"/>
<stop offset="1" stop-color="#4C4CBF"/>
</linearGradient>
<linearGradient id="paint70_linear" x1="72.5461" y1="77.0089" x2="73.4778" y2="76.391" gradientUnits="userSpaceOnUse">
<stop stop-color="#58CAEA"/>
<stop offset="1" stop-color="#4C4CBF"/>
</linearGradient>
<linearGradient id="paint71_linear" x1="61.5503" y1="41.8093" x2="64.1522" y2="40.0832" gradientUnits="userSpaceOnUse">
<stop stop-color="#58CAEA"/>
<stop offset="1" stop-color="#4C4CBF"/>
</linearGradient>
<linearGradient id="paint72_linear" x1="62.779" y1="42.4896" x2="66.4234" y2="40.0719" gradientUnits="userSpaceOnUse">
<stop stop-color="#58CAEA"/>
<stop offset="1" stop-color="#4C4CBF"/>
</linearGradient>
<linearGradient id="paint73_linear" x1="60.3239" y1="41.1653" x2="61.7164" y2="40.2415" gradientUnits="userSpaceOnUse">
<stop stop-color="#58CAEA"/>
<stop offset="1" stop-color="#4C4CBF"/>
</linearGradient>
<linearGradient id="paint74_linear" x1="63.8657" y1="45.2831" x2="68.3673" y2="42.2968" gradientUnits="userSpaceOnUse">
<stop stop-color="#58CAEA"/>
<stop offset="1" stop-color="#4C4CBF"/>
</linearGradient>
<linearGradient id="paint75_linear" x1="64.6145" y1="49.9753" x2="66.3389" y2="48.8313" gradientUnits="userSpaceOnUse">
<stop stop-color="#58CAEA"/>
<stop offset="1" stop-color="#4C4CBF"/>
</linearGradient>
<linearGradient id="paint76_linear" x1="63.3046" y1="45.726" x2="64.4825" y2="44.9445" gradientUnits="userSpaceOnUse">
<stop stop-color="#58CAEA"/>
<stop offset="1" stop-color="#4C4CBF"/>
</linearGradient>
<linearGradient id="paint77_linear" x1="64.7222" y1="48.0069" x2="69.7195" y2="44.6919" gradientUnits="userSpaceOnUse">
<stop stop-color="#58CAEA"/>
<stop offset="1" stop-color="#4C4CBF"/>
</linearGradient>
<linearGradient id="paint78_linear" x1="63.3046" y1="45.726" x2="64.4825" y2="44.9445" gradientUnits="userSpaceOnUse">
<stop stop-color="#58CAEA"/>
<stop offset="1" stop-color="#4C4CBF"/>
</linearGradient>
<linearGradient id="paint79_linear" x1="65.8462" y1="53.5095" x2="67.7608" y2="52.2398" gradientUnits="userSpaceOnUse">
<stop stop-color="#58CAEA"/>
<stop offset="1" stop-color="#4C4CBF"/>
</linearGradient>
<linearGradient id="paint80_linear" x1="66.0399" y1="51.1039" x2="72.8341" y2="46.5966" gradientUnits="userSpaceOnUse">
<stop stop-color="#58CAEA"/>
<stop offset="1" stop-color="#4C4CBF"/>
</linearGradient>
<linearGradient id="paint81_linear" x1="67.0913" y1="57.0461" x2="69.2323" y2="55.6259" gradientUnits="userSpaceOnUse">
<stop stop-color="#58CAEA"/>
<stop offset="1" stop-color="#4C4CBF"/>
</linearGradient>
<linearGradient id="paint82_linear" x1="67.3763" y1="54.6216" x2="74.7008" y2="49.763" gradientUnits="userSpaceOnUse">
<stop stop-color="#58CAEA"/>
<stop offset="1" stop-color="#4C4CBF"/>
</linearGradient>
<linearGradient id="paint83_linear" x1="68.3749" y1="60.8748" x2="70.6403" y2="59.3722" gradientUnits="userSpaceOnUse">
<stop stop-color="#58CAEA"/>
<stop offset="1" stop-color="#4C4CBF"/>
</linearGradient>
<linearGradient id="paint84_linear" x1="68.6646" y1="58.2235" x2="75.9888" y2="53.3646" gradientUnits="userSpaceOnUse">
<stop stop-color="#58CAEA"/>
<stop offset="1" stop-color="#4C4CBF"/>
</linearGradient>
<linearGradient id="paint85_linear" x1="69.628" y1="64.5181" x2="71.9379" y2="62.986" gradientUnits="userSpaceOnUse">
<stop stop-color="#58CAEA"/>
<stop offset="1" stop-color="#4C4CBF"/>
</linearGradient>
<linearGradient id="paint86_linear" x1="70.2212" y1="61.5078" x2="78.1082" y2="56.2751" gradientUnits="userSpaceOnUse">
<stop stop-color="#58CAEA"/>
<stop offset="1" stop-color="#4C4CBF"/>
</linearGradient>
<linearGradient id="paint87_linear" x1="70.8883" y1="68.4615" x2="73.7111" y2="66.5892" gradientUnits="userSpaceOnUse">
<stop stop-color="#58CAEA"/>
<stop offset="1" stop-color="#4C4CBF"/>
</linearGradient>
<linearGradient id="paint88_linear" x1="71.715" y1="65.0655" x2="80.4144" y2="59.2946" gradientUnits="userSpaceOnUse">
<stop stop-color="#58CAEA"/>
<stop offset="1" stop-color="#4C4CBF"/>
</linearGradient>
<linearGradient id="paint89_linear" x1="71.9433" y1="71.4872" x2="74.8226" y2="69.5775" gradientUnits="userSpaceOnUse">
<stop stop-color="#58CAEA"/>
<stop offset="1" stop-color="#4C4CBF"/>
</linearGradient>
<linearGradient id="paint90_linear" x1="72.0822" y1="69.6724" x2="81.8153" y2="63.2152" gradientUnits="userSpaceOnUse">
<stop stop-color="#58CAEA"/>
<stop offset="1" stop-color="#4C4CBF"/>
</linearGradient>
<linearGradient id="paint91_linear" x1="73.3107" y1="73.9918" x2="83.2567" y2="67.394" gradientUnits="userSpaceOnUse">
<stop stop-color="#58CAEA"/>
<stop offset="1" stop-color="#4C4CBF"/>
</linearGradient>
<linearGradient id="paint92_linear" x1="73.4796" y1="74.6666" x2="74.862" y2="73.7496" gradientUnits="userSpaceOnUse">
<stop stop-color="#58CAEA"/>
<stop offset="1" stop-color="#4C4CBF"/>
</linearGradient>
<linearGradient id="paint93_linear" x1="74.1995" y1="76.5232" x2="75.0647" y2="75.9495" gradientUnits="userSpaceOnUse">
<stop stop-color="#58CAEA"/>
<stop offset="1" stop-color="#4C4CBF"/>
</linearGradient>
<linearGradient id="paint94_linear" x1="79.3863" y1="62.0313" x2="84.615" y2="67.2439" gradientUnits="userSpaceOnUse">
<stop stop-color="#58CAEA"/>
<stop offset="1" stop-color="#4C4CBF"/>
</linearGradient>
<linearGradient id="paint95_linear" x1="92.6103" y1="48.3338" x2="93.6636" y2="49.384" gradientUnits="userSpaceOnUse">
<stop stop-color="#58CAEA"/>
<stop offset="1" stop-color="#4C4CBF"/>
</linearGradient>
<linearGradient id="paint96_linear" x1="93.2561" y1="49.4996" x2="95.9111" y2="52.1466" gradientUnits="userSpaceOnUse">
<stop stop-color="#58CAEA"/>
<stop offset="1" stop-color="#4C4CBF"/>
</linearGradient>
<linearGradient id="paint97_linear" x1="90.5317" y1="46.5809" x2="92.6124" y2="48.6553" gradientUnits="userSpaceOnUse">
<stop stop-color="#58CAEA"/>
<stop offset="1" stop-color="#4C4CBF"/>
</linearGradient>
<linearGradient id="paint98_linear" x1="92.3624" y1="51.9322" x2="95.3501" y2="54.9105" gradientUnits="userSpaceOnUse">
<stop stop-color="#58CAEA"/>
<stop offset="1" stop-color="#4C4CBF"/>
</linearGradient>
<linearGradient id="paint99_linear" x1="88.4526" y1="54.8626" x2="89.2018" y2="55.6094" gradientUnits="userSpaceOnUse">
<stop stop-color="#58CAEA"/>
<stop offset="1" stop-color="#4C4CBF"/>
</linearGradient>
<linearGradient id="paint100_linear" x1="90.5028" y1="51.5205" x2="90.9122" y2="51.9287" gradientUnits="userSpaceOnUse">
<stop stop-color="#58CAEA"/>
<stop offset="1" stop-color="#4C4CBF"/>
</linearGradient>
<linearGradient id="paint101_linear" x1="91.32" y1="54.2029" x2="94.2978" y2="57.1718" gradientUnits="userSpaceOnUse">
<stop stop-color="#58CAEA"/>
<stop offset="1" stop-color="#4C4CBF"/>
</linearGradient>
<linearGradient id="paint102_linear" x1="90.5028" y1="51.5205" x2="90.9122" y2="51.9287" gradientUnits="userSpaceOnUse">
<stop stop-color="#58CAEA"/>
<stop offset="1" stop-color="#4C4CBF"/>
</linearGradient>
<linearGradient id="paint103_linear" x1="86.855" y1="57.7549" x2="87.6537" y2="58.5512" gradientUnits="userSpaceOnUse">
<stop stop-color="#58CAEA"/>
<stop offset="1" stop-color="#4C4CBF"/>
</linearGradient>
<linearGradient id="paint104_linear" x1="90.3425" y1="56.9018" x2="95.1011" y2="61.6459" gradientUnits="userSpaceOnUse">
<stop stop-color="#58CAEA"/>
<stop offset="1" stop-color="#4C4CBF"/>
</linearGradient>
<linearGradient id="paint105_linear" x1="85.1449" y1="60.5876" x2="86.2002" y2="61.6397" gradientUnits="userSpaceOnUse">
<stop stop-color="#58CAEA"/>
<stop offset="1" stop-color="#4C4CBF"/>
</linearGradient>
<linearGradient id="paint106_linear" x1="88.9135" y1="59.8519" x2="94.1177" y2="65.0406" gradientUnits="userSpaceOnUse">
<stop stop-color="#58CAEA"/>
<stop offset="1" stop-color="#4C4CBF"/>
</linearGradient>
<linearGradient id="paint107_linear" x1="83.3192" y1="63.6442" x2="84.4065" y2="64.7281" gradientUnits="userSpaceOnUse">
<stop stop-color="#58CAEA"/>
<stop offset="1" stop-color="#4C4CBF"/>
</linearGradient>
<linearGradient id="paint108_linear" x1="87.2192" y1="62.7635" x2="92.4235" y2="67.9521" gradientUnits="userSpaceOnUse">
<stop stop-color="#58CAEA"/>
<stop offset="1" stop-color="#4C4CBF"/>
</linearGradient>
<linearGradient id="paint109_linear" x1="81.5278" y1="66.5494" x2="82.6616" y2="67.6797" gradientUnits="userSpaceOnUse">
<stop stop-color="#58CAEA"/>
<stop offset="1" stop-color="#4C4CBF"/>
</linearGradient>
<linearGradient id="paint110_linear" x1="86.1443" y1="65.6985" x2="91.9379" y2="71.4741" gradientUnits="userSpaceOnUse">
<stop stop-color="#58CAEA"/>
<stop offset="1" stop-color="#4C4CBF"/>
</linearGradient>
<linearGradient id="paint111_linear" x1="79.6776" y1="69.6975" x2="81.1114" y2="71.1271" gradientUnits="userSpaceOnUse">
<stop stop-color="#58CAEA"/>
<stop offset="1" stop-color="#4C4CBF"/>
</linearGradient>
<linearGradient id="paint112_linear" x1="84.4804" y1="68.5982" x2="91.6387" y2="75.7347" gradientUnits="userSpaceOnUse">
<stop stop-color="#58CAEA"/>
<stop offset="1" stop-color="#4C4CBF"/>
</linearGradient>
<linearGradient id="paint113_linear" x1="78.2187" y1="72.1236" x2="79.6848" y2="73.5851" gradientUnits="userSpaceOnUse">
<stop stop-color="#58CAEA"/>
<stop offset="1" stop-color="#4C4CBF"/>
</linearGradient>
<linearGradient id="paint114_linear" x1="81.1427" y1="71.5051" x2="89.1128" y2="79.4502" gradientUnits="userSpaceOnUse">
<stop stop-color="#58CAEA"/>
<stop offset="1" stop-color="#4C4CBF"/>
</linearGradient>
<linearGradient id="paint115_linear" x1="77.7473" y1="74.3962" x2="87.5383" y2="84.1571" gradientUnits="userSpaceOnUse">
<stop stop-color="#58CAEA"/>
<stop offset="1" stop-color="#4C4CBF"/>
</linearGradient>
<linearGradient id="paint116_linear" x1="76.4157" y1="74.6906" x2="77.2708" y2="75.5427" gradientUnits="userSpaceOnUse">
<stop stop-color="#58CAEA"/>
<stop offset="1" stop-color="#4C4CBF"/>
</linearGradient>
<linearGradient id="paint117_linear" x1="75.2546" y1="76.0999" x2="75.9791" y2="76.8224" gradientUnits="userSpaceOnUse">
<stop stop-color="#58CAEA"/>
<stop offset="1" stop-color="#4C4CBF"/>
</linearGradient>
<linearGradient id="paint118_linear" x1="89.7058" y1="48.2544" x2="91.524" y2="50.0672" gradientUnits="userSpaceOnUse">
<stop stop-color="#58CAEA"/>
<stop offset="1" stop-color="#4C4CBF"/>
</linearGradient>
<linearGradient id="paint119_linear" x1="87.3254" y1="48.1586" x2="89.9708" y2="50.7958" gradientUnits="userSpaceOnUse">
<stop stop-color="#58CAEA"/>
<stop offset="1" stop-color="#4C4CBF"/>
</linearGradient>
<linearGradient id="paint120_linear" x1="92.2039" y1="48.4252" x2="93.1757" y2="49.3939" gradientUnits="userSpaceOnUse">
<stop stop-color="#58CAEA"/>
<stop offset="1" stop-color="#4C4CBF"/>
</linearGradient>
<linearGradient id="paint121_linear" x1="84.9951" y1="49.9074" x2="88.2407" y2="53.1429" gradientUnits="userSpaceOnUse">
<stop stop-color="#58CAEA"/>
<stop offset="1" stop-color="#4C4CBF"/>
</linearGradient>
<linearGradient id="paint122_linear" x1="86.3916" y1="54.8498" x2="87.5997" y2="56.0544" gradientUnits="userSpaceOnUse">
<stop stop-color="#58CAEA"/>
<stop offset="1" stop-color="#4C4CBF"/>
</linearGradient>
<linearGradient id="paint123_linear" x1="88.8738" y1="51.8193" x2="89.6928" y2="52.6357" gradientUnits="userSpaceOnUse">
<stop stop-color="#58CAEA"/>
<stop offset="1" stop-color="#4C4CBF"/>
</linearGradient>
<linearGradient id="paint124_linear" x1="83.2409" y1="51.7977" x2="86.818" y2="55.3636" gradientUnits="userSpaceOnUse">
<stop stop-color="#58CAEA"/>
<stop offset="1" stop-color="#4C4CBF"/>
</linearGradient>
<linearGradient id="paint125_linear" x1="88.8738" y1="51.8193" x2="89.6928" y2="52.6357" gradientUnits="userSpaceOnUse">
<stop stop-color="#58CAEA"/>
<stop offset="1" stop-color="#4C4CBF"/>
</linearGradient>
<linearGradient id="paint126_linear" x1="84.4587" y1="57.4821" x2="85.7997" y2="58.8186" gradientUnits="userSpaceOnUse">
<stop stop-color="#58CAEA"/>
<stop offset="1" stop-color="#4C4CBF"/>
</linearGradient>
<linearGradient id="paint127_linear" x1="79.6336" y1="53.332" x2="84.5495" y2="58.2326" gradientUnits="userSpaceOnUse">
<stop stop-color="#58CAEA"/>
<stop offset="1" stop-color="#4C4CBF"/>
</linearGradient>
<linearGradient id="paint128_linear" x1="82.4724" y1="60.0871" x2="83.9839" y2="61.5936" gradientUnits="userSpaceOnUse">
<stop stop-color="#58CAEA"/>
<stop offset="1" stop-color="#4C4CBF"/>
</linearGradient>
<linearGradient id="paint129_linear" x1="77.26" y1="55.7649" x2="82.5671" y2="61.0557" gradientUnits="userSpaceOnUse">
<stop stop-color="#58CAEA"/>
<stop offset="1" stop-color="#4C4CBF"/>
</linearGradient>
<linearGradient id="paint130_linear" x1="80.5215" y1="62.9684" x2="82.1195" y2="64.5614" gradientUnits="userSpaceOnUse">
<stop stop-color="#58CAEA"/>
<stop offset="1" stop-color="#4C4CBF"/>
</linearGradient>
<linearGradient id="paint131_linear" x1="75.4535" y1="58.5217" x2="80.761" y2="63.8126" gradientUnits="userSpaceOnUse">
<stop stop-color="#58CAEA"/>
<stop offset="1" stop-color="#4C4CBF"/>
</linearGradient>
<linearGradient id="paint132_linear" x1="78.6962" y1="65.7461" x2="80.3252" y2="67.3698" gradientUnits="userSpaceOnUse">
<stop stop-color="#58CAEA"/>
<stop offset="1" stop-color="#4C4CBF"/>
</linearGradient>
<linearGradient id="paint133_linear" x1="72.881" y1="60.7326" x2="78.608" y2="66.4416" gradientUnits="userSpaceOnUse">
<stop stop-color="#58CAEA"/>
<stop offset="1" stop-color="#4C4CBF"/>
</linearGradient>
<linearGradient id="paint134_linear" x1="76.3364" y1="68.5598" x2="78.3305" y2="70.5478" gradientUnits="userSpaceOnUse">
<stop stop-color="#58CAEA"/>
<stop offset="1" stop-color="#4C4CBF"/>
</linearGradient>
<linearGradient id="paint135_linear" x1="70.0163" y1="63.0335" x2="76.3894" y2="69.3871" gradientUnits="userSpaceOnUse">
<stop stop-color="#58CAEA"/>
<stop offset="1" stop-color="#4C4CBF"/>
</linearGradient>
<linearGradient id="paint136_linear" x1="74.8005" y1="70.8498" x2="76.8314" y2="72.8746" gradientUnits="userSpaceOnUse">
<stop stop-color="#58CAEA"/>
<stop offset="1" stop-color="#4C4CBF"/>
</linearGradient>
<linearGradient id="paint137_linear" x1="67.8259" y1="66.2789" x2="74.9614" y2="73.3922" gradientUnits="userSpaceOnUse">
<stop stop-color="#58CAEA"/>
<stop offset="1" stop-color="#4C4CBF"/>
</linearGradient>
<linearGradient id="paint138_linear" x1="65.6602" y1="69.4742" x2="73.0515" y2="76.8427" gradientUnits="userSpaceOnUse">
<stop stop-color="#58CAEA"/>
<stop offset="1" stop-color="#4C4CBF"/>
</linearGradient>
<linearGradient id="paint139_linear" x1="74.3664" y1="73.8766" x2="75.3509" y2="74.858" gradientUnits="userSpaceOnUse">
<stop stop-color="#58CAEA"/>
<stop offset="1" stop-color="#4C4CBF"/>
</linearGradient>
<linearGradient id="paint140_linear" x1="73.9008" y1="75.5238" x2="74.5355" y2="76.1564" gradientUnits="userSpaceOnUse">
<stop stop-color="#58CAEA"/>
<stop offset="1" stop-color="#4C4CBF"/>
</linearGradient>
<clipPath id="clip0">
<rect width="100" height="50" fill="white"/>
</clipPath>
</defs>
</svg>
