<svg width="20" height="50" viewBox="0 0 20 50" fill="none" xmlns="http://www.w3.org/2000/svg">
<g id="thermometer">
<path id="Vector" d="M8.28176 0.179962C6.69309 0.648712 5.26712 1.82059 4.5302 3.2659C3.78372 4.74051 3.83157 3.66629 3.83157 18.5393C3.83157 25.8538 3.79329 31.8304 3.75501 31.8304C3.61145 31.8304 2.18548 33.3636 1.75481 33.9886C1.19017 34.7991 0.654228 35.9514 0.328838 37.055C-0.0156933 38.2366 -0.111396 40.5413 0.147002 41.8011C0.539385 43.8225 1.38157 45.4241 2.82669 46.928C4.19524 48.344 5.38196 49.0862 7.24817 49.6721C8.04251 49.9163 8.2052 49.9358 9.95657 49.9358C11.7175 49.9358 11.8706 49.9163 12.6745 49.6721C16.139 48.5784 18.5507 46.1175 19.5843 42.6116C19.948 41.3811 20.015 39.1546 19.7374 37.7874C19.3259 35.7464 18.5029 34.1936 17.0195 32.6604L16.0816 31.6839V18.471C16.0816 3.67606 16.1294 4.74051 15.3829 3.2659C14.6364 1.79129 13.1243 0.570587 11.5261 0.150665C10.7222 -0.0641785 9.04739 -0.0446472 8.28176 0.179962ZM10.8275 1.65457C11.995 1.87918 13.2392 2.77762 13.8804 3.8616C14.579 5.04324 14.5407 4.16434 14.5407 19.096C14.5503 31.7132 14.5599 32.5042 14.7226 32.6897C14.8087 32.7971 15.1532 33.1096 15.4882 33.3929C17.3544 34.9456 18.5316 37.8557 18.3402 40.4143C18.0626 44.2034 15.5743 47.2112 11.9089 48.1975C11.4208 48.3245 10.904 48.3733 9.90872 48.3733C8.73157 48.3636 8.4636 48.3343 7.70755 48.0999C4.82688 47.2014 2.73099 45.0725 1.86009 42.1331C1.6304 41.3616 1.60169 41.0882 1.59212 39.887C1.59212 38.8518 1.6304 38.3538 1.76438 37.846C2.29075 35.8343 3.21907 34.3987 4.96087 32.8948L5.36282 32.5432V25.2483V17.9632H6.272C7.11419 17.9632 7.20989 17.9436 7.42044 17.719C7.57356 17.5725 7.65969 17.3675 7.65969 17.1819C7.65969 16.9964 7.57356 16.7913 7.42044 16.6448C7.20989 16.4202 7.11419 16.4007 6.272 16.4007H5.36282V15.6194V14.8382H7.03762C8.69329 14.8382 8.722 14.8382 8.95169 14.594C9.26751 14.2815 9.26751 13.8323 8.95169 13.5198C8.722 13.2757 8.69329 13.2757 7.03762 13.2757H5.36282V12.4944V11.7132H6.272C7.11419 11.7132 7.20989 11.6936 7.42044 11.469C7.73626 11.1565 7.73626 10.7073 7.42044 10.3948C7.20989 10.1702 7.11419 10.1507 6.272 10.1507H5.36282V9.36942V8.58817H7.03762C8.69329 8.58817 8.722 8.58817 8.95169 8.34402C9.26751 8.03152 9.26751 7.58231 8.95169 7.26981C8.722 7.02567 8.69329 7.02567 7.03762 7.02567H5.36282V6.44949C5.36282 5.02371 5.87005 3.76395 6.80794 2.88504C7.95637 1.79129 9.34407 1.37137 10.8275 1.65457Z" fill="url(#paint0_linear)"/>
<path id="inner-tube" d="M9.21007 19.6526C9.02824 19.7112 8.6837 19.9456 8.42531 20.18C7.63097 20.9124 7.65968 20.5706 7.65968 28.2073V34.9065L7.20988 35.1507C6.22413 35.678 5.2671 36.9378 4.82687 38.2757C4.5589 39.096 4.57804 40.6585 4.86515 41.5179C5.57335 43.6077 7.42999 45.1019 9.52589 45.2776C13.0478 45.5706 15.9189 42.2601 15.2107 38.7444C15.1532 38.4612 14.9331 37.8558 14.7226 37.4163C14.2919 36.4788 13.4689 35.5608 12.7128 35.1507L12.2534 34.9065V28.2171C12.2534 23.7347 12.2151 21.4007 12.1482 21.1468C12.0046 20.6097 11.2964 19.8675 10.7509 19.6819C10.2532 19.5062 9.67902 19.4964 9.21007 19.6526ZM9.68859 36.0979C10.3011 36.5765 10.9423 37.4456 11.2007 38.1585C11.3347 38.5003 11.4304 39.0374 11.4591 39.5452C11.5452 40.9808 11.105 42.1722 10.1193 43.178C9.65988 43.6468 9.6216 43.6663 9.21964 43.6077C8.588 43.5198 7.80324 43.0999 7.28644 42.5726C5.42023 40.6683 5.97531 37.4944 8.38702 36.3226C8.73156 36.1468 9.03781 35.9515 9.06652 35.8733C9.13351 35.678 9.16222 35.6878 9.68859 36.0979Z" fill="url(#paint1_linear)"/>
</g>
<defs>
<linearGradient id="paint0_linear" x1="11" y1="3.00003" x2="8.5" y2="49" gradientUnits="userSpaceOnUse">
<stop stop-color="#3D00E1"/>
<stop offset="1" stop-color="#0AAFF5"/>
</linearGradient>
<linearGradient id="paint1_linear" x1="9.99999" y1="22.5" x2="9.99999" y2="42.5" gradientUnits="userSpaceOnUse">
<stop stop-color="#481BB5"/>
<stop offset="1" stop-color="#07B7F8"/>
</linearGradient>
</defs>
</svg>
