<svg width="20" height="50" viewBox="0 0 20 50" fill="none" xmlns="http://www.w3.org/2000/svg">
<path d="M8.28176 0.244141C6.69309 0.712891 5.26712 1.88477 4.5302 3.33008C3.78372 4.80469 3.83157 3.73047 3.83157 18.6035C3.83157 25.918 3.79329 31.8945 3.75501 31.8945C3.61145 31.8945 2.18548 33.4277 1.75481 34.0527C1.19017 34.8633 0.654228 36.0156 0.328838 37.1191C-0.0156933 38.3008 -0.111396 40.6055 0.147002 41.8652C0.539385 43.8867 1.38157 45.4883 2.82669 46.9922C4.19524 48.4082 5.38196 49.1504 7.24817 49.7363C8.04251 49.9805 8.2052 50 9.95657 50C11.7175 50 11.8706 49.9805 12.6745 49.7363C16.139 48.6426 18.5507 46.1816 19.5843 42.6758C19.948 41.4453 20.015 39.2188 19.7374 37.8516C19.3259 35.8105 18.5029 34.2578 17.0195 32.7246L16.0816 31.748V18.5352C16.0816 3.74023 16.1294 4.80469 15.3829 3.33008C14.6364 1.85547 13.1243 0.634766 11.5261 0.214844C10.7222 0 9.04739 0.0195312 8.28176 0.244141ZM10.8275 1.71875C11.995 1.94336 13.2392 2.8418 13.8804 3.92578C14.579 5.10742 14.5407 4.22852 14.5407 19.1602C14.5503 31.7773 14.5599 32.5684 14.7226 32.7539C14.8087 32.8613 15.1532 33.1738 15.4882 33.457C17.3544 35.0098 18.5316 37.9199 18.3402 40.4785C18.0626 44.2676 15.5743 47.2754 11.9089 48.2617C11.4208 48.3887 10.904 48.4375 9.90872 48.4375C8.73157 48.4277 8.4636 48.3984 7.70755 48.1641C4.82688 47.2656 2.73099 45.1367 1.86009 42.1973C1.6304 41.4258 1.60169 41.1523 1.59212 39.9512C1.59212 38.916 1.6304 38.418 1.76438 37.9102C2.29075 35.8984 3.21907 34.4629 4.96087 32.959L5.36282 32.6074V25.3125V18.0273H6.272C7.11419 18.0273 7.20989 18.0078 7.42044 17.7832C7.57356 17.6367 7.65969 17.4316 7.65969 17.2461C7.65969 17.0605 7.57356 16.8555 7.42044 16.709C7.20989 16.4844 7.11419 16.4648 6.272 16.4648H5.36282V15.6836V14.9023H7.03762C8.69329 14.9023 8.722 14.9023 8.95169 14.6582C9.26751 14.3457 9.26751 13.8965 8.95169 13.584C8.722 13.3398 8.69329 13.3398 7.03762 13.3398H5.36282V12.5586V11.7773H6.272C7.11419 11.7773 7.20989 11.7578 7.42044 11.5332C7.73626 11.2207 7.73626 10.7715 7.42044 10.459C7.20989 10.2344 7.11419 10.2148 6.272 10.2148H5.36282V9.43359V8.65234H7.03762C8.69329 8.65234 8.722 8.65234 8.95169 8.4082C9.26751 8.0957 9.26751 7.64648 8.95169 7.33398C8.722 7.08984 8.69329 7.08984 7.03762 7.08984H5.36282V6.51367C5.36282 5.08789 5.87005 3.82812 6.80794 2.94922C7.95637 1.85547 9.34407 1.43555 10.8275 1.71875Z" fill="#BAC6F2"/>
<path d="M9.21007 19.7168C9.02824 19.7754 8.6837 20.0098 8.42531 20.2442C7.63097 20.9766 7.65968 20.6348 7.65968 28.2715V34.9707L7.20988 35.2149C6.22413 35.7422 5.2671 37.002 4.82687 38.3399C4.5589 39.1602 4.57804 40.7227 4.86515 41.582C5.57335 43.6719 7.42999 45.166 9.52589 45.3418C13.0478 45.6348 15.9189 42.3242 15.2107 38.8086C15.1532 38.5254 14.9331 37.9199 14.7226 37.4805C14.2919 36.543 13.4689 35.625 12.7128 35.2149L12.2534 34.9707V28.2813C12.2534 23.7988 12.2151 21.4649 12.1482 21.211C12.0046 20.6738 11.2964 19.9317 10.7509 19.7461C10.2532 19.5703 9.67902 19.5606 9.21007 19.7168ZM9.68859 36.1621C10.3011 36.6406 10.9423 37.5098 11.2007 38.2227C11.3347 38.5645 11.4304 39.1016 11.4591 39.6094C11.5452 41.0449 11.105 42.2363 10.1193 43.2422C9.65988 43.711 9.62159 43.7305 9.21964 43.6719C8.588 43.584 7.80324 43.1641 7.28644 42.6367C5.42023 40.7324 5.97531 37.5586 8.38702 36.3867C8.73156 36.211 9.03781 36.0156 9.06652 35.9375C9.13351 35.7422 9.16222 35.752 9.68859 36.1621Z" fill="#BAC6F2"/>
</svg>
