<svg width="30" height="25" viewBox="0 0 30 25" fill="none" xmlns="http://www.w3.org/2000/svg">
<path d="M11.7639 2.49999C12.0975 2.127 12.5192 1.84339 12.9904 1.67499C13.4616 1.50658 13.9675 1.45872 14.4619 1.53578C14.9564 1.61284 15.4237 1.81236 15.8214 2.11617C16.219 2.41999 16.5343 2.81845 16.7386 3.27527C16.9429 3.73208 17.0297 4.23275 16.991 4.73168C16.9524 5.2306 16.7896 5.71194 16.5174 6.1319C16.2452 6.5518 15.8722 6.8969 15.4326 7.1359C14.9929 7.3748 14.5004 7.5 14 7.5H2" stroke="#BAC6F2" stroke-width="3" stroke-linecap="round" stroke-linejoin="round"/>
<path d="M22.7639 7.5C23.0975 7.127 23.5191 6.8434 23.9904 6.675C24.4616 6.5066 24.9675 6.4587 25.4619 6.5358C25.9564 6.6128 26.4237 6.8124 26.8213 7.1162C27.219 7.42 27.5343 7.8184 27.7386 8.2753C27.9429 8.7321 28.0297 9.2327 27.991 9.7317C27.9524 10.2306 27.7896 10.7119 27.5174 11.1318C27.2452 11.5518 26.8723 11.8969 26.4326 12.1359C25.9929 12.3748 25.5004 12.5 25 12.5H3" stroke="#BAC6F2" stroke-width="3" stroke-linecap="round" stroke-linejoin="round"/>
<path d="M15.7639 22.5C16.0975 22.873 16.5191 23.1566 16.9904 23.325C17.4616 23.4934 17.9675 23.5413 18.4619 23.4642C18.9564 23.3872 19.4237 23.1877 19.8213 22.8839C20.219 22.5801 20.5343 22.1816 20.7386 21.7248C20.9429 21.268 21.0297 20.7673 20.991 20.2684C20.9524 19.7694 20.7896 19.2881 20.5174 18.8682C20.2452 18.4483 19.8723 18.1031 19.4326 17.8641C18.9929 17.6252 18.5004 17.5 18 17.5H4" stroke="#BAC6F2" stroke-width="3" stroke-linecap="round" stroke-linejoin="round"/>
</svg>
